{
.appVersion = "3151";
DisplayStrings = (
"/Rtail",
"/Bhook.alt",
"/Bhook",
"/Dhook",
a,
o,
i,
h,
n,
"/Hturned",
"/Iota-latin",
"/macronacutecomb",
"/candraBinducomb",
"/Alpha-latin",
"/Ystroke",
"h/hmod",
"/ucircumflexbelow",
"/udieresisbelow",
"/wdotaccent",
"/wdotbelow",
"/zcircumflex",
"/rdotbelowmacron",
"/hdieresis",
"/hdotaccent",
"/hcedilla",
"/ldotbelowmacron",
"/etildebelow",
"/oogonekmacron"
);
customParameters = (
{
name = vendorID;
value = "!666";
},
{
name = Axes;
value = (
{
Name = "Optical size";
Tag = opsz;
}
);
}
);
date = "2022-03-08 00:05:33 +0000";
designer = "Agyei Archer";
designerURL = "http://agyei.design";
familyName = Jaro;
fontMaster = (
{
alignmentZones = (
"{0, -100}"
);
ascender = 800;
capHeight = 800;
custom = Jaro;
descender = -250;
guideLines = (
{
locked = 1;
name = "/O counter bottom";
position = "{0, 226}";
},
{
locked = 1;
name = Center;
position = "{0, 400}";
showMeasurement = 1;
},
{
locked = 1;
name = "Diagonal edge top";
position = "{0, 660}";
}
);
id = "462F72A0-0500-4E69-A49B-6C2F2580580D";
userData = {
GSCornerRadius = 12;
GSExtrudeAngle = 30;
GSExtrudeDontSubtract = 1;
GSExtrudeOffset = 250;
GSOffsetHorizontal = 15;
GSOffsetMakeStroke = 1;
GSOffsetVertical = 15;
};
visible = 1;
weightValue = 0;
xHeight = 58;
}
);
glyphs = (
{
glyphname = A;
lastChange = "2023-05-24 12:09:53 +0000";
layers = (
{
anchors = (
{
name = bottom;
position = "{299, -30}";
},
{
name = ogonek;
position = "{525, 10}";
},
{
name = top;
position = "{299, 794}";
}
);
associatedMasterId = "462F72A0-0500-4E69-A49B-6C2F2580580D";
layerId = "C8E13D57-C79D-4678-A318-908658594FF3";
name = Original;
paths = (
{
closed = 1;
nodes = (
"259 0 LINE SMOOTH",
"268 0 OFFCURVE",
"274 6 OFFCURVE",
"274 15 CURVE SMOOTH",
"274 228 LINE",
"324 228 LINE",
"324 15 LINE SMOOTH",
"324 6 OFFCURVE",
"330 0 OFFCURVE",
"339 0 CURVE SMOOTH",
"553 0 LINE SMOOTH",
"562 0 OFFCURVE",
"568 6 OFFCURVE",
"568 15 CURVE SMOOTH",
"568 571 LINE SMOOTH",
"568 578 OFFCURVE",
"566 583 OFFCURVE",
"562 589 CURVE SMOOTH",
"420 791 LINE SMOOTH",
"416 797 OFFCURVE",
"409 800 OFFCURVE",
"401 800 CURVE SMOOTH",
"196 800 LINE SMOOTH",
"188 800 OFFCURVE",
"181 797 OFFCURVE",
"177 791 CURVE SMOOTH",
"36 589 LINE SMOOTH",
"32 583 OFFCURVE",
"30 578 OFFCURVE",
"30 571 CURVE SMOOTH",
"30 15 LINE SMOOTH",
"30 6 OFFCURVE",
"36 0 OFFCURVE",
"45 0 CURVE SMOOTH"
);
},
{
closed = 1;
nodes = (
"266 437 OFFCURVE",
"241 463 OFFCURVE",
"241 495 CURVE SMOOTH",
"241 527 OFFCURVE",
"266 553 OFFCURVE",
"298 553 CURVE SMOOTH",
"330 553 OFFCURVE",
"356 527 OFFCURVE",
"356 495 CURVE SMOOTH",
"356 463 OFFCURVE",
"330 437 OFFCURVE",
"298 437 CURVE SMOOTH"
);
}
);
width = 598;
},
{
anchors = (
{
name = bottom;
position = "{308, -30}";
},
{
name = ogonek;
position = "{534, 10}";
},
{
name = top;
position = "{303, 794}";
}
);
associatedMasterId = "462F72A0-0500-4E69-A49B-6C2F2580580D";
layerId = "795BAFE1-3A72-4A2A-BBB9-32C5EC2E3B2A";
name = "Jun 2 22, 02:32";
paths = (
{
closed = 1;
nodes = (
"259 0 LINE SMOOTH",
"268 0 OFFCURVE",
"274 6 OFFCURVE",
"274 15 CURVE SMOOTH",
"274 228 LINE",
"332 228 LINE",
"332 15 LINE SMOOTH",
"332 6 OFFCURVE",
"338 0 OFFCURVE",
"347 0 CURVE SMOOTH",
"561 0 LINE SMOOTH",
"570 0 OFFCURVE",
"576 6 OFFCURVE",
"576 15 CURVE SMOOTH",
"576 571 LINE SMOOTH",
"576 578 OFFCURVE",
"574 583 OFFCURVE",
"570 589 CURVE SMOOTH",
"428 791 LINE SMOOTH",
"424 797 OFFCURVE",
"417 800 OFFCURVE",
"409 800 CURVE SMOOTH",
"196 800 LINE SMOOTH",
"188 800 OFFCURVE",
"181 797 OFFCURVE",
"177 791 CURVE SMOOTH",
"36 589 LINE SMOOTH",
"32 583 OFFCURVE",
"30 578 OFFCURVE",
"30 571 CURVE SMOOTH",
"30 15 LINE SMOOTH",
"30 6 OFFCURVE",
"36 0 OFFCURVE",
"45 0 CURVE SMOOTH"
);
},
{
closed = 1;
nodes = (
"269 437 OFFCURVE",
"245 461 OFFCURVE",
"245 495 CURVE SMOOTH",
"245 529 OFFCURVE",
"269 553 OFFCURVE",
"303 553 CURVE SMOOTH",
"337 553 OFFCURVE",
"361 529 OFFCURVE",
"361 495 CURVE SMOOTH",
"361 461 OFFCURVE",
"337 437 OFFCURVE",
"303 437 CURVE SMOOTH"
);
}
);
width = 606;
},
{
anchors = (
{
name = bottom;
position = "{308, -30}";
},
{
name = ogonek;
position = "{534, 10}";
},
{
name = top;
position = "{303, 794}";
}
);
guideLines = (
{
angle = 90;
position = "{303, 0}";
showMeasurement = 1;
}
);
layerId = "462F72A0-0500-4E69-A49B-6C2F2580580D";
paths = (
{
closed = 1;
nodes = (
"258 0 LINE SMOOTH",
"267 0 OFFCURVE",
"273 6 OFFCURVE",
"273 15 CURVE SMOOTH",
"273 228 LINE",
"333 228 LINE",
"333 15 LINE SMOOTH",
"333 6 OFFCURVE",
"339 0 OFFCURVE",
"348 0 CURVE SMOOTH",
"562 0 LINE SMOOTH",
"571 0 OFFCURVE",
"577 6 OFFCURVE",
"577 15 CURVE SMOOTH",
"577 571 LINE SMOOTH",
"577 578 OFFCURVE",
"575 583 OFFCURVE",
"571 589 CURVE SMOOTH",
"429 791 LINE SMOOTH",
"425 797 OFFCURVE",
"418 800 OFFCURVE",
"410 800 CURVE SMOOTH",
"195 800 LINE SMOOTH",
"187 800 OFFCURVE",
"180 797 OFFCURVE",
"176 791 CURVE SMOOTH",
"35 589 LINE SMOOTH",
"31 583 OFFCURVE",
"29 578 OFFCURVE",
"29 571 CURVE SMOOTH",
"29 15 LINE SMOOTH",
"29 6 OFFCURVE",
"35 0 OFFCURVE",
"44 0 CURVE SMOOTH"
);
},
{
closed = 1;
nodes = (
"269 448 OFFCURVE",
"245 472 OFFCURVE",
"245 506 CURVE SMOOTH",
"245 540 OFFCURVE",
"269 564 OFFCURVE",
"303 564 CURVE SMOOTH",
"337 564 OFFCURVE",
"361 540 OFFCURVE",
"361 506 CURVE SMOOTH",
"361 472 OFFCURVE",
"337 448 OFFCURVE",
"303 448 CURVE SMOOTH"
);
}
);
width = 606;
}
);
unicode = 0041;
},
{
glyphname = Astroke;
lastChange = "2023-05-22 23:19:47 +0000";
layers = (
{
components = (
{
name = A;
}
);
layerId = "462F72A0-0500-4E69-A49B-6C2F2580580D";
paths = (
{
closed = 1;
nodes = (
"393 639 LINE SMOOTH",
"387 628 OFFCURVE",
"392 621 OFFCURVE",
"403 621 CURVE SMOOTH",
"471 621 LINE SMOOTH",
"479 621 OFFCURVE",
"485 623 OFFCURVE",
"489 631 CURVE SMOOTH",
"573 782 LINE SMOOTH",
"579 793 OFFCURVE",
"573 800 OFFCURVE",
"562 800 CURVE SMOOTH",
"495 800 LINE SMOOTH",
"487 800 OFFCURVE",
"481 798 OFFCURVE",
"477 790 CURVE SMOOTH"
);
},
{
closed = 1;
nodes = (
"45 -41 LINE SMOOTH",
"39 -52 OFFCURVE",
"44 -59 OFFCURVE",
"55 -59 CURVE SMOOTH",
"123 -59 LINE SMOOTH",
"131 -59 OFFCURVE",
"137 -57 OFFCURVE",
"141 -49 CURVE SMOOTH",
"225 102 LINE SMOOTH",
"231 113 OFFCURVE",
"225 120 OFFCURVE",
"214 120 CURVE SMOOTH",
"147 120 LINE SMOOTH",
"139 120 OFFCURVE",
"133 118 OFFCURVE",
"129 110 CURVE SMOOTH"
);
}
);
width = 564;
}
);
unicode = "023A,2C65";
},
{
glyphname = AE;
lastChange = "2023-09-02 16:07:34 +0000";
layers = (
{
anchors = (
{
name = bottom;
position = "{407, 0}";
},
{
name = top;
position = "{407, 800}";
}
);
annotations = (
{
position = "{854, 522}";
type = Arrow;
}
);
layerId = "462F72A0-0500-4E69-A49B-6C2F2580580D";
paths = (
{
closed = 1;
nodes = (
"29 6 OFFCURVE",
"35 0 OFFCURVE",
"44 0 CURVE SMOOTH",
"258 0 LINE SMOOTH",
"267 0 OFFCURVE",
"273 6 OFFCURVE",
"273 15 CURVE SMOOTH",
"273 228 LINE",
"323 228 LINE",
"323 15 LINE SMOOTH",
"323 6 OFFCURVE",
"329 0 OFFCURVE",
"338 0 CURVE SMOOTH",
"770 1 LINE",
"778 1 OFFCURVE",
"785 8 OFFCURVE",
"785 16 CURVE SMOOTH",
"785 218 LINE SMOOTH",
"785 226 OFFCURVE",
"778 233 OFFCURVE",
"770 233 CURVE SMOOTH",
"570 233 LINE",
"570 279 LINE",
"756 279 LINE SMOOTH",
"764 279 OFFCURVE",
"771 286 OFFCURVE",
"771 294 CURVE SMOOTH",
"771 487 LINE SMOOTH",
"771 495 OFFCURVE",
"764 502 OFFCURVE",
"756 502 CURVE SMOOTH",
"570 502 LINE",
"570 556 LINE",
"756 556 LINE SMOOTH",
"764 556 OFFCURVE",
"771 563 OFFCURVE",
"771 571 CURVE SMOOTH",
"771 785 LINE SMOOTH",
"771 793 OFFCURVE",
"764 800 OFFCURVE",
"756 800 CURVE SMOOTH",
"195 800 LINE SMOOTH",
"187 800 OFFCURVE",
"180 797 OFFCURVE",
"176 791 CURVE SMOOTH",
"35 589 LINE SMOOTH",
"31 583 OFFCURVE",
"29 578 OFFCURVE",
"29 571 CURVE SMOOTH",
"29 15 LINE SMOOTH"
);
},
{
closed = 1;
nodes = (
"250 527 OFFCURVE",
"275 553 OFFCURVE",
"307 553 CURVE SMOOTH",
"339 553 OFFCURVE",
"365 527 OFFCURVE",
"365 495 CURVE SMOOTH",
"365 463 OFFCURVE",
"339 437 OFFCURVE",
"307 437 CURVE SMOOTH",
"275 437 OFFCURVE",
"250 463 OFFCURVE",
"250 495 CURVE SMOOTH"
);
}
);
width = 791;
}
);
leftMetricsKey = "=A";
rightMetricsKey = "=E";
unicode = "00C6,00E6";
},
{
glyphname = B;
lastChange = "2023-05-20 14:36:23 +0000";
layers = (
{
anchors = (
{
name = bottom;
position = "{294, -30}";
},
{
name = top;
position = "{294, 800}";
}
);
layerId = "462F72A0-0500-4E69-A49B-6C2F2580580D";
paths = (
{
closed = 1;
nodes = (
"45 800 LINE SMOOTH",
"36 800 OFFCURVE",
"30 794 OFFCURVE",
"30 785 CURVE SMOOTH",
"30 15 LINE SMOOTH",
"30 6 OFFCURVE",
"36 0 OFFCURVE",
"45 0 CURVE SMOOTH",
"418 0 LINE SMOOTH",
"425 0 OFFCURVE",
"432 2 OFFCURVE",
"437 7 CURVE SMOOTH",
"571 133 LINE SMOOTH",
"577 138 OFFCURVE",
"579 144 OFFCURVE",
"579 151 CURVE SMOOTH",
"579 319 LINE SMOOTH",
"579 327 OFFCURVE",
"577 331 OFFCURVE",
"569 337 CURVE SMOOTH",
"475 416 LINE",
"475 454 LINE",
"569 533 LINE SMOOTH",
"577 539 OFFCURVE",
"579 543 OFFCURVE",
"579 551 CURVE SMOOTH",
"579 644 LINE SMOOTH",
"579 657 OFFCURVE",
"578 660 OFFCURVE",
"569 668 CURVE SMOOTH",
"431 792 LINE SMOOTH",
"424 798 OFFCURVE",
"418 800 OFFCURVE",
"407 800 CURVE SMOOTH"
);
},
{
closed = 1;
nodes = (
"273 201 OFFCURVE",
"250 224 OFFCURVE",
"250 256 CURVE SMOOTH",
"250 288 OFFCURVE",
"273 311 OFFCURVE",
"305 311 CURVE SMOOTH",
"337 311 OFFCURVE",
"360 288 OFFCURVE",
"360 256 CURVE SMOOTH",
"360 224 OFFCURVE",
"337 201 OFFCURVE",
"305 201 CURVE SMOOTH"
);
},
{
closed = 1;
nodes = (
"272 474 OFFCURVE",
"250 496 OFFCURVE",
"250 526 CURVE SMOOTH",
"250 556 OFFCURVE",
"272 578 OFFCURVE",
"302 578 CURVE SMOOTH",
"332 578 OFFCURVE",
"354 556 OFFCURVE",
"354 526 CURVE SMOOTH",
"354 496 OFFCURVE",
"332 474 OFFCURVE",
"302 474 CURVE SMOOTH"
);
}
);
width = 582;
},
{
anchors = (
{
name = bottom;
position = "{294, -30}";
},
{
name = top;
position = "{294, 800}";
}
);
associatedMasterId = "462F72A0-0500-4E69-A49B-6C2F2580580D";
layerId = "026E329D-2B5C-4FE7-9435-E8D1099B0E0A";
name = Original;
paths = (
{
closed = 1;
nodes = (
"273 474 OFFCURVE",
"250 497 OFFCURVE",
"250 526 CURVE SMOOTH",
"250 554 OFFCURVE",
"273 578 OFFCURVE",
"301 578 CURVE SMOOTH",
"330 578 OFFCURVE",
"353 554 OFFCURVE",
"353 526 CURVE SMOOTH",
"353 497 OFFCURVE",
"330 474 OFFCURVE",
"301 474 CURVE SMOOTH"
);
},
{
closed = 1;
nodes = (
"425 0 OFFCURVE",
"432 2 OFFCURVE",
"437 7 CURVE SMOOTH",
"571 133 LINE SMOOTH",
"577 138 OFFCURVE",
"579 144 OFFCURVE",
"579 151 CURVE SMOOTH",
"579 319 LINE SMOOTH",
"579 327 OFFCURVE",
"577 331 OFFCURVE",
"569 337 CURVE SMOOTH",
"475 416 LINE",
"475 454 LINE",
"569 533 LINE SMOOTH",
"577 539 OFFCURVE",
"579 543 OFFCURVE",
"579 551 CURVE SMOOTH",
"579 649 LINE SMOOTH",
"579 656 OFFCURVE",
"577 662 OFFCURVE",
"571 667 CURVE SMOOTH",
"437 793 LINE SMOOTH",
"432 798 OFFCURVE",
"425 800 OFFCURVE",
"418 800 CURVE SMOOTH",
"45 800 LINE SMOOTH",
"36 800 OFFCURVE",
"30 794 OFFCURVE",
"30 785 CURVE SMOOTH",
"30 15 LINE SMOOTH",
"30 6 OFFCURVE",
"36 0 OFFCURVE",
"45 0 CURVE SMOOTH",
"418 0 LINE SMOOTH"
);
},
{
closed = 1;
nodes = (
"274 201 OFFCURVE",
"250 226 OFFCURVE",
"250 256 CURVE SMOOTH",
"250 286 OFFCURVE",
"274 311 OFFCURVE",
"304 311 CURVE SMOOTH",
"334 311 OFFCURVE",
"359 286 OFFCURVE",
"359 256 CURVE SMOOTH",
"359 226 OFFCURVE",
"334 201 OFFCURVE",
"304 201 CURVE SMOOTH"
);
}
);
width = 603;
},
{
anchors = (
{
name = bottom;
position = "{294, -30}";
},
{
name = top;
position = "{294, 800}";
}
);
associatedMasterId = "462F72A0-0500-4E69-A49B-6C2F2580580D";
layerId = "A7D4A0FD-8058-4D74-8696-0FC5069394CB";
name = "Jun 2 22, 03:23";
paths = (
{
closed = 1;
nodes = (
"418 0 LINE SMOOTH",
"425 0 OFFCURVE",
"432 2 OFFCURVE",
"437 7 CURVE SMOOTH",
"571 133 LINE SMOOTH",
"577 138 OFFCURVE",
"579 144 OFFCURVE",
"579 151 CURVE SMOOTH",
"579 319 LINE SMOOTH",
"579 327 OFFCURVE",
"577 331 OFFCURVE",
"569 337 CURVE SMOOTH",
"475 416 LINE",
"475 454 LINE",
"569 533 LINE SMOOTH",
"577 539 OFFCURVE",
"579 543 OFFCURVE",
"579 551 CURVE SMOOTH",
"579 649 LINE SMOOTH",
"579 656 OFFCURVE",
"577 662 OFFCURVE",
"571 667 CURVE SMOOTH",
"437 793 LINE SMOOTH",
"432 798 OFFCURVE",
"425 800 OFFCURVE",
"418 800 CURVE SMOOTH",
"45 800 LINE SMOOTH",
"36 800 OFFCURVE",
"30 794 OFFCURVE",
"30 785 CURVE SMOOTH",
"30 15 LINE SMOOTH",
"30 6 OFFCURVE",
"36 0 OFFCURVE",
"45 0 CURVE SMOOTH"
);
},
{
closed = 1;
nodes = (
"273 201 OFFCURVE",
"250 224 OFFCURVE",
"250 256 CURVE SMOOTH",
"250 288 OFFCURVE",
"273 311 OFFCURVE",
"305 311 CURVE SMOOTH",
"337 311 OFFCURVE",
"360 288 OFFCURVE",
"360 256 CURVE SMOOTH",
"360 224 OFFCURVE",
"337 201 OFFCURVE",
"305 201 CURVE SMOOTH"
);
},
{
closed = 1;
nodes = (
"272 474 OFFCURVE",
"250 496 OFFCURVE",
"250 526 CURVE SMOOTH",
"250 556 OFFCURVE",
"272 578 OFFCURVE",
"302 578 CURVE SMOOTH",
"332 578 OFFCURVE",
"354 556 OFFCURVE",
"354 526 CURVE SMOOTH",
"354 496 OFFCURVE",
"332 474 OFFCURVE",
"302 474 CURVE SMOOTH"
);
}
);
width = 603;
},
{
anchors = (
{
name = bottom;
position = "{294, -30}";
},
{
name = top;
position = "{294, 800}";
}
);
associatedMasterId = "462F72A0-0500-4E69-A49B-6C2F2580580D";
layerId = "FB87AFEF-1758-49B1-960F-0C92596B4041";
name = "Jun 4 22, 21:31";
paths = (
{
closed = 1;
nodes = (
"45 800 LINE SMOOTH",
"36 800 OFFCURVE",
"30 794 OFFCURVE",
"30 785 CURVE SMOOTH",
"30 15 LINE SMOOTH",
"30 6 OFFCURVE",
"36 0 OFFCURVE",
"45 0 CURVE SMOOTH",
"418 0 LINE SMOOTH",
"425 0 OFFCURVE",
"432 2 OFFCURVE",
"437 7 CURVE SMOOTH",
"571 133 LINE SMOOTH",
"577 138 OFFCURVE",
"579 144 OFFCURVE",
"579 151 CURVE SMOOTH",
"579 319 LINE SMOOTH",
"579 327 OFFCURVE",
"577 331 OFFCURVE",
"569 337 CURVE SMOOTH",
"475 416 LINE",
"475 454 LINE",
"569 533 LINE SMOOTH",
"577 539 OFFCURVE",
"579 543 OFFCURVE",
"579 551 CURVE SMOOTH",
"579 644 LINE SMOOTH",
"579 657 OFFCURVE",
"578 660 OFFCURVE",
"569 668 CURVE SMOOTH",
"431 792 LINE SMOOTH",
"424 798 OFFCURVE",
"418 800 OFFCURVE",
"407 800 CURVE SMOOTH"
);
},
{
closed = 1;
nodes = (
"273 201 OFFCURVE",
"250 224 OFFCURVE",
"250 256 CURVE SMOOTH",
"250 288 OFFCURVE",
"273 311 OFFCURVE",
"305 311 CURVE SMOOTH",
"337 311 OFFCURVE",
"360 288 OFFCURVE",
"360 256 CURVE SMOOTH",
"360 224 OFFCURVE",
"337 201 OFFCURVE",
"305 201 CURVE SMOOTH"
);
},
{
closed = 1;
nodes = (
"272 474 OFFCURVE",
"250 496 OFFCURVE",
"250 526 CURVE SMOOTH",
"250 556 OFFCURVE",
"272 578 OFFCURVE",
"302 578 CURVE SMOOTH",
"332 578 OFFCURVE",
"354 556 OFFCURVE",
"354 526 CURVE SMOOTH",
"354 496 OFFCURVE",
"332 474 OFFCURVE",
"302 474 CURVE SMOOTH"
);
}
);
width = 599;
}
);
leftMetricsKey = "=H";
unicode = 0042;
},
{
color = 0;
glyphname = Bhook;
lastChange = "2023-09-02 16:35:56 +0000";
layers = (
{
anchors = (
{
name = bottom;
position = "{418, -30}";
},
{
name = top;
position = "{418, 800}";
}
);
components = (
{
name = B;
transform = "{1, 0, 0, 1, 113, 0}";
}
);
layerId = "462F72A0-0500-4E69-A49B-6C2F2580580D";
paths = (
{
closed = 1;
nodes = (
"251 633 OFFCURVE",
"278 640 OFFCURVE",
"278 651 CURVE SMOOTH",
"278 762 LINE",
"278 800 LINE",
"31 800 LINE SMOOTH",
"22 800 OFFCURVE",
"15 798 OFFCURVE",
"8 790 CURVE SMOOTH",
"-34 746 LINE SMOOTH",
"-40 739 OFFCURVE",
"-42 731 OFFCURVE",
"-42 722 CURVE SMOOTH",
"-42 574 LINE SMOOTH",
"-42 562 OFFCURVE",
"-35 555 OFFCURVE",
"-24 555 CURVE SMOOTH",
"100 555 LINE SMOOTH",
"111 555 OFFCURVE",
"119 562 OFFCURVE",
"119 574 CURVE SMOOTH",
"119 633 LINE",
"239 633 LINE SMOOTH"
);
}
);
width = 695;
}
);
leftMetricsKey = "=Dhook";
unicode = "0181,0253";
},
{
glyphname = Bstroke;
lastChange = "2023-09-15 18:02:16 +0000";
layers = (
{
anchors = (
{
name = bottom;
position = "{273, -30}";
},
{
name = top;
position = "{273, 800}";
}
);
layerId = "462F72A0-0500-4E69-A49B-6C2F2580580D";
paths = (
{
closed = 1;
nodes = (
"252 474 OFFCURVE",
"229 497 OFFCURVE",
"229 526 CURVE SMOOTH",
"229 554 OFFCURVE",
"252 578 OFFCURVE",
"280 578 CURVE SMOOTH",
"309 578 OFFCURVE",
"332 554 OFFCURVE",
"332 526 CURVE SMOOTH",
"332 497 OFFCURVE",
"309 474 OFFCURVE",
"280 474 CURVE SMOOTH"
);
},
{
closed = 1;
nodes = (
"404 0 OFFCURVE",
"411 2 OFFCURVE",
"416 7 CURVE SMOOTH",
"550 133 LINE SMOOTH",
"556 138 OFFCURVE",
"558 144 OFFCURVE",
"558 151 CURVE SMOOTH",
"558 319 LINE SMOOTH",
"558 327 OFFCURVE",
"556 331 OFFCURVE",
"548 337 CURVE SMOOTH",
"454 416 LINE",
"454 454 LINE",
"548 533 LINE SMOOTH",
"556 539 OFFCURVE",
"558 543 OFFCURVE",
"558 551 CURVE SMOOTH",
"558 649 LINE SMOOTH",
"558 656 OFFCURVE",
"556 662 OFFCURVE",
"550 667 CURVE SMOOTH",
"416 793 LINE SMOOTH",
"411 798 OFFCURVE",
"404 800 OFFCURVE",
"397 800 CURVE SMOOTH",
"44 800 LINE SMOOTH",
"35 800 OFFCURVE",
"29 794 OFFCURVE",
"29 785 CURVE SMOOTH",
"29 15 LINE SMOOTH",
"29 6 OFFCURVE",
"35 0 OFFCURVE",
"44 0 CURVE SMOOTH",
"397 0 LINE SMOOTH"
);
},
{
closed = 1;
nodes = (
"242 181 OFFCURVE",
"209 215 OFFCURVE",
"209 256 CURVE SMOOTH",
"209 297 OFFCURVE",
"242 331 OFFCURVE",
"283 331 CURVE SMOOTH",
"324 331 OFFCURVE",
"358 297 OFFCURVE",
"358 256 CURVE SMOOTH",
"358 215 OFFCURVE",
"324 181 OFFCURVE",
"283 181 CURVE SMOOTH"
);
},
{
closed = 1;
nodes = (
"-3 223 LINE SMOOTH",
"-3 214 OFFCURVE",
"3 208 OFFCURVE",
"12 208 CURVE SMOOTH",
"269 208 LINE SMOOTH",
"278 208 OFFCURVE",
"284 214 OFFCURVE",
"284 223 CURVE SMOOTH",
"284 278 LINE SMOOTH",
"284 287 OFFCURVE",
"278 293 OFFCURVE",
"269 293 CURVE SMOOTH",
"12 293 LINE SMOOTH",
"3 293 OFFCURVE",
"-3 287 OFFCURVE",
"-3 278 CURVE SMOOTH"
);
}
);
width = 561;
}
);
rightMetricsKey = "=B";
unicode = "0243,0180";
},
{
glyphname = C;
lastChange = "2023-05-20 14:36:23 +0000";
layers = (
{
anchors = (
{
name = bottom;
position = "{247, -30}";
},
{
name = top;
position = "{250, 800}";
}
);
layerId = "462F72A0-0500-4E69-A49B-6C2F2580580D";
paths = (
{
closed = 1;
nodes = (
"397 0 LINE SMOOTH",
"406 0 OFFCURVE",
"412 6 OFFCURVE",
"412 15 CURVE SMOOTH",
"412 181 LINE SMOOTH",
"412 188 OFFCURVE",
"412 194 OFFCURVE",
"406 199 CURVE SMOOTH",
"263 338 LINE",
"263 462 LINE",
"405 600 LINE SMOOTH",
"411 605 OFFCURVE",
"412 612 OFFCURVE",
"412 619 CURVE SMOOTH",
"412 785 LINE SMOOTH",
"412 794 OFFCURVE",
"406 800 OFFCURVE",
"397 800 CURVE SMOOTH",
"229 800 LINE SMOOTH",
"218 800 OFFCURVE",
"212 798 OFFCURVE",
"205 792 CURVE SMOOTH",
"25 644 LINE SMOOTH",
"16 636 OFFCURVE",
"15 633 OFFCURVE",
"15 620 CURVE SMOOTH",
"15 180 LINE SMOOTH",
"15 167 OFFCURVE",
"16 163 OFFCURVE",
"25 156 CURVE SMOOTH",
"201 8 LINE SMOOTH",
"208 2 OFFCURVE",
"214 0 OFFCURVE",
"225 0 CURVE SMOOTH"
);
}
);
width = 428;
},
{
anchors = (
{
name = bottom;
position = "{258, -30}";
},
{
name = top;
position = "{261, 800}";
}
);
associatedMasterId = "462F72A0-0500-4E69-A49B-6C2F2580580D";
guideLines = (
{
angle = 36;
position = "{211, 792}";
}
);
layerId = "65B39F86-5EE6-440B-B327-ED1CEB56E318";
name = Original;
paths = (
{
closed = 1;
nodes = (
"417 0 LINE SMOOTH",
"426 0 OFFCURVE",
"432 6 OFFCURVE",
"432 15 CURVE SMOOTH",
"432 181 LINE SMOOTH",
"432 188 OFFCURVE",
"432 194 OFFCURVE",
"426 199 CURVE SMOOTH",
"263 360 LINE",
"263 463 LINE",
"425 601 LINE SMOOTH",
"431 606 OFFCURVE",
"432 613 OFFCURVE",
"432 620 CURVE SMOOTH",
"432 785 LINE SMOOTH",
"432 794 OFFCURVE",
"426 800 OFFCURVE",
"417 800 CURVE SMOOTH",
"230 800 LINE SMOOTH",
"223 800 OFFCURVE",
"217 797 OFFCURVE",
"211 792 CURVE SMOOTH",
"33 658 LINE SMOOTH",
"27 653 OFFCURVE",
"26 646 OFFCURVE",
"26 639 CURVE SMOOTH",
"26 183 LINE SMOOTH",
"26 176 OFFCURVE",
"28 169 OFFCURVE",
"33 164 CURVE SMOOTH",
"212 9 LINE SMOOTH",
"218 4 OFFCURVE",
"223 0 OFFCURVE",
"230 0 CURVE SMOOTH"
);
}
);
visible = 1;
width = 456;
},
{
anchors = (
{
name = bottom;
position = "{258, -30}";
},
{
name = top;
position = "{261, 800}";
}
);
associatedMasterId = "462F72A0-0500-4E69-A49B-6C2F2580580D";
layerId = "BCAA6981-C312-4F79-BE53-F0C5A59A84BC";
name = "Jun 2 22, 03:11";
paths = (
{
closed = 1;
nodes = (
"417 0 LINE SMOOTH",
"426 0 OFFCURVE",
"432 6 OFFCURVE",
"432 15 CURVE SMOOTH",
"432 181 LINE SMOOTH",
"432 188 OFFCURVE",
"432 194 OFFCURVE",
"426 199 CURVE SMOOTH",
"263 360 LINE",
"263 463 LINE",
"425 601 LINE SMOOTH",
"431 606 OFFCURVE",
"432 613 OFFCURVE",
"432 620 CURVE SMOOTH",
"432 785 LINE SMOOTH",
"432 794 OFFCURVE",
"426 800 OFFCURVE",
"417 800 CURVE SMOOTH",
"210 800 LINE SMOOTH",
"203 800 OFFCURVE",
"197 797 OFFCURVE",
"191 792 CURVE SMOOTH",
"33 668 LINE SMOOTH",
"27 663 OFFCURVE",
"26 656 OFFCURVE",
"26 649 CURVE SMOOTH",
"26 157 LINE SMOOTH",
"26 150 OFFCURVE",
"27 143 OFFCURVE",
"33 138 CURVE SMOOTH",
"192 9 LINE SMOOTH",
"198 4 OFFCURVE",
"203 0 OFFCURVE",
"210 0 CURVE SMOOTH"
);
}
);
width = 456;
},
{
anchors = (
{
name = bottom;
position = "{258, -30}";
},
{
name = top;
position = "{261, 800}";
}
);
associatedMasterId = "462F72A0-0500-4E69-A49B-6C2F2580580D";
layerId = "D6B5257E-5F55-4892-80AD-FBCFEA4263FA";
name = "Jun 2 22, 04:22";
paths = (
{
closed = 1;
nodes = (
"417 0 LINE SMOOTH",
"426 0 OFFCURVE",
"432 6 OFFCURVE",
"432 15 CURVE SMOOTH",
"432 181 LINE SMOOTH",
"432 188 OFFCURVE",
"432 194 OFFCURVE",
"426 199 CURVE SMOOTH",
"263 340 LINE",
"263 460 LINE",
"425 600 LINE SMOOTH",
"431 605 OFFCURVE",
"432 612 OFFCURVE",
"432 619 CURVE SMOOTH",
"432 785 LINE SMOOTH",
"432 794 OFFCURVE",
"426 800 OFFCURVE",
"417 800 CURVE SMOOTH",
"198 800 LINE SMOOTH",
"187 800 OFFCURVE",
"181 798 OFFCURVE",
"174 792 CURVE SMOOTH",
"36 668 LINE SMOOTH",
"28 660 OFFCURVE",
"26 657 OFFCURVE",
"26 644 CURVE SMOOTH",
"26 156 LINE SMOOTH",
"26 143 OFFCURVE",
"28 140 OFFCURVE",
"36 132 CURVE SMOOTH",
"174 8 LINE SMOOTH",
"181 2 OFFCURVE",
"187 0 OFFCURVE",
"198 0 CURVE SMOOTH"
);
}
);
width = 456;
},
{
anchors = (
{
name = bottom;
position = "{258, -30}";
},
{
name = top;
position = "{261, 800}";
}
);
associatedMasterId = "462F72A0-0500-4E69-A49B-6C2F2580580D";
layerId = "BAC76631-75AF-4195-A651-0C0738B71B08";
name = "Jun 3 22, 20:32";
paths = (
{
closed = 1;
nodes = (
"417 0 LINE SMOOTH",
"426 0 OFFCURVE",
"432 6 OFFCURVE",
"432 15 CURVE SMOOTH",
"432 181 LINE SMOOTH",
"432 188 OFFCURVE",
"432 194 OFFCURVE",
"426 199 CURVE SMOOTH",
"263 340 LINE",
"263 460 LINE",
"425 600 LINE SMOOTH",
"431 605 OFFCURVE",
"432 612 OFFCURVE",
"432 619 CURVE SMOOTH",
"432 785 LINE SMOOTH",
"432 794 OFFCURVE",
"426 800 OFFCURVE",
"417 800 CURVE SMOOTH",
"208 800 LINE SMOOTH",
"197 800 OFFCURVE",
"191 798 OFFCURVE",
"184 792 CURVE SMOOTH",
"36 672 LINE SMOOTH",
"27 665 OFFCURVE",
"26 661 OFFCURVE",
"26 648 CURVE SMOOTH",
"26 152 LINE SMOOTH",
"26 139 OFFCURVE",
"27 135 OFFCURVE",
"36 128 CURVE SMOOTH",
"184 8 LINE SMOOTH",
"191 2 OFFCURVE",
"197 0 OFFCURVE",
"208 0 CURVE SMOOTH"
);
}
);
width = 456;
},
{
anchors = (
{
name = bottom;
position = "{258, -30}";
},
{
name = top;
position = "{261, 800}";
}
);
associatedMasterId = "462F72A0-0500-4E69-A49B-6C2F2580580D";
layerId = "100B6ADC-98C3-474F-88FF-449FA7339194";
name = "Jun 4 22, 20:31";
paths = (
{
closed = 1;
nodes = (
"417 0 LINE SMOOTH",
"426 0 OFFCURVE",
"432 6 OFFCURVE",
"432 15 CURVE SMOOTH",
"432 181 LINE SMOOTH",
"432 188 OFFCURVE",
"432 194 OFFCURVE",
"426 199 CURVE SMOOTH",
"263 340 LINE",
"263 460 LINE",
"425 600 LINE SMOOTH",
"431 605 OFFCURVE",
"432 612 OFFCURVE",
"432 619 CURVE SMOOTH",
"432 785 LINE SMOOTH",
"432 794 OFFCURVE",
"426 800 OFFCURVE",
"417 800 CURVE SMOOTH",
"240 800 LINE SMOOTH",
"229 800 OFFCURVE",
"223 798 OFFCURVE",
"216 792 CURVE SMOOTH",
"36 644 LINE SMOOTH",
"27 636 OFFCURVE",
"26 633 OFFCURVE",
"26 620 CURVE SMOOTH",
"26 180 LINE SMOOTH",
"26 167 OFFCURVE",
"27 164 OFFCURVE",
"36 156 CURVE SMOOTH",
"212 8 LINE SMOOTH",
"219 2 OFFCURVE",
"225 0 OFFCURVE",
"236 0 CURVE SMOOTH"
);
}
);
width = 456;
},
{
anchors = (
{
name = bottom;
position = "{258, -30}";
},
{
name = top;
position = "{261, 800}";
}
);
associatedMasterId = "462F72A0-0500-4E69-A49B-6C2F2580580D";
layerId = "2FD3A8FC-5120-4476-BC37-0A4BF2D571B2";
name = "Jun 4 22, 20:33";
paths = (
{
closed = 1;
nodes = (
"417 0 LINE SMOOTH",
"426 0 OFFCURVE",
"432 6 OFFCURVE",
"432 15 CURVE SMOOTH",
"432 181 LINE SMOOTH",
"432 188 OFFCURVE",
"432 194 OFFCURVE",
"426 199 CURVE SMOOTH",
"263 318 LINE",
"263 482 LINE",
"425 600 LINE SMOOTH",
"431 605 OFFCURVE",
"432 612 OFFCURVE",
"432 619 CURVE SMOOTH",
"432 785 LINE SMOOTH",
"432 794 OFFCURVE",
"426 800 OFFCURVE",
"417 800 CURVE SMOOTH",
"240 800 LINE SMOOTH",
"229 800 OFFCURVE",
"224 797 OFFCURVE",
"216 792 CURVE SMOOTH",
"36 664 LINE SMOOTH",
"26 657 OFFCURVE",
"26 653 OFFCURVE",
"26 640 CURVE SMOOTH",
"26 160 LINE SMOOTH",
"26 147 OFFCURVE",
"27 143 OFFCURVE",
"36 136 CURVE SMOOTH",
"212 8 LINE SMOOTH",
"219 3 OFFCURVE",
"225 0 OFFCURVE",
"236 0 CURVE SMOOTH"
);
}
);
width = 456;
}
);
unicode = 0043;
},
{
glyphname = Chook;
lastChange = "2023-05-18 02:22:02 +0000";
layers = (
{
anchors = (
{
name = top;
position = "{400, 930}";
}
);
components = (
{
name = C;
}
);
layerId = "462F72A0-0500-4E69-A49B-6C2F2580580D";
paths = (
{
closed = 1;
nodes = (
"492 820 OFFCURVE",
"498 826 OFFCURVE",
"498 835 CURVE",
"498 908 LINE",
"498 925 OFFCURVE",
"484 939 OFFCURVE",
"460 939 CURVE SMOOTH",
"350 939 LINE SMOOTH",
"343 939 OFFCURVE",
"337 937 OFFCURVE",
"332 931 CURVE SMOOTH",
"298 895 LINE SMOOTH",
"293 890 OFFCURVE",
"291 883 OFFCURVE",
"291 876 CURVE SMOOTH",
"291 771 LINE SMOOTH",
"291 762 OFFCURVE",
"297 756 OFFCURVE",
"306 756 CURVE SMOOTH",
"397 756 LINE SMOOTH",
"406 756 OFFCURVE",
"412 762 OFFCURVE",
"412 771 CURVE SMOOTH",
"412 820 LINE",
"483 820 LINE SMOOTH"
);
}
);
width = 415;
}
);
unicode = "0187,0188";
},
{
glyphname = D;
lastChange = "2023-05-20 14:37:02 +0000";
layers = (
{
anchors = (
{
name = bottom;
position = "{283, -30}";
},
{
name = center;
position = "{295, 400}";
},
{
name = top;
position = "{295, 800}";
}
);
annotations = (
{
position = "{402, 631}";
text = "Roundness of edges not alligned with /O";
type = Text;
width = 105;
}
);
associatedMasterId = "462F72A0-0500-4E69-A49B-6C2F2580580D";
layerId = "FCB09AC3-96D3-4C18-A47A-989C3C1E00D9";
name = "Jun 2 22, 02:44";
paths = (
{
closed = 1;
nodes = (
"30 15 LINE SMOOTH",
"30 7 OFFCURVE",
"37 0 OFFCURVE",
"45 0 CURVE SMOOTH",
"448 0 LINE SMOOTH",
"452 0 OFFCURVE",
"457 2 OFFCURVE",
"459 5 CURVE SMOOTH",
"572 159 LINE SMOOTH",
"573 161 OFFCURVE",
"574 164 OFFCURVE",
"574 166 CURVE SMOOTH",
"574 629 LINE SMOOTH",
"574 631 OFFCURVE",
"573 633 OFFCURVE",
"571 636 CURVE SMOOTH",
"442 795 LINE SMOOTH",
"440 798 OFFCURVE",
"436 800 OFFCURVE",
"432 800 CURVE SMOOTH",
"45 800 LINE SMOOTH",
"37 800 OFFCURVE",
"30 793 OFFCURVE",
"30 785 CURVE SMOOTH"
);
},
{
closed = 1;
nodes = (
"322 575 OFFCURVE",
"331 557 OFFCURVE",
"331 524 CURVE SMOOTH",
"331 276 LINE SMOOTH",
"331 245 OFFCURVE",
"318 228 OFFCURVE",
"301 228 CURVE SMOOTH",
"275 228 LINE",
"275 575 LINE",
"301 575 LINE SMOOTH"
);
}
);
width = 602;
},
{
anchors = (
{
name = bottom;
position = "{290, -30}";
},
{
name = center;
position = "{302, 400}";
},
{
name = top;
position = "{302, 800}";
}
);
annotations = (
{
position = "{402, 631}";
text = "Roundness of edges not alligned with /O";
type = Text;
width = 105;
}
);
associatedMasterId = "462F72A0-0500-4E69-A49B-6C2F2580580D";
guideLines = (
{
angle = 90;
position = "{306, 0}";
showMeasurement = 1;
}
);
layerId = "47B87325-F592-43BF-923A-1C9BC43172A6";
name = "Jul 29 22, 20:56";
paths = (
{
closed = 1;
nodes = (
"30 15 LINE SMOOTH",
"30 7 OFFCURVE",
"37 0 OFFCURVE",
"45 0 CURVE SMOOTH",
"460 0 LINE SMOOTH",
"464 0 OFFCURVE",
"469 2 OFFCURVE",
"471 5 CURVE SMOOTH",
"584 159 LINE SMOOTH",
"585 161 OFFCURVE",
"586 164 OFFCURVE",
"586 166 CURVE SMOOTH",
"586 629 LINE SMOOTH",
"586 631 OFFCURVE",
"585 633 OFFCURVE",
"583 636 CURVE SMOOTH",
"454 795 LINE SMOOTH",
"452 798 OFFCURVE",
"448 800 OFFCURVE",
"444 800 CURVE SMOOTH",
"45 800 LINE SMOOTH",
"37 800 OFFCURVE",
"30 793 OFFCURVE",
"30 785 CURVE SMOOTH"
);
},
{
closed = 1;
nodes = (
"286 226 OFFCURVE",
"274 238 OFFCURVE",
"274 260 CURVE SMOOTH",
"274 540 LINE SMOOTH",
"274 562 OFFCURVE",
"286 574 OFFCURVE",
"306 574 CURVE SMOOTH",
"326 574 OFFCURVE",
"338 562 OFFCURVE",
"338 540 CURVE SMOOTH",
"338 260 LINE SMOOTH",
"338 238 OFFCURVE",
"326 226 OFFCURVE",
"306 226 CURVE SMOOTH"
);
}
);
width = 612;
},
{
anchors = (
{
name = bottom;
position = "{290, -30}";
},
{
name = center;
position = "{302, 400}";
},
{
name = top;
position = "{302, 800}";
}
);
annotations = (
{
position = "{402, 631}";
text = "Roundness of edges not alligned with /O";
type = Text;
width = 105;
}
);
guideLines = (
{
angle = 90;
position = "{306, 0}";
showMeasurement = 1;
}
);
layerId = "462F72A0-0500-4E69-A49B-6C2F2580580D";
paths = (
{
closed = 1;
nodes = (
"450 0 LINE SMOOTH",
"457 0 OFFCURVE",
"464 2 OFFCURVE",
"469 8 CURVE SMOOTH",
"579 130 LINE SMOOTH",
"584 136 OFFCURVE",
"586 142 OFFCURVE",
"586 155 CURVE SMOOTH",
"586 651 LINE SMOOTH",
"586 658 OFFCURVE",
"584 664 OFFCURVE",
"579 670 CURVE SMOOTH",
"469 792 LINE SMOOTH",
"464 798 OFFCURVE",
"457 800 OFFCURVE",
"450 800 CURVE SMOOTH",
"45 800 LINE SMOOTH",
"37 800 OFFCURVE",
"30 793 OFFCURVE",
"30 785 CURVE SMOOTH",
"30 15 LINE SMOOTH",
"30 7 OFFCURVE",
"37 0 OFFCURVE",
"45 0 CURVE SMOOTH"
);
},
{
closed = 1;
nodes = (
"286 226 OFFCURVE",
"274 238 OFFCURVE",
"274 260 CURVE SMOOTH",
"274 540 LINE SMOOTH",
"274 562 OFFCURVE",
"286 574 OFFCURVE",
"306 574 CURVE SMOOTH",
"326 574 OFFCURVE",
"338 562 OFFCURVE",
"338 540 CURVE SMOOTH",
"338 260 LINE SMOOTH",
"338 238 OFFCURVE",
"326 226 OFFCURVE",
"306 226 CURVE SMOOTH"
);
}
);
width = 613;
}
);
leftMetricsKey = "=H";
rightMetricsKey = O;
unicode = 0044;
},
{
glyphname = Dhook;
lastChange = "2023-09-15 17:55:26 +0000";
layers = (
{
anchors = (
{
name = bottom;
position = "{411, -30}";
},
{
name = center;
position = "{423, 400}";
},
{
name = top;
position = "{119, 799}";
}
);
layerId = "462F72A0-0500-4E69-A49B-6C2F2580580D";
paths = (
{
closed = 1;
nodes = (
"170 15 LINE SMOOTH",
"170 7 OFFCURVE",
"177 0 OFFCURVE",
"185 0 CURVE SMOOTH",
"576 0 LINE SMOOTH",
"580 0 OFFCURVE",
"585 2 OFFCURVE",
"587 5 CURVE SMOOTH",
"700 159 LINE SMOOTH",
"701 161 OFFCURVE",
"702 164 OFFCURVE",
"702 166 CURVE SMOOTH",
"702 629 LINE SMOOTH",
"702 631 OFFCURVE",
"701 633 OFFCURVE",
"699 636 CURVE SMOOTH",
"570 795 LINE SMOOTH",
"568 798 OFFCURVE",
"564 800 OFFCURVE",
"560 800 CURVE SMOOTH",
"185 800 LINE SMOOTH",
"177 800 OFFCURVE",
"170 793 OFFCURVE",
"170 785 CURVE SMOOTH"
);
},
{
closed = 1;
nodes = (
"450 575 OFFCURVE",
"459 557 OFFCURVE",
"459 524 CURVE SMOOTH",
"459 276 LINE SMOOTH",
"459 245 OFFCURVE",
"446 228 OFFCURVE",
"429 228 CURVE SMOOTH",
"415 228 LINE",
"415 575 LINE",
"429 575 LINE SMOOTH"
);
}
);
width = 709;
}
);
unicode = "018A,0257";
},
{
glyphname = Dtopbar;
lastChange = "2023-05-18 02:22:02 +0000";
layers = (
{
layerId = "462F72A0-0500-4E69-A49B-6C2F2580580D";
paths = (
{
closed = 1;
nodes = (
"1 141 LINE SMOOTH",
"1 134 OFFCURVE",
"3 128 OFFCURVE",
"8 122 CURVE SMOOTH",
"118 8 LINE SMOOTH",
"123 2 OFFCURVE",
"130 0 OFFCURVE",
"137 0 CURVE SMOOTH",
"371 0 LINE SMOOTH",
"378 0 OFFCURVE",
"385 2 OFFCURVE",
"390 8 CURVE SMOOTH",
"500 122 LINE SMOOTH",
"505 128 OFFCURVE",
"507 134 OFFCURVE",
"507 141 CURVE SMOOTH",
"507 681 LINE",
"507 801 LINE",
"10 799 LINE",
"10 599 LINE",
"269 599 LINE",
"269 237 LINE",
"269 218 OFFCURVE",
"258 205 OFFCURVE",
"238 205 CURVE SMOOTH",
"227 205 OFFCURVE",
"218 218 OFFCURVE",
"218 237 CURVE",
"218 455 LINE",
"1 455 LINE"
);
},
{
closed = 1;
nodes = (
"361 478 LINE",
"1 478 LINE",
"1 315 LINE",
"361 315 LINE"
);
}
);
width = 508;
}
);
unicode = "018B,018C";
},
{
glyphname = E;
lastChange = "2023-09-01 21:25:39 +0000";
layers = (
{
anchors = (
{
name = bottom;
position = "{257, -21}";
},
{
name = ogonek;
position = "{455, 10}";
},
{
name = top;
position = "{257, 800}";
},
{
name = topleft;
position = "{29, 800}";
}
);
guideLines = (
{
angle = 90;
position = "{370, 0}";
showMeasurement = 1;
}
);
layerId = "462F72A0-0500-4E69-A49B-6C2F2580580D";
paths = (
{
closed = 1;
nodes = (
"458 785 LINE SMOOTH",
"458 793 OFFCURVE",
"451 800 OFFCURVE",
"443 800 CURVE SMOOTH",
"45 800 LINE SMOOTH",
"37 800 OFFCURVE",
"30 793 OFFCURVE",
"30 785 CURVE SMOOTH",
"30 15 LINE SMOOTH",
"30 7 OFFCURVE",
"37 0 OFFCURVE",
"45 0 CURVE SMOOTH",
"457 0 LINE SMOOTH",
"465 0 OFFCURVE",
"472 7 OFFCURVE",
"472 15 CURVE SMOOTH",
"472 219 LINE SMOOTH",
"472 227 OFFCURVE",
"465 234 OFFCURVE",
"457 234 CURVE SMOOTH",
"274 234 LINE",
"274 286 LINE",
"443 286 LINE SMOOTH",
"451 286 OFFCURVE",
"458 293 OFFCURVE",
"458 301 CURVE SMOOTH",
"458 489 LINE SMOOTH",
"458 497 OFFCURVE",
"451 504 OFFCURVE",
"443 504 CURVE SMOOTH",
"274 504 LINE",
"274 556 LINE",
"443 556 LINE SMOOTH",
"451 556 OFFCURVE",
"458 563 OFFCURVE",
"458 571 CURVE SMOOTH"
);
}
);
width = 478;
},
{
anchors = (
{
name = bottom;
position = "{257, -21}";
},
{
name = ogonek;
position = "{455, 10}";
},
{
name = top;
position = "{257, 800}";
},
{
name = topleft;
position = "{29, 800}";
}
);
associatedMasterId = "462F72A0-0500-4E69-A49B-6C2F2580580D";
layerId = "555E0F49-C987-4FA7-8787-B2B27C2C2F9C";
name = "Jun 2 22, 18:31";
paths = (
{
closed = 1;
nodes = (
"478 785 LINE SMOOTH",
"478 793 OFFCURVE",
"471 800 OFFCURVE",
"463 800 CURVE SMOOTH",
"45 800 LINE SMOOTH",
"37 800 OFFCURVE",
"30 793 OFFCURVE",
"30 785 CURVE SMOOTH",
"30 15 LINE SMOOTH",
"30 7 OFFCURVE",
"37 0 OFFCURVE",
"45 0 CURVE SMOOTH",
"477 1 LINE SMOOTH",
"485 1 OFFCURVE",
"492 8 OFFCURVE",
"492 16 CURVE SMOOTH",
"492 218 LINE SMOOTH",
"492 226 OFFCURVE",
"485 233 OFFCURVE",
"477 233 CURVE SMOOTH",
"277 233 LINE",
"277 279 LINE",
"463 279 LINE SMOOTH",
"471 279 OFFCURVE",
"478 286 OFFCURVE",
"478 294 CURVE SMOOTH",
"478 487 LINE SMOOTH",
"478 495 OFFCURVE",
"471 502 OFFCURVE",
"463 502 CURVE SMOOTH",
"277 502 LINE",
"277 556 LINE",
"463 556 LINE SMOOTH",
"471 556 OFFCURVE",
"478 563 OFFCURVE",
"478 571 CURVE SMOOTH"
);
}
);
width = 505;
},
{
anchors = (
{
name = bottom;
position = "{257, -21}";
},
{
name = ogonek;
position = "{455, 10}";
},
{
name = top;
position = "{257, 800}";
},
{
name = topleft;
position = "{29, 800}";
}
);
associatedMasterId = "462F72A0-0500-4E69-A49B-6C2F2580580D";
layerId = "F86F8B87-007E-489F-894F-041A372F0069";
name = "Jul 30 22, 02:22";
paths = (
{
closed = 1;
nodes = (
"478 785 LINE SMOOTH",
"478 793 OFFCURVE",
"471 800 OFFCURVE",
"463 800 CURVE SMOOTH",
"45 800 LINE SMOOTH",
"37 800 OFFCURVE",
"30 793 OFFCURVE",
"30 785 CURVE SMOOTH",
"30 15 LINE SMOOTH",
"30 7 OFFCURVE",
"37 0 OFFCURVE",
"45 0 CURVE SMOOTH",
"477 1 LINE SMOOTH",
"485 1 OFFCURVE",
"492 8 OFFCURVE",
"492 16 CURVE SMOOTH",
"492 218 LINE SMOOTH",
"492 226 OFFCURVE",
"485 233 OFFCURVE",
"477 233 CURVE SMOOTH",
"277 233 LINE",
"277 279 LINE",
"463 279 LINE SMOOTH",
"471 279 OFFCURVE",
"478 286 OFFCURVE",
"478 294 CURVE SMOOTH",
"478 487 LINE SMOOTH",
"478 495 OFFCURVE",
"471 502 OFFCURVE",
"463 502 CURVE SMOOTH",
"277 502 LINE",
"277 556 LINE",
"463 556 LINE SMOOTH",
"471 556 OFFCURVE",
"478 563 OFFCURVE",
"478 571 CURVE SMOOTH"
);
}
);
width = 508;
}
);
leftMetricsKey = "=H";
unicode = 0045;
},
{
glyphname = Eopen;
lastChange = "2023-05-18 02:22:02 +0000";
layers = (
{
layerId = "462F72A0-0500-4E69-A49B-6C2F2580580D";
paths = (
{
closed = 1;
nodes = (
"0 133 OFFCURVE",
"4 129 OFFCURVE",
"9 123 CURVE SMOOTH",
"100 6 LINE SMOOTH",
"105 0 OFFCURVE",
"111 0 OFFCURVE",
"118 0 CURVE SMOOTH",
"334 0 LINE SMOOTH",
"343 0 OFFCURVE",
"349 6 OFFCURVE",
"349 15 CURVE SMOOTH",
"349 152 LINE SMOOTH",
"349 160 OFFCURVE",
"345 164 OFFCURVE",
"340 170 CURVE SMOOTH",
"231 292 LINE",
"231 309 LINE",
"308 368 LINE SMOOTH",
"315 373 OFFCURVE",
"319 376 OFFCURVE",
"319 385 CURVE SMOOTH",
"319 407 LINE SMOOTH",
"319 416 OFFCURVE",
"315 420 OFFCURVE",
"308 424 CURVE SMOOTH",
"233 473 LINE",
"233 490 LINE",
"340 614 LINE SMOOTH",
"345 620 OFFCURVE",
"349 624 OFFCURVE",
"349 632 CURVE SMOOTH",
"349 785 LINE SMOOTH",
"349 794 OFFCURVE",
"343 800 OFFCURVE",
"334 800 CURVE SMOOTH",
"136 800 LINE SMOOTH",
"129 800 OFFCURVE",
"123 800 OFFCURVE",
"118 794 CURVE SMOOTH",
"9 681 LINE SMOOTH",
"4 675 OFFCURVE",
"0 671 OFFCURVE",
"0 663 CURVE SMOOTH",
"0 459 LINE SMOOTH",
"0 451 OFFCURVE",
"3 445 OFFCURVE",
"10 441 CURVE SMOOTH",
"82 399 LINE",
"82 386 LINE",
"9 333 LINE SMOOTH",
"3 328 OFFCURVE",
"0 323 OFFCURVE",
"0 315 CURVE SMOOTH",
"0 141 LINE SMOOTH"
);
}
);
width = 350;
}
);
unicode = "0190,025B";
},
{
glyphname = Esh;
lastChange = "2023-05-18 02:22:02 +0000";
layers = (
{
layerId = "462F72A0-0500-4E69-A49B-6C2F2580580D";
paths = (
{
closed = 1;
nodes = (
"288 5 LINE SMOOTH",
"297 5 OFFCURVE",
"303 11 OFFCURVE",
"303 20 CURVE SMOOTH",
"303 187 LINE SMOOTH",
"303 196 OFFCURVE",
"297 202 OFFCURVE",
"288 202 CURVE SMOOTH",
"225 202 LINE",
"225 212 LINE",
"281 386 LINE",
"281 408 LINE",
"225 593 LINE",
"225 603 LINE",
"288 603 LINE SMOOTH",
"297 603 OFFCURVE",
"303 609 OFFCURVE",
"303 618 CURVE SMOOTH",
"303 785 LINE SMOOTH",
"303 794 OFFCURVE",
"297 800 OFFCURVE",
"288 800 CURVE SMOOTH",
"11 800 LINE SMOOTH",
"2 800 OFFCURVE",
"-4 794 OFFCURVE",
"-4 785 CURVE SMOOTH",
"-4 613 LINE",
"63 404 LINE",
"63 382 LINE",
"-4 192 LINE",
"-4 20 LINE SMOOTH",
"-4 11 OFFCURVE",
"2 5 OFFCURVE",
"11 5 CURVE SMOOTH"
);
}
);
width = 308;
}
);
unicode = "01A9,0283";
},
{
glyphname = Schwa;
lastChange = "2023-05-18 02:22:02 +0000";
layers = (
{
anchors = (
{
name = bottom;
position = "{290, -30}";
},
{
name = center;
position = "{290, 400}";
},
{
name = ogonek;
position = "{521, 10}";
},
{
name = top;
position = "{290, 800}";
},
{
name = topleft;
position = "{21, 800}";
},
{
name = topright;
position = "{536, 790}";
}
);
layerId = "462F72A0-0500-4E69-A49B-6C2F2580580D";
paths = (
{
closed = 1;
nodes = (
"22 141 LINE SMOOTH",
"22 134 OFFCURVE",
"24 128 OFFCURVE",
"29 122 CURVE SMOOTH",
"139 8 LINE SMOOTH",
"144 2 OFFCURVE",
"151 0 OFFCURVE",
"158 0 CURVE SMOOTH",
"402 0 LINE SMOOTH",
"409 0 OFFCURVE",
"416 2 OFFCURVE",
"421 8 CURVE SMOOTH",
"531 122 LINE SMOOTH",
"536 128 OFFCURVE",
"538 134 OFFCURVE",
"538 141 CURVE SMOOTH",
"538 610 LINE SMOOTH",
"538 617 OFFCURVE",
"536 623 OFFCURVE",
"530 628 CURVE SMOOTH",
"421 723 LINE SMOOTH",
"416 728 OFFCURVE",
"409 730 OFFCURVE",
"402 730 CURVE SMOOTH",
"158 730 LINE",
"31 728 LINE",
"31 502 LINE",
"269 502 LINE SMOOTH",
"289 502 OFFCURVE",
"300 490 OFFCURVE",
"300 478 CURVE",
"300 257 LINE",
"300 238 OFFCURVE",
"289 225 OFFCURVE",
"269 225 CURVE SMOOTH",
"248 225 OFFCURVE",
"239 238 OFFCURVE",
"239 257 CURVE",
"239 445 LINE",
"22 445 LINE"
);
},
{
closed = 1;
nodes = (
"392 468 LINE",
"22 468 LINE",
"22 305 LINE",
"392 305 LINE"
);
}
);
width = 560;
}
);
leftMetricsKey = "=O-5";
rightMetricsKey = "=O-5";
unicode = "018F,0259";
},
{
glyphname = Ezh;
lastChange = "2023-05-18 02:22:02 +0000";
layers = (
{
layerId = "462F72A0-0500-4E69-A49B-6C2F2580580D";
paths = (
{
closed = 1;
nodes = (
"189 0 LINE SMOOTH",
"196 0 OFFCURVE",
"202 0 OFFCURVE",
"207 6 CURVE SMOOTH",
"293 123 LINE SMOOTH",
"300 132 OFFCURVE",
"302 137 OFFCURVE",
"302 152 CURVE SMOOTH",
"302 356 LINE SMOOTH",
"302 364 OFFCURVE",
"298 368 OFFCURVE",
"293 374 CURVE SMOOTH",
"225 459 LINE",
"225 473 LINE",
"293 613 LINE",
"293 785 LINE SMOOTH",
"293 794 OFFCURVE",
"287 800 OFFCURVE",
"278 800 CURVE SMOOTH",
"13 800 LINE SMOOTH",
"4 800 OFFCURVE",
"-2 794 OFFCURVE",
"-2 785 CURVE SMOOTH",
"-2 618 LINE SMOOTH",
"-2 609 OFFCURVE",
"4 603 OFFCURVE",
"13 603 CURVE SMOOTH",
"74 603 LINE",
"74 593 LINE",
"12 428 LINE SMOOTH",
"9 420 OFFCURVE",
"11 408 OFFCURVE",
"16 402 CURVE SMOOTH",
"106 294 LINE",
"106 282 LINE",
"8 150 LINE SMOOTH",
"3 144 OFFCURVE",
"-1 140 OFFCURVE",
"-1 132 CURVE SMOOTH",
"-1 15 LINE SMOOTH",
"-1 6 OFFCURVE",
"5 0 OFFCURVE",
"14 0 CURVE SMOOTH"
);
}
);
width = 297;
}
);
unicode = "01B7,0292";
},
{
glyphname = F;
lastChange = "2023-05-20 14:37:02 +0000";
layers = (
{
layerId = "462F72A0-0500-4E69-A49B-6C2F2580580D";
paths = (
{
closed = 1;
nodes = (
"482 785 LINE SMOOTH",
"482 793 OFFCURVE",
"475 800 OFFCURVE",
"467 800 CURVE SMOOTH",
"45 800 LINE SMOOTH",
"37 800 OFFCURVE",
"30 793 OFFCURVE",
"30 785 CURVE SMOOTH",
"30 15 LINE SMOOTH",
"30 7 OFFCURVE",
"37 0 OFFCURVE",
"45 0 CURVE SMOOTH",
"262 0 LINE SMOOTH",
"270 0 OFFCURVE",
"277 7 OFFCURVE",
"277 15 CURVE SMOOTH",
"277 247 LINE SMOOTH",
"277 255 OFFCURVE",
"284 262 OFFCURVE",
"292 262 CURVE SMOOTH",
"456 262 LINE SMOOTH",
"464 262 OFFCURVE",
"471 269 OFFCURVE",
"471 277 CURVE SMOOTH",
"471 487 LINE SMOOTH",
"471 495 OFFCURVE",
"464 502 OFFCURVE",
"456 502 CURVE SMOOTH",
"277 502 LINE",
"277 556 LINE",
"467 556 LINE SMOOTH",
"475 556 OFFCURVE",
"482 563 OFFCURVE",
"482 571 CURVE SMOOTH"
);
}
);
width = 498;
}
);
leftMetricsKey = "=H";
unicode = 0046;
},
{
glyphname = G;
lastChange = "2023-05-20 14:37:02 +0000";
layers = (
{
anchors = (
{
name = bottom;
position = "{306, -30}";
},
{
name = top;
position = "{306, 800}";
}
);
layerId = "462F72A0-0500-4E69-A49B-6C2F2580580D";
paths = (
{
closed = 1;
nodes = (
"28 143 OFFCURVE",
"31 138 OFFCURVE",
"36 132 CURVE SMOOTH",
"145 7 LINE SMOOTH",
"150 2 OFFCURVE",
"157 0 OFFCURVE",
"164 0 CURVE SMOOTH",
"457 -1 LINE SMOOTH",
"464 -1 OFFCURVE",
"470 0 OFFCURVE",
"476 6 CURVE SMOOTH",
"578 103 LINE SMOOTH",
"584 109 OFFCURVE",
"586 114 OFFCURVE",
"586 121 CURVE SMOOTH",
"588 491 LINE SMOOTH",
"588 500 OFFCURVE",
"582 506 OFFCURVE",
"573 506 CURVE SMOOTH",
"321 507 LINE SMOOTH",
"313 507 OFFCURVE",
"306 500 OFFCURVE",
"306 492 CURVE SMOOTH",
"306 336 LINE SMOOTH",
"306 327 OFFCURVE",
"312 321 OFFCURVE",
"321 321 CURVE SMOOTH",
"341 320 LINE",
"341 227 LINE",
"286 228 LINE SMOOTH",
"275 228 OFFCURVE",
"266 237 OFFCURVE",
"266 248 CURVE SMOOTH",
"266 530 LINE SMOOTH",
"266 541 OFFCURVE",
"275 550 OFFCURVE",
"286 550 CURVE SMOOTH",
"553 549 LINE SMOOTH",
"561 549 OFFCURVE",
"568 556 OFFCURVE",
"568 564 CURVE SMOOTH",
"568 784 LINE SMOOTH",
"568 792 OFFCURVE",
"561 799 OFFCURVE",
"553 799 CURVE SMOOTH",
"184 800 LINE SMOOTH",
"177 800 OFFCURVE",
"170 798 OFFCURVE",
"165 792 CURVE SMOOTH",
"35 660 LINE SMOOTH",
"30 654 OFFCURVE",
"28 648 OFFCURVE",
"28 641 CURVE SMOOTH",
"28 150 LINE SMOOTH"
);
}
);
width = 612;
}
);
unicode = 0047;
},
{
glyphname = Ghook;
lastChange = "2023-05-18 02:22:02 +0000";
layers = (
{
anchors = (
{
name = bottom;
position = "{289, -30}";
},
{
name = top;
position = "{289, 800}";
}
);
components = (
{
name = hookabovecomb;
transform = "{-1.3182, 0, 0, 1.3182, 664, -388}";
}
);
layerId = "462F72A0-0500-4E69-A49B-6C2F2580580D";
paths = (
{
closed = 1;
nodes = (
"11 143 OFFCURVE",
"14 138 OFFCURVE",
"19 132 CURVE SMOOTH",
"128 7 LINE SMOOTH",
"133 2 OFFCURVE",
"140 0 OFFCURVE",
"147 0 CURVE SMOOTH",
"440 -1 LINE SMOOTH",
"447 -1 OFFCURVE",
"453 0 OFFCURVE",
"459 6 CURVE SMOOTH",
"561 103 LINE SMOOTH",
"567 109 OFFCURVE",
"569 114 OFFCURVE",
"569 121 CURVE SMOOTH",
"571 491 LINE SMOOTH",
"571 500 OFFCURVE",
"565 506 OFFCURVE",
"556 506 CURVE SMOOTH",
"304 507 LINE SMOOTH",
"296 507 OFFCURVE",
"289 500 OFFCURVE",
"289 492 CURVE SMOOTH",
"289 336 LINE SMOOTH",
"289 327 OFFCURVE",
"295 321 OFFCURVE",
"304 321 CURVE SMOOTH",
"324 320 LINE",
"324 227 LINE",
"269 228 LINE SMOOTH",
"258 228 OFFCURVE",
"249 237 OFFCURVE",
"249 248 CURVE SMOOTH",
"249 530 LINE SMOOTH",
"249 541 OFFCURVE",
"258 550 OFFCURVE",
"269 550 CURVE SMOOTH",
"536 549 LINE SMOOTH",
"544 549 OFFCURVE",
"551 556 OFFCURVE",
"551 564 CURVE SMOOTH",
"551 784 LINE SMOOTH",
"551 792 OFFCURVE",
"544 799 OFFCURVE",
"536 799 CURVE SMOOTH",
"167 800 LINE SMOOTH",
"160 800 OFFCURVE",
"153 798 OFFCURVE",
"148 792 CURVE SMOOTH",
"18 660 LINE SMOOTH",
"13 654 OFFCURVE",
"11 648 OFFCURVE",
"11 641 CURVE SMOOTH",
"11 150 LINE SMOOTH"
);
}
);
width = 577;
}
);
unicode = "0193,0260";
},
{
glyphname = Gstroke;
lastChange = "2023-09-15 18:00:44 +0000";
layers = (
{
anchors = (
{
name = bottom;
position = "{289, -30}";
},
{
name = top;
position = "{289, 800}";
}
);
layerId = "462F72A0-0500-4E69-A49B-6C2F2580580D";
paths = (
{
closed = 1;
nodes = (
"11 143 OFFCURVE",
"14 138 OFFCURVE",
"19 132 CURVE SMOOTH",
"128 7 LINE SMOOTH",
"133 2 OFFCURVE",
"140 0 OFFCURVE",
"147 0 CURVE SMOOTH",
"430 -1 LINE SMOOTH",
"437 -1 OFFCURVE",
"443 0 OFFCURVE",
"449 6 CURVE SMOOTH",
"551 103 LINE SMOOTH",
"557 109 OFFCURVE",
"559 114 OFFCURVE",
"559 121 CURVE SMOOTH",
"561 501 LINE SMOOTH",
"561 510 OFFCURVE",
"555 516 OFFCURVE",
"546 516 CURVE SMOOTH",
"329 516 LINE SMOOTH",
"320 516 OFFCURVE",
"314 510 OFFCURVE",
"314 501 CURVE SMOOTH",
"314 227 LINE",
"269 228 LINE SMOOTH",
"258 228 OFFCURVE",
"249 237 OFFCURVE",
"249 248 CURVE SMOOTH",
"249 540 LINE SMOOTH",
"249 551 OFFCURVE",
"248 560 OFFCURVE",
"259 560 CURVE SMOOTH",
"536 559 LINE SMOOTH",
"544 559 OFFCURVE",
"551 566 OFFCURVE",
"551 574 CURVE SMOOTH",
"551 784 LINE SMOOTH",
"551 792 OFFCURVE",
"544 799 OFFCURVE",
"536 799 CURVE SMOOTH",
"167 800 LINE SMOOTH",
"160 800 OFFCURVE",
"153 798 OFFCURVE",
"148 792 CURVE SMOOTH",
"18 660 LINE SMOOTH",
"13 654 OFFCURVE",
"11 648 OFFCURVE",
"11 641 CURVE SMOOTH",
"11 150 LINE SMOOTH"
);
},
{
closed = 1;
nodes = (
"273 301 LINE SMOOTH",
"273 292 OFFCURVE",
"279 286 OFFCURVE",
"288 286 CURVE SMOOTH",
"575 286 LINE SMOOTH",
"584 286 OFFCURVE",
"590 292 OFFCURVE",
"590 301 CURVE SMOOTH",
"590 414 LINE SMOOTH",
"590 423 OFFCURVE",
"584 429 OFFCURVE",
"575 429 CURVE SMOOTH",
"288 429 LINE SMOOTH",
"279 429 OFFCURVE",
"273 423 OFFCURVE",
"273 414 CURVE SMOOTH"
);
}
);
width = 577;
}
);
unicode = "01E4,01E5";
},
{
glyphname = Yogh;
lastChange = "2023-05-18 02:22:02 +0000";
layers = (
{
layerId = "462F72A0-0500-4E69-A49B-6C2F2580580D";
paths = (
{
closed = 1;
nodes = (
"5 432 LINE SMOOTH",
"-1 425 OFFCURVE",
"-1 418 OFFCURVE",
"4 411 CURVE SMOOTH",
"99 284 LINE",
"99 272 LINE",
"1 150 LINE SMOOTH",
"-4 144 OFFCURVE",
"-8 140 OFFCURVE",
"-8 132 CURVE SMOOTH",
"-8 15 LINE SMOOTH",
"-8 6 OFFCURVE",
"-2 0 OFFCURVE",
"7 0 CURVE SMOOTH",
"182 0 LINE SMOOTH",
"189 0 OFFCURVE",
"195 0 OFFCURVE",
"200 6 CURVE SMOOTH",
"286 123 LINE SMOOTH",
"293 132 OFFCURVE",
"295 137 OFFCURVE",
"295 152 CURVE SMOOTH",
"295 336 LINE SMOOTH",
"295 344 OFFCURVE",
"290 348 OFFCURVE",
"286 354 CURVE SMOOTH",
"228 439 LINE",
"228 453 LINE",
"275 504 LINE",
"275 669 LINE SMOOTH",
"275 676 OFFCURVE",
"272 681 OFFCURVE",
"267 687 CURVE SMOOTH",
"163 793 LINE SMOOTH",
"158 798 OFFCURVE",
"151 800 OFFCURVE",
"144 800 CURVE SMOOTH",
"11 800 LINE SMOOTH",
"3 800 OFFCURVE",
"-4 793 OFFCURVE",
"-4 785 CURVE SMOOTH",
"-4 581 LINE SMOOTH",
"-4 573 OFFCURVE",
"3 566 OFFCURVE",
"11 566 CURVE SMOOTH",
"102 562 LINE",
"102 547 LINE"
);
}
);
width = 283;
}
);
unicode = "021C,021D";
},
{
glyphname = H;
lastChange = "2023-05-20 14:37:02 +0000";
layers = (
{
anchors = (
{
name = bottom;
position = "{304, -30}";
},
{
name = center;
position = "{304, 400}";
},
{
name = top;
position = "{304, 800}";
},
{
name = topleft;
position = "{28, 800}";
}
);
layerId = "462F72A0-0500-4E69-A49B-6C2F2580580D";
paths = (
{
closed = 1;
nodes = (
"334 528 LINE",
"274 528 LINE",
"274 785 LINE SMOOTH",
"274 794 OFFCURVE",
"268 800 OFFCURVE",
"259 800 CURVE SMOOTH",
"45 800 LINE SMOOTH",
"36 800 OFFCURVE",
"30 794 OFFCURVE",
"30 785 CURVE SMOOTH",
"30 15 LINE SMOOTH",
"30 6 OFFCURVE",
"36 0 OFFCURVE",
"45 0 CURVE SMOOTH",
"259 0 LINE SMOOTH",
"268 0 OFFCURVE",
"274 6 OFFCURVE",
"274 15 CURVE SMOOTH",
"274 272 LINE",
"334 272 LINE",
"334 15 LINE SMOOTH",
"334 6 OFFCURVE",
"340 0 OFFCURVE",
"349 0 CURVE SMOOTH",
"563 0 LINE SMOOTH",
"572 0 OFFCURVE",
"578 6 OFFCURVE",
"578 15 CURVE SMOOTH",
"578 785 LINE SMOOTH",
"578 794 OFFCURVE",
"572 800 OFFCURVE",
"563 800 CURVE SMOOTH",
"349 800 LINE SMOOTH",
"340 800 OFFCURVE",
"334 794 OFFCURVE",
"334 785 CURVE SMOOTH"
);
}
);
width = 608;
}
);
unicode = 0048;
},
{
glyphname = Hbar;
lastChange = "2023-09-15 17:55:26 +0000";
layers = (
{
anchors = (
{
name = bottom;
position = "{305, -30}";
},
{
name = center;
position = "{305, 400}";
},
{
name = top;
position = "{305, 800}";
},
{
name = topleft;
position = "{29, 800}";
}
);
layerId = "462F72A0-0500-4E69-A49B-6C2F2580580D";
paths = (
{
closed = 1;
nodes = (
"335 498 LINE",
"274 498 LINE",
"274 785 LINE SMOOTH",
"274 794 OFFCURVE",
"268 800 OFFCURVE",
"259 800 CURVE SMOOTH",
"45 800 LINE SMOOTH",
"36 800 OFFCURVE",
"30 794 OFFCURVE",
"30 785 CURVE SMOOTH",
"30 15 LINE SMOOTH",
"30 6 OFFCURVE",
"36 0 OFFCURVE",
"45 0 CURVE SMOOTH",
"259 0 LINE SMOOTH",
"268 0 OFFCURVE",
"274 6 OFFCURVE",
"274 15 CURVE SMOOTH",
"274 242 LINE",
"335 242 LINE",
"335 15 LINE SMOOTH",
"335 6 OFFCURVE",
"341 0 OFFCURVE",
"350 0 CURVE SMOOTH",
"564 0 LINE SMOOTH",
"573 0 OFFCURVE",
"579 6 OFFCURVE",
"579 15 CURVE SMOOTH",
"579 785 LINE SMOOTH",
"579 794 OFFCURVE",
"573 800 OFFCURVE",
"564 800 CURVE SMOOTH",
"350 800 LINE SMOOTH",
"341 800 OFFCURVE",
"335 794 OFFCURVE",
"335 785 CURVE SMOOTH"
);
}
);
width = 613;
}
);
leftMetricsKey = "=H-25";
rightMetricsKey = "=H-25";
unicode = "0126,0127";
},
{
glyphname = I;
lastChange = "2023-05-20 14:37:02 +0000";
layers = (
{
anchors = (
{
name = bottom;
position = "{158, -30}";
},
{
name = ogonek;
position = "{242, 10}";
},
{
name = top;
position = "{158, 800}";
},
{
name = topleft;
position = "{29, 800}";
}
);
layerId = "462F72A0-0500-4E69-A49B-6C2F2580580D";
paths = (
{
closed = 1;
nodes = (
"285 785 LINE",
"285 794 OFFCURVE",
"279 800 OFFCURVE",
"270 800 CURVE SMOOTH",
"45 800 LINE SMOOTH",
"36 800 OFFCURVE",
"30 794 OFFCURVE",
"30 785 CURVE SMOOTH",
"30 15 LINE SMOOTH",
"30 6 OFFCURVE",
"36 0 OFFCURVE",
"45 0 CURVE SMOOTH",
"270 0 LINE SMOOTH",
"279 0 OFFCURVE",
"285 6 OFFCURVE",
"285 15 CURVE"
);
}
);
width = 315;
}
);
leftMetricsKey = "=H";
rightMetricsKey = "=H";
unicode = 0049;
},
{
glyphname = IJ;
lastChange = "2023-05-18 02:22:02 +0000";
layers = (
{
components = (
{
name = I;
}
);
layerId = "462F72A0-0500-4E69-A49B-6C2F2580580D";
paths = (
{
closed = 1;
nodes = (
"414 -100 LINE SMOOTH",
"421 -100 OFFCURVE",
"427 -97 OFFCURVE",
"432 -91 CURVE SMOOTH",
"574 74 LINE SMOOTH",
"579 80 OFFCURVE",
"581 86 OFFCURVE",
"581 93 CURVE SMOOTH",
"581 785 LINE SMOOTH",
"581 794 OFFCURVE",
"575 800 OFFCURVE",
"566 800 CURVE SMOOTH",
"349 800 LINE SMOOTH",
"340 800 OFFCURVE",
"334 794 OFFCURVE",
"334 785 CURVE SMOOTH",
"334 223 LINE SMOOTH",
"334 216 OFFCURVE",
"332 209 OFFCURVE",
"327 204 CURVE SMOOTH",
"304 177 LINE SMOOTH",
"299 172 OFFCURVE",
"297 165 OFFCURVE",
"297 158 CURVE SMOOTH",
"297 -85 LINE SMOOTH",
"297 -94 OFFCURVE",
"303 -100 OFFCURVE",
"312 -100 CURVE SMOOTH"
);
}
);
width = 610;
}
);
leftMetricsKey = "=I";
rightMetricsKey = "=J";
unicode = "0132,0133";
},
{
glyphname = J;
lastChange = "2023-05-20 14:37:02 +0000";
layers = (
{
anchors = (
{
name = bottom;
position = "{183, 0}";
},
{
name = top;
position = "{213, 800}";
}
);
layerId = "462F72A0-0500-4E69-A49B-6C2F2580580D";
paths = (
{
closed = 1;
nodes = (
"214 -100 OFFCURVE",
"221 -97 OFFCURVE",
"225 -91 CURVE SMOOTH",
"347 74 LINE SMOOTH",
"351 80 OFFCURVE",
"354 86 OFFCURVE",
"354 93 CURVE SMOOTH",
"354 785 LINE SMOOTH",
"354 794 OFFCURVE",
"348 800 OFFCURVE",
"339 800 CURVE SMOOTH",
"121 800 LINE SMOOTH",
"112 800 OFFCURVE",
"106 794 OFFCURVE",
"106 785 CURVE SMOOTH",
"106 223 LINE SMOOTH",
"106 216 OFFCURVE",
"104 209 OFFCURVE",
"99 204 CURVE SMOOTH",
"10 101 LINE SMOOTH",
"5 96 OFFCURVE",
"4 90 OFFCURVE",
"4 83 CURVE SMOOTH",
"4 -85 LINE SMOOTH",
"4 -94 OFFCURVE",
"10 -100 OFFCURVE",
"19 -100 CURVE SMOOTH",
"207 -100 LINE SMOOTH"
);
}
);
width = 383;
},
{
anchors = (
{
name = bottom;
position = "{183, 0}";
},
{
name = top;
position = "{213, 800}";
}
);
associatedMasterId = "462F72A0-0500-4E69-A49B-6C2F2580580D";
layerId = "47F618A2-891F-4592-BB47-A5BEE17FF12A";
name = "Jun 4 22, 20:44";
paths = (
{
closed = 1;
nodes = (
"193 -100 OFFCURVE",
"199 -97 OFFCURVE",
"204 -91 CURVE SMOOTH",
"347 74 LINE SMOOTH",
"352 80 OFFCURVE",
"354 86 OFFCURVE",
"354 93 CURVE SMOOTH",
"354 785 LINE SMOOTH",
"354 794 OFFCURVE",
"348 800 OFFCURVE",
"339 800 CURVE SMOOTH",
"121 800 LINE SMOOTH",
"112 800 OFFCURVE",
"106 794 OFFCURVE",
"106 785 CURVE SMOOTH",
"106 223 LINE SMOOTH",
"106 216 OFFCURVE",
"104 209 OFFCURVE",
"99 204 CURVE SMOOTH",
"10 101 LINE SMOOTH",
"5 96 OFFCURVE",
"4 90 OFFCURVE",
"4 83 CURVE SMOOTH",
"4 -85 LINE SMOOTH",
"4 -94 OFFCURVE",
"10 -100 OFFCURVE",
"19 -100 CURVE SMOOTH",
"186 -100 LINE SMOOTH"
);
}
);
width = 383;
}
);
unicode = 004A;
},
{
glyphname = K;
lastChange = "2023-05-20 14:37:02 +0000";
layers = (
{
anchors = (
{
name = bottom;
position = "{299, -30}";
},
{
name = top;
position = "{299, 800}";
}
);
associatedMasterId = "462F72A0-0500-4E69-A49B-6C2F2580580D";
layerId = "D19A533A-5E04-46DA-96EE-466E7F3ECFA9";
name = Original;
paths = (
{
closed = 1;
nodes = (
"30 6 OFFCURVE",
"36 0 OFFCURVE",
"45 0 CURVE SMOOTH",
"259 0 LINE SMOOTH",
"268 0 OFFCURVE",
"274 6 OFFCURVE",
"274 15 CURVE SMOOTH",
"274 225 LINE",
"281 225 LINE",
"350 9 LINE SMOOTH",
"352 2 OFFCURVE",
"361 0 OFFCURVE",
"368 0 CURVE SMOOTH",
"571 0 LINE SMOOTH",
"580 0 OFFCURVE",
"586 6 OFFCURVE",
"586 15 CURVE SMOOTH",
"586 221 LINE SMOOTH",
"586 228 OFFCURVE",
"584 233 OFFCURVE",
"580 239 CURVE SMOOTH",
"464 420 LINE",
"464 443 LINE",
"569 601 LINE SMOOTH",
"573 608 OFFCURVE",
"576 613 OFFCURVE",
"576 620 CURVE SMOOTH",
"576 785 LINE SMOOTH",
"576 794 OFFCURVE",
"570 800 OFFCURVE",
"561 800 CURVE SMOOTH",
"358 800 LINE SMOOTH",
"351 800 OFFCURVE",
"341 799 OFFCURVE",
"339 792 CURVE SMOOTH",
"281 550 LINE",
"274 550 LINE",
"274 785 LINE SMOOTH",
"274 794 OFFCURVE",
"268 800 OFFCURVE",
"259 800 CURVE SMOOTH",
"45 800 LINE SMOOTH",
"36 800 OFFCURVE",
"30 794 OFFCURVE",
"30 785 CURVE SMOOTH",
"30 15 LINE SMOOTH"
);
}
);
width = 598;
},
{
anchors = (
{
name = bottom;
position = "{299, -30}";
},
{
name = top;
position = "{299, 800}";
}
);
layerId = "462F72A0-0500-4E69-A49B-6C2F2580580D";
paths = (
{
closed = 1;
nodes = (
"474 387 LINE",
"474 423 LINE",
"571 601 LINE SMOOTH",
"575 608 OFFCURVE",
"578 613 OFFCURVE",
"578 620 CURVE SMOOTH",
"578 785 LINE SMOOTH",
"578 794 OFFCURVE",
"572 800 OFFCURVE",
"563 800 CURVE SMOOTH",
"360 800 LINE SMOOTH",
"353 800 OFFCURVE",
"343 799 OFFCURVE",
"341 792 CURVE SMOOTH",
"280 550 LINE",
"274 550 LINE",
"274 785 LINE SMOOTH",
"274 794 OFFCURVE",
"268 800 OFFCURVE",
"259 800 CURVE SMOOTH",
"45 800 LINE SMOOTH",
"36 800 OFFCURVE",
"30 794 OFFCURVE",
"30 785 CURVE SMOOTH",
"30 15 LINE SMOOTH",
"30 6 OFFCURVE",
"36 0 OFFCURVE",
"45 0 CURVE SMOOTH",
"259 0 LINE SMOOTH",
"268 0 OFFCURVE",
"274 6 OFFCURVE",
"274 15 CURVE SMOOTH",
"274 225 LINE",
"280 225 LINE",
"349 9 LINE SMOOTH",
"351 2 OFFCURVE",
"360 0 OFFCURVE",
"367 0 CURVE SMOOTH",
"576 0 LINE SMOOTH",
"585 0 OFFCURVE",
"591 7 OFFCURVE",
"591 15 CURVE SMOOTH",
"591 163 LINE SMOOTH",
"591 173 OFFCURVE",
"590 179 OFFCURVE",
"586 186 CURVE SMOOTH"
);
}
);
width = 595;
},
{
anchors = (
{
name = bottom;
position = "{299, -30}";
},
{
name = top;
position = "{299, 800}";
}
);
associatedMasterId = "462F72A0-0500-4E69-A49B-6C2F2580580D";
layerId = "5095C087-B7CF-44BA-A313-E33877BA9304";
name = "Jun 3 22, 20:29";
paths = (
{
closed = 1;
nodes = (
"30 6 OFFCURVE",
"36 0 OFFCURVE",
"45 0 CURVE SMOOTH",
"259 0 LINE SMOOTH",
"268 0 OFFCURVE",
"274 6 OFFCURVE",
"274 15 CURVE SMOOTH",
"274 225 LINE",
"281 225 LINE",
"370 9 LINE SMOOTH",
"373 2 OFFCURVE",
"381 0 OFFCURVE",
"388 0 CURVE SMOOTH",
"571 0 LINE SMOOTH",
"580 0 OFFCURVE",
"586 6 OFFCURVE",
"586 15 CURVE SMOOTH",
"586 183 LINE SMOOTH",
"586 192 OFFCURVE",
"585 196 OFFCURVE",
"581 203 CURVE SMOOTH",
"464 420 LINE",
"464 443 LINE",
"569 601 LINE SMOOTH",
"574 608 OFFCURVE",
"576 613 OFFCURVE",
"576 620 CURVE SMOOTH",
"576 785 LINE SMOOTH",
"576 794 OFFCURVE",
"570 800 OFFCURVE",
"561 800 CURVE SMOOTH",
"358 800 LINE SMOOTH",
"351 800 OFFCURVE",
"341 799 OFFCURVE",
"339 792 CURVE SMOOTH",
"281 550 LINE",
"274 550 LINE",
"274 785 LINE SMOOTH",
"274 794 OFFCURVE",
"268 800 OFFCURVE",
"259 800 CURVE SMOOTH",
"45 800 LINE SMOOTH",
"36 800 OFFCURVE",
"30 794 OFFCURVE",
"30 785 CURVE SMOOTH",
"30 15 LINE SMOOTH"
);
}
);
width = 598;
},
{
anchors = (
{
name = bottom;
position = "{299, -30}";
},
{
name = top;
position = "{299, 800}";
}
);
associatedMasterId = "462F72A0-0500-4E69-A49B-6C2F2580580D";
layerId = "431D0C69-9DB6-4A23-85F9-39F294B7CCF8";
name = "Jun 4 22, 20:04";
paths = (
{
closed = 1;
nodes = (
"259 0 LINE SMOOTH",
"268 0 OFFCURVE",
"274 6 OFFCURVE",
"274 15 CURVE SMOOTH",
"274 233 LINE",
"288 233 LINE",
"346 12 LINE SMOOTH",
"348 4 OFFCURVE",
"356 0 OFFCURVE",
"364 0 CURVE SMOOTH",
"574 0 LINE SMOOTH",
"583 0 OFFCURVE",
"589 7 OFFCURVE",
"589 15 CURVE SMOOTH",
"589 163 LINE SMOOTH",
"589 173 OFFCURVE",
"588 179 OFFCURVE",
"584 186 CURVE SMOOTH",
"485 362 LINE",
"485 384 LINE",
"568 463 LINE SMOOTH",
"575 469 OFFCURVE",
"578 473 OFFCURVE",
"578 481 CURVE SMOOTH",
"578 644 LINE SMOOTH",
"578 657 OFFCURVE",
"577 660 OFFCURVE",
"568 668 CURVE SMOOTH",
"430 792 LINE SMOOTH",
"423 798 OFFCURVE",
"417 800 OFFCURVE",
"406 800 CURVE SMOOTH",
"45 800 LINE SMOOTH",
"36 800 OFFCURVE",
"30 794 OFFCURVE",
"30 785 CURVE SMOOTH",
"30 15 LINE SMOOTH",
"30 6 OFFCURVE",
"36 0 OFFCURVE",
"45 0 CURVE SMOOTH"
);
}
);
visible = 1;
width = 598;
},
{
anchors = (
{
name = bottom;
position = "{299, -30}";
},
{
name = top;
position = "{299, 800}";
}
);
associatedMasterId = "462F72A0-0500-4E69-A49B-6C2F2580580D";
layerId = "F8CEB368-3C45-42B7-A9CE-39097D833CF0";
name = "Jun 4 22, 20:15";
paths = (
{
closed = 1;
nodes = (
"462 477 LINE",
"462 321 LINE",
"557 601 LINE SMOOTH",
"559 608 OFFCURVE",
"564 613 OFFCURVE",
"564 620 CURVE SMOOTH",
"564 785 LINE SMOOTH",
"564 794 OFFCURVE",
"558 800 OFFCURVE",
"549 800 CURVE SMOOTH",
"358 800 LINE SMOOTH",
"351 800 OFFCURVE",
"340 799 OFFCURVE",
"339 792 CURVE SMOOTH",
"291 550 LINE",
"274 550 LINE",
"274 785 LINE SMOOTH",
"274 794 OFFCURVE",
"268 800 OFFCURVE",
"259 800 CURVE SMOOTH",
"45 800 LINE SMOOTH",
"36 800 OFFCURVE",
"30 794 OFFCURVE",
"30 785 CURVE SMOOTH",
"30 15 LINE SMOOTH",
"30 6 OFFCURVE",
"36 0 OFFCURVE",
"45 0 CURVE SMOOTH",
"259 0 LINE SMOOTH",
"268 0 OFFCURVE",
"274 6 OFFCURVE",
"274 15 CURVE SMOOTH",
"274 225 LINE",
"290 225 LINE",
"347 9 LINE SMOOTH",
"349 2 OFFCURVE",
"358 0 OFFCURVE",
"365 0 CURVE SMOOTH",
"562 0 LINE SMOOTH",
"571 0 OFFCURVE",
"577 7 OFFCURVE",
"577 15 CURVE SMOOTH",
"577 163 LINE SMOOTH",
"577 173 OFFCURVE",
"575 179 OFFCURVE",
"572 186 CURVE SMOOTH"
);
}
);
width = 598;
}
);
leftMetricsKey = "=H";
unicode = 004B;
},
{
glyphname = L;
lastChange = "2023-05-20 14:37:02 +0000";
layers = (
{
anchors = (
{
name = bottom;
position = "{208, -30}";
},
{
name = center;
position = "{208, 400}";
},
{
name = top;
position = "{208, 800}";
},
{
name = topright;
position = "{386, 800}";
}
);
layerId = "462F72A0-0500-4E69-A49B-6C2F2580580D";
paths = (
{
closed = 1;
nodes = (
"391 1 LINE SMOOTH",
"399 1 OFFCURVE",
"406 8 OFFCURVE",
"406 16 CURVE SMOOTH",
"406 220 LINE SMOOTH",
"406 228 OFFCURVE",
"399 235 OFFCURVE",
"391 235 CURVE SMOOTH",
"319 234 LINE SMOOTH",
"311 234 OFFCURVE",
"304 241 OFFCURVE",
"304 249 CURVE SMOOTH",
"304 785 LINE SMOOTH",
"304 794 OFFCURVE",
"298 800 OFFCURVE",
"289 800 CURVE SMOOTH",
"45 800 LINE SMOOTH",
"36 800 OFFCURVE",
"30 794 OFFCURVE",
"30 785 CURVE SMOOTH",
"30 15 LINE SMOOTH",
"30 6 OFFCURVE",
"36 0 OFFCURVE",
"45 0 CURVE SMOOTH"
);
}
);
width = 416;
}
);
leftMetricsKey = "=H";
unicode = 004C;
},
{
glyphname = LJ;
lastChange = "2023-05-18 02:22:02 +0000";
layers = (
{
anchors = (
{
name = bottom;
position = "{546, 0}";
},
{
name = center;
position = "{199, 400}";
},
{
name = ogonek;
position = "{630, 10}";
},
{
name = top;
position = "{546, 800}";
},
{
name = topleft;
position = "{417, 800}";
},
{
name = topright;
position = "{377, 800}";
}
);
layerId = "462F72A0-0500-4E69-A49B-6C2F2580580D";
paths = (
{
closed = 1;
nodes = (
"495 -100 LINE SMOOTH",
"502 -100 OFFCURVE",
"508 -97 OFFCURVE",
"513 -91 CURVE SMOOTH",
"655 74 LINE SMOOTH",
"660 80 OFFCURVE",
"662 86 OFFCURVE",
"662 93 CURVE SMOOTH",
"662 785 LINE SMOOTH",
"662 794 OFFCURVE",
"656 800 OFFCURVE",
"647 800 CURVE SMOOTH",
"430 800 LINE SMOOTH",
"421 800 OFFCURVE",
"415 794 OFFCURVE",
"415 785 CURVE SMOOTH",
"415 223 LINE SMOOTH",
"415 216 OFFCURVE",
"413 209 OFFCURVE",
"408 204 CURVE SMOOTH",
"385 177 LINE SMOOTH",
"380 172 OFFCURVE",
"378 165 OFFCURVE",
"378 158 CURVE SMOOTH",
"378 -85 LINE SMOOTH",
"378 -94 OFFCURVE",
"384 -100 OFFCURVE",
"393 -100 CURVE SMOOTH"
);
},
{
closed = 1;
nodes = (
"341 1 LINE SMOOTH",
"349 1 OFFCURVE",
"356 8 OFFCURVE",
"356 16 CURVE SMOOTH",
"356 220 LINE SMOOTH",
"356 228 OFFCURVE",
"349 235 OFFCURVE",
"341 235 CURVE SMOOTH",
"310 234 LINE SMOOTH",
"302 234 OFFCURVE",
"295 241 OFFCURVE",
"295 249 CURVE SMOOTH",
"295 785 LINE SMOOTH",
"295 794 OFFCURVE",
"289 800 OFFCURVE",
"280 800 CURVE SMOOTH",
"36 800 LINE SMOOTH",
"27 800 OFFCURVE",
"21 794 OFFCURVE",
"21 785 CURVE SMOOTH",
"21 15 LINE SMOOTH",
"21 6 OFFCURVE",
"27 0 OFFCURVE",
"36 0 CURVE SMOOTH"
);
}
);
width = 691;
}
);
rightMetricsKey = "=J";
unicode = "01C7,01C9";
},
{
glyphname = Lj;
lastChange = "2023-09-15 17:55:26 +0000";
layers = (
{
anchors = (
{
name = bottom;
position = "{199, -30}";
},
{
name = center;
position = "{199, 400}";
},
{
name = top;
position = "{199, 800}";
},
{
name = topright;
position = "{377, 800}";
}
);
layerId = "462F72A0-0500-4E69-A49B-6C2F2580580D";
paths = (
{
closed = 1;
nodes = (
"352 1 LINE SMOOTH",
"360 1 OFFCURVE",
"367 8 OFFCURVE",
"367 16 CURVE SMOOTH",
"367 220 LINE SMOOTH",
"367 228 OFFCURVE",
"360 235 OFFCURVE",
"352 235 CURVE SMOOTH",
"310 234 LINE SMOOTH",
"302 234 OFFCURVE",
"295 241 OFFCURVE",
"295 249 CURVE SMOOTH",
"295 785 LINE SMOOTH",
"295 794 OFFCURVE",
"289 800 OFFCURVE",
"280 800 CURVE SMOOTH",
"36 800 LINE SMOOTH",
"27 800 OFFCURVE",
"21 794 OFFCURVE",
"21 785 CURVE SMOOTH",
"21 15 LINE SMOOTH",
"21 6 OFFCURVE",
"27 0 OFFCURVE",
"36 0 CURVE SMOOTH"
);
}
);
width = 759;
}
);
unicode = 01C8;
},
{
glyphname = Lslash;
lastChange = "2023-05-18 02:22:02 +0000";
layers = (
{
components = (
{
name = L;
}
);
layerId = "462F72A0-0500-4E69-A49B-6C2F2580580D";
paths = (
{
closed = 1;
nodes = (
"-12 337 LINE SMOOTH",
"-12 326 OFFCURVE",
"-4 321 OFFCURVE",
"6 326 CURVE SMOOTH",
"340 492 LINE SMOOTH",
"347 496 OFFCURVE",
"351 501 OFFCURVE",
"351 509 CURVE SMOOTH",
"351 598 LINE SMOOTH",
"351 609 OFFCURVE",
"343 614 OFFCURVE",
"333 609 CURVE SMOOTH",
"-1 443 LINE SMOOTH",
"-8 439 OFFCURVE",
"-12 434 OFFCURVE",
"-12 426 CURVE SMOOTH"
);
}
);
width = 416;
}
);
rightMetricsKey = "=L";
unicode = "0141,0142";
},
{
glyphname = M;
lastChange = "2023-06-02 17:50:08 +0000";
layers = (
{
anchors = (
{
name = bottom;
position = "{443, -20}";
},
{
name = top;
position = "{438, 770}";
}
);
layerId = "462F72A0-0500-4E69-A49B-6C2F2580580D";
paths = (
{
closed = 1;
nodes = (
"244 0 LINE SMOOTH",
"253 0 OFFCURVE",
"259 6 OFFCURVE",
"259 15 CURVE SMOOTH",
"259 491 LINE",
"311 491 LINE",
"311 15 LINE SMOOTH",
"311 6 OFFCURVE",
"317 0 OFFCURVE",
"326 0 CURVE SMOOTH",
"559 0 LINE SMOOTH",
"568 0 OFFCURVE",
"574 6 OFFCURVE",
"574 15 CURVE SMOOTH",
"574 491 LINE",
"625 491 LINE",
"625 15 LINE SMOOTH",
"625 6 OFFCURVE",
"631 0 OFFCURVE",
"640 0 CURVE SMOOTH",
"843 0 LINE SMOOTH",
"853 0 OFFCURVE",
"857 5 OFFCURVE",
"857 15 CURVE",
"858 651 LINE",
"858 659 OFFCURVE",
"856 665 OFFCURVE",
"850 670 CURVE SMOOTH",
"715 794 LINE SMOOTH",
"709 799 OFFCURVE",
"703 802 OFFCURVE",
"696 802 CURVE SMOOTH",
"591 802 LINE SMOOTH",
"584 802 OFFCURVE",
"580 800 OFFCURVE",
"573 794 CURVE SMOOTH",
"453 694 LINE",
"431 694 LINE",
"312 794 LINE SMOOTH",
"306 799 OFFCURVE",
"301 802 OFFCURVE",
"294 802 CURVE SMOOTH",
"188 802 LINE SMOOTH",
"181 802 OFFCURVE",
"175 799 OFFCURVE",
"169 794 CURVE SMOOTH",
"34 670 LINE SMOOTH",
"28 665 OFFCURVE",
"26 659 OFFCURVE",
"26 651 CURVE",
"27 15 LINE",
"27 5 OFFCURVE",
"31 0 OFFCURVE",
"41 0 CURVE SMOOTH"
);
}
);
width = 884;
},
{
anchors = (
{
name = bottom;
position = "{368, 0}";
},
{
name = top;
position = "{368, 800}";
}
);
associatedMasterId = "462F72A0-0500-4E69-A49B-6C2F2580580D";
layerId = "9942C253-D868-423E-B459-293273BC47C7";
name = "Jul 30 22, 01:46";
paths = (
{
closed = 1;
nodes = (
"30 7 OFFCURVE",
"37 0 OFFCURVE",
"45 0 CURVE SMOOTH",
"249 0 LINE SMOOTH",
"257 0 OFFCURVE",
"259 7 OFFCURVE",
"259 15 CURVE SMOOTH",
"259 386 LINE",
"279 386 LINE",
"293 122 LINE SMOOTH",
"293 115 OFFCURVE",
"300 109 OFFCURVE",
"307 109 CURVE SMOOTH",
"423 109 LINE SMOOTH",
"430 109 OFFCURVE",
"437 115 OFFCURVE",
"438 122 CURVE SMOOTH",
"457 386 LINE",
"477 386 LINE",
"477 15 LINE SMOOTH",
"477 7 OFFCURVE",
"478 0 OFFCURVE",
"486 0 CURVE SMOOTH",
"690 0 LINE SMOOTH",
"698 0 OFFCURVE",
"705 7 OFFCURVE",
"705 15 CURVE SMOOTH",
"705 785 LINE SMOOTH",
"705 793 OFFCURVE",
"698 800 OFFCURVE",
"690 800 CURVE SMOOTH",
"413 800 LINE SMOOTH",
"406 800 OFFCURVE",
"400 796 OFFCURVE",
"399 788 CURVE SMOOTH",
"375 507 LINE",
"361 507 LINE",
"336 788 LINE SMOOTH",
"335 796 OFFCURVE",
"329 800 OFFCURVE",
"322 800 CURVE SMOOTH",
"45 800 LINE SMOOTH",
"37 800 OFFCURVE",
"30 793 OFFCURVE",
"30 785 CURVE SMOOTH",
"30 15 LINE SMOOTH"
);
}
);
width = 735;
},
{
anchors = (
{
name = bottom;
position = "{368, 0}";
},
{
name = top;
position = "{368, 800}";
}
);
associatedMasterId = "462F72A0-0500-4E69-A49B-6C2F2580580D";
layerId = "C6E8B324-C2B6-4435-A495-12900C5EBB12";
name = "Jul 30 22, 01:47";
paths = (
{
closed = 1;
nodes = (
"30 7 OFFCURVE",
"37 0 OFFCURVE",
"45 0 CURVE SMOOTH",
"249 0 LINE SMOOTH",
"257 0 OFFCURVE",
"259 7 OFFCURVE",
"259 15 CURVE SMOOTH",
"259 386 LINE",
"269 386 LINE",
"293 122 LINE SMOOTH",
"294 115 OFFCURVE",
"300 109 OFFCURVE",
"307 109 CURVE SMOOTH",
"423 109 LINE SMOOTH",
"430 109 OFFCURVE",
"437 115 OFFCURVE",
"438 122 CURVE SMOOTH",
"467 386 LINE",
"477 386 LINE",
"477 15 LINE SMOOTH",
"477 7 OFFCURVE",
"478 0 OFFCURVE",
"486 0 CURVE SMOOTH",
"690 0 LINE SMOOTH",
"698 0 OFFCURVE",
"705 7 OFFCURVE",
"705 15 CURVE SMOOTH",
"705 785 LINE SMOOTH",
"705 793 OFFCURVE",
"698 800 OFFCURVE",
"690 800 CURVE SMOOTH",
"413 800 LINE SMOOTH",
"406 800 OFFCURVE",
"400 796 OFFCURVE",
"399 788 CURVE SMOOTH",
"371 507 LINE",
"365 507 LINE",
"336 788 LINE SMOOTH",
"335 796 OFFCURVE",
"329 800 OFFCURVE",
"322 800 CURVE SMOOTH",
"45 800 LINE SMOOTH",
"37 800 OFFCURVE",
"30 793 OFFCURVE",
"30 785 CURVE SMOOTH",
"30 15 LINE SMOOTH"
);
}
);
width = 735;
}
);
leftMetricsKey = "=H";
rightMetricsKey = "=H";
unicode = 004D;
},
{
glyphname = N;
lastChange = "2023-06-02 18:21:37 +0000";
layers = (
{
anchors = (
{
name = bottom;
position = "{300, -30}";
},
{
name = top;
position = "{300, 800}";
}
);
layerId = "462F72A0-0500-4E69-A49B-6C2F2580580D";
paths = (
{
closed = 1;
nodes = (
"447 798 OFFCURVE",
"440 800 OFFCURVE",
"433 800 CURVE SMOOTH",
"37 800 LINE SMOOTH",
"28 800 OFFCURVE",
"22 794 OFFCURVE",
"22 785 CURVE SMOOTH",
"22 15 LINE SMOOTH",
"22 6 OFFCURVE",
"28 0 OFFCURVE",
"37 0 CURVE SMOOTH",
"254 0 LINE SMOOTH",
"263 0 OFFCURVE",
"269 6 OFFCURVE",
"269 15 CURVE SMOOTH",
"269 562 LINE",
"321 562 LINE",
"321 15 LINE SMOOTH",
"321 6 OFFCURVE",
"327 0 OFFCURVE",
"336 0 CURVE SMOOTH",
"554 0 LINE SMOOTH",
"563 0 OFFCURVE",
"569 6 OFFCURVE",
"569 15 CURVE SMOOTH",
"570 691 LINE SMOOTH",
"570 698 OFFCURVE",
"568 702 OFFCURVE",
"563 706 CURVE SMOOTH",
"452 793 LINE"
);
}
);
width = 591;
}
);
unicode = 004E;
},
{
glyphname = NJ;
lastChange = "2023-05-18 13:20:53 +0000";
layers = (
{
anchors = (
{
name = bottom;
position = "{790, 0}";
},
{
name = top;
position = "{820, 800}";
}
);
components = (
{
name = N;
}
);
layerId = "462F72A0-0500-4E69-A49B-6C2F2580580D";
paths = (
{
closed = 1;
nodes = (
"802 -227 OFFCURVE",
"809 -224 OFFCURVE",
"813 -218 CURVE SMOOTH",
"905 -84 LINE SMOOTH",
"909 -78 OFFCURVE",
"912 -72 OFFCURVE",
"912 -65 CURVE SMOOTH",
"912 785 LINE SMOOTH",
"912 794 OFFCURVE",
"906 800 OFFCURVE",
"897 800 CURVE SMOOTH",
"679 800 LINE SMOOTH",
"670 800 OFFCURVE",
"664 794 OFFCURVE",
"664 785 CURVE SMOOTH",
"664 65 LINE SMOOTH",
"664 58 OFFCURVE",
"661 51 OFFCURVE",
"657 46 CURVE SMOOTH",
"598 -26 LINE SMOOTH",
"594 -31 OFFCURVE",
"592 -37 OFFCURVE",
"592 -44 CURVE SMOOTH",
"592 -212 LINE SMOOTH",
"592 -221 OFFCURVE",
"598 -227 OFFCURVE",
"607 -227 CURVE SMOOTH",
"795 -227 LINE SMOOTH"
);
}
);
width = 990;
}
);
unicode = "01CA,01CC";
},
{
glyphname = Nhookleft;
lastChange = "2023-05-18 02:22:02 +0000";
layers = (
{
components = (
{
name = N;
}
);
layerId = "462F72A0-0500-4E69-A49B-6C2F2580580D";
paths = (
{
closed = 1;
nodes = (
"21 19 LINE",
"-25 19 LINE SMOOTH",
"-43 19 OFFCURVE",
"-55 6 OFFCURVE",
"-55 -12 CURVE SMOOTH",
"-55 -114 LINE SMOOTH",
"-55 -132 OFFCURVE",
"-43 -144 OFFCURVE",
"-25 -144 CURVE SMOOTH",
"127 -144 LINE SMOOTH",
"142 -144 OFFCURVE",
"156 -140 OFFCURVE",
"166 -130 CURVE SMOOTH",
"238 -61 LINE SMOOTH",
"250 -50 OFFCURVE",
"255 -39 OFFCURVE",
"255 -25 CURVE SMOOTH",
"255 39 LINE SMOOTH",
"255 88 OFFCURVE",
"226 84 OFFCURVE",
"192 84 CURVE",
"52 84 LINE",
"33 84 OFFCURVE",
"21 104 OFFCURVE",
"21 86 CURVE SMOOTH"
);
}
);
width = 594;
}
);
unicode = "019D,0272";
},
{
glyphname = Eng;
lastChange = "2023-05-18 02:22:02 +0000";
layers = (
{
components = (
{
name = N;
}
);
layerId = "462F72A0-0500-4E69-A49B-6C2F2580580D";
paths = (
{
closed = 1;
nodes = (
"346 0 LINE",
"299 1 LINE SMOOTH",
"281 1 OFFCURVE",
"269 -12 OFFCURVE",
"269 -30 CURVE SMOOTH",
"269 -114 LINE SMOOTH",
"269 -132 OFFCURVE",
"281 -144 OFFCURVE",
"299 -144 CURVE SMOOTH",
"445 -144 LINE SMOOTH",
"460 -144 OFFCURVE",
"474 -140 OFFCURVE",
"484 -130 CURVE SMOOTH",
"556 -61 LINE SMOOTH",
"568 -50 OFFCURVE",
"573 -39 OFFCURVE",
"573 -25 CURVE SMOOTH",
"573 7 LINE SMOOTH",
"573 56 OFFCURVE",
"544 84 OFFCURVE",
"510 84 CURVE",
"376 84 LINE",
"357 84 OFFCURVE",
"324 75 OFFCURVE",
"329 59 CURVE SMOOTH"
);
}
);
width = 594;
}
);
unicode = "014A,014B";
},
{
glyphname = O;
lastChange = "2023-05-20 14:26:27 +0000";
layers = (
{
anchors = (
{
name = bottom;
position = "{306, -30}";
},
{
name = center;
position = "{306, 400}";
},
{
name = ogonek;
position = "{537, 10}";
},
{
name = top;
position = "{306, 800}";
},
{
name = topleft;
position = "{37, 800}";
},
{
name = topright;
position = "{552, 790}";
}
);
associatedMasterId = "462F72A0-0500-4E69-A49B-6C2F2580580D";
layerId = "F41F3562-3C0B-4214-8D2F-E4B547B75B1E";
name = "Original modified";
paths = (
{
closed = 1;
nodes = (
"576 102 LINE SMOOTH",
"582 107 OFFCURVE",
"584 113 OFFCURVE",
"584 120 CURVE SMOOTH",
"584 659 LINE SMOOTH",
"584 666 OFFCURVE",
"582 672 OFFCURVE",
"577 678 CURVE SMOOTH",
"467 792 LINE SMOOTH",
"462 798 OFFCURVE",
"455 800 OFFCURVE",
"448 800 CURVE SMOOTH",
"164 800 LINE SMOOTH",
"157 800 OFFCURVE",
"150 798 OFFCURVE",
"145 792 CURVE SMOOTH",
"35 678 LINE SMOOTH",
"30 672 OFFCURVE",
"28 666 OFFCURVE",
"28 659 CURVE SMOOTH",
"28 120 LINE SMOOTH",
"28 113 OFFCURVE",
"30 107 OFFCURVE",
"36 102 CURVE SMOOTH",
"145 7 LINE SMOOTH",
"150 2 OFFCURVE",
"157 0 OFFCURVE",
"164 0 CURVE SMOOTH",
"448 0 LINE SMOOTH",
"455 0 OFFCURVE",
"462 2 OFFCURVE",
"467 7 CURVE SMOOTH"
);
},
{
closed = 1;
nodes = (
"328 575 OFFCURVE",
"337 562 OFFCURVE",
"337 543 CURVE",
"337 252 LINE",
"337 240 OFFCURVE",
"324 228 OFFCURVE",
"307 228 CURVE SMOOTH",
"287 228 OFFCURVE",
"276 240 OFFCURVE",
"276 252 CURVE",
"276 543 LINE",
"276 562 OFFCURVE",
"287 575 OFFCURVE",
"307 575 CURVE SMOOTH"
);
}
);
width = 612;
},
{
anchors = (
{
name = bottom;
position = "{306, -30}";
},
{
name = center;
position = "{306, 400}";
},
{
name = ogonek;
position = "{537, 10}";
},
{
name = top;
position = "{306, 800}";
},
{
name = topleft;
position = "{37, 800}";
},
{
name = topright;
position = "{552, 790}";
}
);
associatedMasterId = "462F72A0-0500-4E69-A49B-6C2F2580580D";
layerId = "BBB23940-A844-4195-93EB-158D47E9EBEA";
name = "Jun 2 22, 02:22";
paths = (
{
closed = 1;
nodes = (
"448 0 LINE SMOOTH",
"455 0 OFFCURVE",
"462 2 OFFCURVE",
"467 7 CURVE SMOOTH",
"576 102 LINE SMOOTH",
"582 107 OFFCURVE",
"584 113 OFFCURVE",
"584 120 CURVE SMOOTH",
"584 659 LINE SMOOTH",
"584 666 OFFCURVE",
"582 672 OFFCURVE",
"577 678 CURVE SMOOTH",
"467 792 LINE SMOOTH",
"462 798 OFFCURVE",
"455 800 OFFCURVE",
"448 800 CURVE SMOOTH",
"164 800 LINE SMOOTH",
"157 800 OFFCURVE",
"150 798 OFFCURVE",
"145 792 CURVE SMOOTH",
"35 678 LINE SMOOTH",
"30 672 OFFCURVE",
"28 666 OFFCURVE",
"28 659 CURVE SMOOTH",
"28 120 LINE SMOOTH",
"28 113 OFFCURVE",
"30 107 OFFCURVE",
"36 102 CURVE SMOOTH",
"145 7 LINE SMOOTH",
"150 2 OFFCURVE",
"157 0 OFFCURVE",
"164 0 CURVE SMOOTH"
);
},
{
closed = 1;
nodes = (
"286 228 OFFCURVE",
"276 241 OFFCURVE",
"276 260 CURVE SMOOTH",
"276 543 LINE",
"276 562 OFFCURVE",
"286 575 OFFCURVE",
"307 575 CURVE SMOOTH",
"328 575 OFFCURVE",
"338 562 OFFCURVE",
"338 543 CURVE",
"338 260 LINE SMOOTH",
"338 241 OFFCURVE",
"328 228 OFFCURVE",
"307 228 CURVE SMOOTH"
);
}
);
width = 612;
},
{
anchors = (
{
name = bottom;
position = "{306, -30}";
},
{
name = center;
position = "{306, 400}";
},
{
name = ogonek;
position = "{537, 10}";
},
{
name = top;
position = "{306, 800}";
},
{
name = topleft;
position = "{37, 800}";
},
{
name = topright;
position = "{552, 790}";
}
);
associatedMasterId = "462F72A0-0500-4E69-A49B-6C2F2580580D";
layerId = "9E2A38EE-2803-401B-9D1A-CA68C2F1C8F6";
name = "Jun 2 22, 02:23";
paths = (
{
closed = 1;
nodes = (
"448 0 LINE SMOOTH",
"455 0 OFFCURVE",
"462 2 OFFCURVE",
"467 7 CURVE SMOOTH",
"576 102 LINE SMOOTH",
"582 107 OFFCURVE",
"584 113 OFFCURVE",
"584 120 CURVE SMOOTH",
"584 659 LINE SMOOTH",
"584 666 OFFCURVE",
"582 672 OFFCURVE",
"577 678 CURVE SMOOTH",
"467 792 LINE SMOOTH",
"462 798 OFFCURVE",
"455 800 OFFCURVE",
"448 800 CURVE SMOOTH",
"164 800 LINE SMOOTH",
"157 800 OFFCURVE",
"150 798 OFFCURVE",
"145 792 CURVE SMOOTH",
"35 678 LINE SMOOTH",
"30 672 OFFCURVE",
"28 666 OFFCURVE",
"28 659 CURVE SMOOTH",
"28 120 LINE SMOOTH",
"28 113 OFFCURVE",
"30 107 OFFCURVE",
"36 102 CURVE SMOOTH",
"145 7 LINE SMOOTH",
"150 2 OFFCURVE",
"157 0 OFFCURVE",
"164 0 CURVE SMOOTH"
);
},
{
closed = 1;
nodes = (
"287 228 OFFCURVE",
"276 240 OFFCURVE",
"276 261 CURVE SMOOTH",
"276 542 LINE",
"276 563 OFFCURVE",
"287 575 OFFCURVE",
"307 575 CURVE SMOOTH",
"327 575 OFFCURVE",
"338 563 OFFCURVE",
"338 542 CURVE",
"338 261 LINE SMOOTH",
"338 240 OFFCURVE",
"327 228 OFFCURVE",
"307 228 CURVE SMOOTH"
);
}
);
width = 612;
},
{
anchors = (
{
name = bottom;
position = "{306, -30}";
},
{
name = center;
position = "{306, 400}";
},
{
name = ogonek;
position = "{537, 10}";
},
{
name = top;
position = "{306, 800}";
},
{
name = topleft;
position = "{37, 800}";
},
{
name = topright;
position = "{552, 790}";
}
);
associatedMasterId = "462F72A0-0500-4E69-A49B-6C2F2580580D";
layerId = "0B6860AB-4073-49CC-9F84-6AA2FC65E6F6";
name = "Jun 2 22, 02:30";
paths = (
{
closed = 1;
nodes = (
"448 0 LINE SMOOTH",
"455 0 OFFCURVE",
"462 2 OFFCURVE",
"467 7 CURVE SMOOTH",
"576 102 LINE SMOOTH",
"582 107 OFFCURVE",
"584 113 OFFCURVE",
"584 120 CURVE SMOOTH",
"584 659 LINE SMOOTH",
"584 666 OFFCURVE",
"582 672 OFFCURVE",
"577 678 CURVE SMOOTH",
"467 792 LINE SMOOTH",
"462 798 OFFCURVE",
"455 800 OFFCURVE",
"448 800 CURVE SMOOTH",
"164 800 LINE SMOOTH",
"157 800 OFFCURVE",
"150 798 OFFCURVE",
"145 792 CURVE SMOOTH",
"35 678 LINE SMOOTH",
"30 672 OFFCURVE",
"28 666 OFFCURVE",
"28 659 CURVE SMOOTH",
"28 120 LINE SMOOTH",
"28 113 OFFCURVE",
"30 107 OFFCURVE",
"36 102 CURVE SMOOTH",
"145 7 LINE SMOOTH",
"150 2 OFFCURVE",
"157 0 OFFCURVE",
"164 0 CURVE SMOOTH"
);
},
{
closed = 1;
nodes = (
"287 228 OFFCURVE",
"276 240 OFFCURVE",
"276 262 CURVE SMOOTH",
"276 541 LINE SMOOTH",
"276 563 OFFCURVE",
"287 575 OFFCURVE",
"307 575 CURVE SMOOTH",
"327 575 OFFCURVE",
"338 563 OFFCURVE",
"338 541 CURVE SMOOTH",
"338 262 LINE SMOOTH",
"338 240 OFFCURVE",
"327 228 OFFCURVE",
"307 228 CURVE SMOOTH"
);
}
);
width = 612;
},
{
anchors = (
{
name = bottom;
position = "{310, -30}";
},
{
name = center;
position = "{309, 400}";
},
{
name = ogonek;
position = "{540, 10}";
},
{
name = top;
position = "{310, 800}";
},
{
name = topleft;
position = "{40, 800}";
},
{
name = topright;
position = "{555, 790}";
}
);
associatedMasterId = "462F72A0-0500-4E69-A49B-6C2F2580580D";
layerId = "C33C8B93-FF66-4402-9B4F-7A3B58D75BB0";
name = "Jun 2 22, 04:22";
paths = (
{
closed = 1;
nodes = (
"454 0 LINE SMOOTH",
"461 0 OFFCURVE",
"468 2 OFFCURVE",
"473 7 CURVE SMOOTH",
"582 102 LINE SMOOTH",
"588 107 OFFCURVE",
"590 113 OFFCURVE",
"590 120 CURVE SMOOTH",
"590 659 LINE SMOOTH",
"590 666 OFFCURVE",
"588 672 OFFCURVE",
"583 678 CURVE SMOOTH",
"473 792 LINE SMOOTH",
"468 798 OFFCURVE",
"461 800 OFFCURVE",
"454 800 CURVE SMOOTH",
"164 800 LINE SMOOTH",
"157 800 OFFCURVE",
"150 798 OFFCURVE",
"145 792 CURVE SMOOTH",
"35 678 LINE SMOOTH",
"30 672 OFFCURVE",
"28 666 OFFCURVE",
"28 659 CURVE SMOOTH",
"28 120 LINE SMOOTH",
"28 113 OFFCURVE",
"30 107 OFFCURVE",
"36 102 CURVE SMOOTH",
"145 7 LINE SMOOTH",
"150 2 OFFCURVE",
"157 0 OFFCURVE",
"164 0 CURVE SMOOTH"
);
},
{
closed = 1;
nodes = (
"290 228 OFFCURVE",
"278 240 OFFCURVE",
"278 262 CURVE SMOOTH",
"278 541 LINE SMOOTH",
"278 563 OFFCURVE",
"290 575 OFFCURVE",
"310 575 CURVE SMOOTH",
"330 575 OFFCURVE",
"342 563 OFFCURVE",
"342 541 CURVE SMOOTH",
"342 262 LINE SMOOTH",
"342 240 OFFCURVE",
"330 228 OFFCURVE",
"310 228 CURVE SMOOTH"
);
}
);
width = 618;
},
{
anchors = (
{
name = bottom;
position = "{309, -30}";
},
{
name = center;
position = "{308, 400}";
},
{
name = ogonek;
position = "{539, 10}";
},
{
name = top;
position = "{309, 800}";
},
{
name = topleft;
position = "{39, 800}";
},
{
name = topright;
position = "{554, 790}";
}
);
associatedMasterId = "462F72A0-0500-4E69-A49B-6C2F2580580D";
guideLines = (
{
angle = 90;
position = "{308, 0}";
showMeasurement = 1;
}
);
layerId = "D7293291-EF9B-46AD-AA74-C94D66320AE3";
name = /A;
paths = (
{
closed = 1;
nodes = (
"263 0 LINE SMOOTH",
"272 0 OFFCURVE",
"278 6 OFFCURVE",
"278 15 CURVE SMOOTH",
"278 228 LINE",
"338 228 LINE",
"338 15 LINE SMOOTH",
"338 6 OFFCURVE",
"344 0 OFFCURVE",
"353 0 CURVE SMOOTH",
"567 0 LINE SMOOTH",
"576 0 OFFCURVE",
"582 6 OFFCURVE",
"582 15 CURVE SMOOTH",
"582 571 LINE SMOOTH",
"582 578 OFFCURVE",
"580 583 OFFCURVE",
"576 589 CURVE SMOOTH",
"434 791 LINE SMOOTH",
"430 797 OFFCURVE",
"423 800 OFFCURVE",
"415 800 CURVE SMOOTH",
"200 800 LINE SMOOTH",
"192 800 OFFCURVE",
"185 797 OFFCURVE",
"181 791 CURVE SMOOTH",
"40 589 LINE SMOOTH",
"36 583 OFFCURVE",
"34 578 OFFCURVE",
"34 571 CURVE SMOOTH",
"34 15 LINE SMOOTH",
"34 6 OFFCURVE",
"40 0 OFFCURVE",
"49 0 CURVE SMOOTH"
);
},
{
closed = 1;
nodes = (
"274 437 OFFCURVE",
"250 461 OFFCURVE",
"250 495 CURVE SMOOTH",
"250 529 OFFCURVE",
"274 553 OFFCURVE",
"308 553 CURVE SMOOTH",
"342 553 OFFCURVE",
"366 529 OFFCURVE",
"366 495 CURVE SMOOTH",
"366 461 OFFCURVE",
"342 437 OFFCURVE",
"308 437 CURVE SMOOTH"
);
}
);
width = 616;
},
{
anchors = (
{
name = bottom;
position = "{309, -30}";
},
{
name = center;
position = "{308, 400}";
},
{
name = ogonek;
position = "{539, 10}";
},
{
name = top;
position = "{309, 800}";
},
{
name = topleft;
position = "{39, 800}";
},
{
name = topright;
position = "{554, 790}";
}
);
associatedMasterId = "462F72A0-0500-4E69-A49B-6C2F2580580D";
guideLines = (
{
angle = 90;
position = "{308, 0}";
showMeasurement = 1;
}
);
layerId = "885A7757-38AE-4384-9BCE-C8132219A168";
name = "Jul 29 22, 20:52";
paths = (
{
closed = 1;
nodes = (
"452 0 LINE SMOOTH",
"459 0 OFFCURVE",
"466 2 OFFCURVE",
"471 8 CURVE SMOOTH",
"581 122 LINE SMOOTH",
"586 128 OFFCURVE",
"588 134 OFFCURVE",
"588 141 CURVE SMOOTH",
"588 659 LINE SMOOTH",
"588 666 OFFCURVE",
"586 672 OFFCURVE",
"581 678 CURVE SMOOTH",
"471 792 LINE SMOOTH",
"466 798 OFFCURVE",
"459 800 OFFCURVE",
"452 800 CURVE SMOOTH",
"164 800 LINE SMOOTH",
"157 800 OFFCURVE",
"150 798 OFFCURVE",
"145 792 CURVE SMOOTH",
"35 678 LINE SMOOTH",
"30 672 OFFCURVE",
"28 666 OFFCURVE",
"28 659 CURVE SMOOTH",
"28 141 LINE SMOOTH",
"28 134 OFFCURVE",
"30 128 OFFCURVE",
"35 122 CURVE SMOOTH",
"145 8 LINE SMOOTH",
"150 2 OFFCURVE",
"157 0 OFFCURVE",
"164 0 CURVE SMOOTH"
);
},
{
closed = 1;
nodes = (
"288 226 OFFCURVE",
"276 238 OFFCURVE",
"276 260 CURVE SMOOTH",
"276 540 LINE SMOOTH",
"276 562 OFFCURVE",
"288 574 OFFCURVE",
"308 574 CURVE SMOOTH",
"328 574 OFFCURVE",
"340 562 OFFCURVE",
"340 540 CURVE SMOOTH",
"340 260 LINE SMOOTH",
"340 238 OFFCURVE",
"328 226 OFFCURVE",
"308 226 CURVE SMOOTH"
);
}
);
width = 616;
},
{
anchors = (
{
name = bottom;
position = "{308, -30}";
},
{
name = center;
position = "{307, 400}";
},
{
name = ogonek;
position = "{538, 10}";
},
{
name = top;
position = "{308, 800}";
},
{
name = topleft;
position = "{38, 800}";
},
{
name = topright;
position = "{553, 790}";
}
);
associatedMasterId = "462F72A0-0500-4E69-A49B-6C2F2580580D";
guideLines = (
{
angle = 90;
position = "{307, 0}";
showMeasurement = 1;
}
);
layerId = "AE51C8C2-EE82-4541-ADA8-3D40C34776A4";
name = "Jul 30 22, 02:14";
paths = (
{
closed = 1;
nodes = (
"451 0 LINE SMOOTH",
"458 0 OFFCURVE",
"465 2 OFFCURVE",
"470 8 CURVE SMOOTH",
"580 136 LINE SMOOTH",
"585 142 OFFCURVE",
"587 148 OFFCURVE",
"587 155 CURVE SMOOTH",
"587 645 LINE SMOOTH",
"587 652 OFFCURVE",
"585 658 OFFCURVE",
"580 664 CURVE SMOOTH",
"470 792 LINE SMOOTH",
"465 798 OFFCURVE",
"458 800 OFFCURVE",
"451 800 CURVE SMOOTH",
"168 800 LINE SMOOTH",
"161 800 OFFCURVE",
"154 798 OFFCURVE",
"149 792 CURVE SMOOTH",
"34 664 LINE SMOOTH",
"29 658 OFFCURVE",
"27 652 OFFCURVE",
"27 645 CURVE SMOOTH",
"27 155 LINE SMOOTH",
"27 148 OFFCURVE",
"29 142 OFFCURVE",
"34 136 CURVE SMOOTH",
"144 8 LINE SMOOTH",
"149 2 OFFCURVE",
"156 0 OFFCURVE",
"163 0 CURVE SMOOTH"
);
},
{
closed = 1;
nodes = (
"287 226 OFFCURVE",
"275 238 OFFCURVE",
"275 260 CURVE SMOOTH",
"275 540 LINE SMOOTH",
"275 562 OFFCURVE",
"287 574 OFFCURVE",
"307 574 CURVE SMOOTH",
"327 574 OFFCURVE",
"339 562 OFFCURVE",
"339 540 CURVE SMOOTH",
"339 260 LINE SMOOTH",
"339 238 OFFCURVE",
"327 226 OFFCURVE",
"307 226 CURVE SMOOTH"
);
}
);
width = 614;
},
{
anchors = (
{
name = bottom;
position = "{308, -30}";
},
{
name = center;
position = "{307, 400}";
},
{
name = ogonek;
position = "{538, 10}";
},
{
name = top;
position = "{308, 800}";
},
{
name = topleft;
position = "{38, 800}";
},
{
name = topright;
position = "{553, 790}";
}
);
guideLines = (
{
angle = 90;
position = "{307, 0}";
showMeasurement = 1;
}
);
layerId = "462F72A0-0500-4E69-A49B-6C2F2580580D";
paths = (
{
closed = 1;
nodes = (
"451 0 LINE SMOOTH",
"458 0 OFFCURVE",
"465 2 OFFCURVE",
"470 8 CURVE SMOOTH",
"580 130 LINE SMOOTH",
"585 136 OFFCURVE",
"587 142 OFFCURVE",
"587 155 CURVE SMOOTH",
"587 651 LINE SMOOTH",
"587 658 OFFCURVE",
"585 664 OFFCURVE",
"580 670 CURVE SMOOTH",
"470 792 LINE SMOOTH",
"465 798 OFFCURVE",
"458 800 OFFCURVE",
"451 800 CURVE SMOOTH",
"163 800 LINE SMOOTH",
"156 800 OFFCURVE",
"149 798 OFFCURVE",
"144 792 CURVE SMOOTH",
"34 670 LINE SMOOTH",
"29 664 OFFCURVE",
"27 658 OFFCURVE",
"27 651 CURVE SMOOTH",
"27 149 LINE SMOOTH",
"27 142 OFFCURVE",
"29 136 OFFCURVE",
"34 130 CURVE SMOOTH",
"144 8 LINE SMOOTH",
"149 2 OFFCURVE",
"156 0 OFFCURVE",
"163 0 CURVE SMOOTH"
);
},
{
closed = 1;
nodes = (
"287 226 OFFCURVE",
"275 238 OFFCURVE",
"275 260 CURVE SMOOTH",
"275 540 LINE SMOOTH",
"275 562 OFFCURVE",
"287 574 OFFCURVE",
"307 574 CURVE SMOOTH",
"327 574 OFFCURVE",
"339 562 OFFCURVE",
"339 540 CURVE SMOOTH",
"339 260 LINE SMOOTH",
"339 238 OFFCURVE",
"327 226 OFFCURVE",
"307 226 CURVE SMOOTH"
);
}
);
width = 614;
}
);
unicode = 004F;
},
{
glyphname = OE;
lastChange = "2023-09-15 18:02:23 +0000";
layers = (
{
associatedMasterId = "462F72A0-0500-4E69-A49B-6C2F2580580D";
components = (
{
name = O;
},
{
alignment = -1;
name = E;
transform = "{1, 0, 0, 1, 300, 0}";
}
);
layerId = "B771DCE8-F7BC-4EC8-842A-FB14B079C25B";
name = "Jul 10 22, 17:32";
width = 796;
},
{
anchors = (
{
name = bottom;
position = "{309, -30}";
},
{
name = center;
position = "{308, 400}";
},
{
name = ogonek;
position = "{539, 10}";
},
{
name = top;
position = "{309, 800}";
},
{
name = topleft;
position = "{39, 800}";
},
{
name = topright;
position = "{554, 790}";
}
);
associatedMasterId = "462F72A0-0500-4E69-A49B-6C2F2580580D";
layerId = "78042DB7-A5F5-4B9C-B355-1539F89D4BD7";
name = "Jul 10 22, 17:32";
paths = (
{
closed = 1;
nodes = (
"452 0 LINE SMOOTH",
"459 0 OFFCURVE",
"466 2 OFFCURVE",
"471 8 CURVE SMOOTH",
"581 122 LINE SMOOTH",
"586 128 OFFCURVE",
"588 134 OFFCURVE",
"588 141 CURVE SMOOTH",
"588 659 LINE SMOOTH",
"588 666 OFFCURVE",
"586 672 OFFCURVE",
"581 678 CURVE SMOOTH",
"471 792 LINE SMOOTH",
"466 798 OFFCURVE",
"459 800 OFFCURVE",
"452 800 CURVE SMOOTH",
"164 800 LINE SMOOTH",
"157 800 OFFCURVE",
"150 798 OFFCURVE",
"145 792 CURVE SMOOTH",
"35 678 LINE SMOOTH",
"30 672 OFFCURVE",
"28 666 OFFCURVE",
"28 659 CURVE SMOOTH",
"28 141 LINE SMOOTH",
"28 134 OFFCURVE",
"30 128 OFFCURVE",
"35 122 CURVE SMOOTH",
"145 8 LINE SMOOTH",
"150 2 OFFCURVE",
"157 0 OFFCURVE",
"164 0 CURVE SMOOTH"
);
},
{
closed = 1;
nodes = (
"288 226 OFFCURVE",
"276 238 OFFCURVE",
"276 260 CURVE SMOOTH",
"276 540 LINE SMOOTH",
"276 562 OFFCURVE",
"288 574 OFFCURVE",
"308 574 CURVE",
"340 574 LINE",
"340 226 LINE",
"308 226 LINE"
);
},
{
closed = 1;
nodes = (
"778 785 LINE SMOOTH",
"778 793 OFFCURVE",
"771 800 OFFCURVE",
"763 800 CURVE SMOOTH",
"345 800 LINE SMOOTH",
"337 800 OFFCURVE",
"330 793 OFFCURVE",
"330 785 CURVE SMOOTH",
"330 15 LINE SMOOTH",
"330 7 OFFCURVE",
"337 0 OFFCURVE",
"345 0 CURVE SMOOTH",
"777 1 LINE SMOOTH",
"785 1 OFFCURVE",
"792 8 OFFCURVE",
"792 16 CURVE SMOOTH",
"792 218 LINE SMOOTH",
"792 226 OFFCURVE",
"785 233 OFFCURVE",
"777 233 CURVE SMOOTH",
"577 233 LINE",
"577 279 LINE",
"763 279 LINE SMOOTH",
"771 279 OFFCURVE",
"778 286 OFFCURVE",
"778 294 CURVE SMOOTH",
"778 487 LINE SMOOTH",
"778 495 OFFCURVE",
"771 502 OFFCURVE",
"763 502 CURVE SMOOTH",
"577 502 LINE",
"577 556 LINE",
"763 556 LINE SMOOTH",
"771 556 OFFCURVE",
"778 563 OFFCURVE",
"778 571 CURVE SMOOTH"
);
}
);
width = 796;
},
{
anchors = (
{
name = bottom;
position = "{308, -30}";
},
{
name = center;
position = "{307, 400}";
},
{
name = ogonek;
position = "{538, 10}";
},
{
name = top;
position = "{308, 800}";
},
{
name = topleft;
position = "{38, 800}";
},
{
name = topright;
position = "{553, 790}";
}
);
layerId = "462F72A0-0500-4E69-A49B-6C2F2580580D";
paths = (
{
closed = 1;
nodes = (
"773 1 LINE SMOOTH",
"781 1 OFFCURVE",
"788 8 OFFCURVE",
"788 16 CURVE SMOOTH",
"788 218 LINE SMOOTH",
"788 226 OFFCURVE",
"781 233 OFFCURVE",
"773 233 CURVE SMOOTH",
"573 233 LINE",
"573 279 LINE",
"759 279 LINE SMOOTH",
"767 279 OFFCURVE",
"774 286 OFFCURVE",
"774 294 CURVE SMOOTH",
"774 487 LINE SMOOTH",
"774 495 OFFCURVE",
"767 502 OFFCURVE",
"759 502 CURVE SMOOTH",
"573 502 LINE",
"573 556 LINE",
"759 556 LINE SMOOTH",
"767 556 OFFCURVE",
"774 563 OFFCURVE",
"774 571 CURVE SMOOTH",
"774 785 LINE SMOOTH",
"774 793 OFFCURVE",
"767 800 OFFCURVE",
"759 800 CURVE SMOOTH",
"163 800 LINE SMOOTH",
"156 800 OFFCURVE",
"149 798 OFFCURVE",
"144 792 CURVE SMOOTH",
"34 678 LINE SMOOTH",
"29 672 OFFCURVE",
"27 666 OFFCURVE",
"27 659 CURVE SMOOTH",
"27 141 LINE SMOOTH",
"27 134 OFFCURVE",
"29 128 OFFCURVE",
"34 122 CURVE SMOOTH",
"144 8 LINE SMOOTH",
"149 2 OFFCURVE",
"156 0 OFFCURVE",
"163 0 CURVE SMOOTH"
);
},
{
closed = 1;
nodes = (
"287 226 OFFCURVE",
"275 238 OFFCURVE",
"275 260 CURVE SMOOTH",
"275 540 LINE SMOOTH",
"275 562 OFFCURVE",
"287 574 OFFCURVE",
"307 574 CURVE SMOOTH",
"327 574 OFFCURVE",
"339 562 OFFCURVE",
"339 540 CURVE SMOOTH",
"339 260 LINE SMOOTH",
"339 238 OFFCURVE",
"327 226 OFFCURVE",
"307 226 CURVE SMOOTH"
);
}
);
width = 804;
}
);
leftMetricsKey = "=O";
rightMetricsKey = "=E";
unicode = "0152,0153";
},
{
glyphname = P;
lastChange = "2023-09-15 18:02:23 +0000";
layers = (
{
anchors = (
{
name = bottom;
position = "{287, 0}";
},
{
name = top;
position = "{267, 800}";
}
);
guideLines = (
{
angle = 90;
position = "{304, 0}";
showMeasurement = 1;
}
);
layerId = "462F72A0-0500-4E69-A49B-6C2F2580580D";
paths = (
{
closed = 1;
nodes = (
"261 0 LINE SMOOTH",
"270 0 OFFCURVE",
"276 6 OFFCURVE",
"276 15 CURVE SMOOTH",
"276 198 LINE",
"411 198 LINE SMOOTH",
"418 198 OFFCURVE",
"424 200 OFFCURVE",
"429 206 CURVE SMOOTH",
"549 341 LINE SMOOTH",
"554 347 OFFCURVE",
"556 353 OFFCURVE",
"556 360 CURVE SMOOTH",
"556 649 LINE SMOOTH",
"556 656 OFFCURVE",
"554 662 OFFCURVE",
"548 667 CURVE SMOOTH",
"404 793 LINE SMOOTH",
"399 798 OFFCURVE",
"392 800 OFFCURVE",
"385 800 CURVE SMOOTH",
"45 800 LINE SMOOTH",
"36 800 OFFCURVE",
"30 794 OFFCURVE",
"30 785 CURVE SMOOTH",
"30 15 LINE SMOOTH",
"30 6 OFFCURVE",
"36 0 OFFCURVE",
"45 0 CURVE SMOOTH"
);
},
{
closed = 1;
nodes = (
"259 444 OFFCURVE",
"236 467 OFFCURVE",
"236 499 CURVE SMOOTH",
"236 531 OFFCURVE",
"259 554 OFFCURVE",
"291 554 CURVE SMOOTH",
"323 554 OFFCURVE",
"346 531 OFFCURVE",
"346 499 CURVE SMOOTH",
"346 467 OFFCURVE",
"323 444 OFFCURVE",
"291 444 CURVE SMOOTH"
);
}
);
width = 564;
},
{
anchors = (
{
name = bottom;
position = "{287, 0}";
},
{
name = top;
position = "{267, 800}";
}
);
associatedMasterId = "462F72A0-0500-4E69-A49B-6C2F2580580D";
layerId = "5ECDAB8A-5EC8-42C5-B82C-5708EE8BE47A";
name = "Jun 2 22, 03:01";
paths = (
{
closed = 1;
nodes = (
"259 0 LINE SMOOTH",
"267 0 OFFCURVE",
"274 7 OFFCURVE",
"274 15 CURVE SMOOTH",
"274 123 LINE SMOOTH",
"274 131 OFFCURVE",
"281 138 OFFCURVE",
"289 138 CURVE SMOOTH",
"434 138 LINE SMOOTH",
"438 138 OFFCURVE",
"443 140 OFFCURVE",
"445 143 CURVE SMOOTH",
"558 297 LINE SMOOTH",
"559 299 OFFCURVE",
"560 302 OFFCURVE",
"560 304 CURVE SMOOTH",
"560 629 LINE SMOOTH",
"560 631 OFFCURVE",
"559 633 OFFCURVE",
"557 636 CURVE SMOOTH",
"428 795 LINE SMOOTH",
"426 798 OFFCURVE",
"422 800 OFFCURVE",
"418 800 CURVE SMOOTH",
"47 800 LINE SMOOTH",
"39 800 OFFCURVE",
"32 793 OFFCURVE",
"32 785 CURVE SMOOTH",
"30 15 LINE SMOOTH",
"30 7 OFFCURVE",
"37 0 OFFCURVE",
"45 0 CURVE SMOOTH"
);
},
{
closed = 1;
nodes = (
"274 575 LINE",
"292 575 LINE SMOOTH",
"313 575 OFFCURVE",
"322 557 OFFCURVE",
"322 524 CURVE SMOOTH",
"322 386 LINE SMOOTH",
"322 355 OFFCURVE",
"309 338 OFFCURVE",
"292 338 CURVE SMOOTH",
"274 338 LINE"
);
}
);
width = 586;
},
{
anchors = (
{
name = bottom;
position = "{287, 0}";
},
{
name = top;
position = "{267, 800}";
}
);
associatedMasterId = "462F72A0-0500-4E69-A49B-6C2F2580580D";
layerId = "0022E35B-B556-43D3-9303-D60AF465B45B";
name = "Jun 3 22, 17:40";
paths = (
{
closed = 1;
nodes = (
"259 0 LINE SMOOTH",
"267 0 OFFCURVE",
"274 7 OFFCURVE",
"274 15 CURVE SMOOTH",
"274 123 LINE SMOOTH",
"274 131 OFFCURVE",
"281 138 OFFCURVE",
"289 138 CURVE SMOOTH",
"434 138 LINE SMOOTH",
"438 138 OFFCURVE",
"443 140 OFFCURVE",
"445 143 CURVE SMOOTH",
"558 297 LINE SMOOTH",
"559 299 OFFCURVE",
"560 302 OFFCURVE",
"560 304 CURVE SMOOTH",
"560 629 LINE SMOOTH",
"560 631 OFFCURVE",
"559 633 OFFCURVE",
"557 636 CURVE SMOOTH",
"428 795 LINE SMOOTH",
"426 798 OFFCURVE",
"422 800 OFFCURVE",
"418 800 CURVE SMOOTH",
"47 800 LINE SMOOTH",
"39 800 OFFCURVE",
"32 793 OFFCURVE",
"32 785 CURVE SMOOTH",
"30 15 LINE SMOOTH",
"30 7 OFFCURVE",
"37 0 OFFCURVE",
"45 0 CURVE SMOOTH"
);
},
{
closed = 1;
nodes = (
"284 338 OFFCURVE",
"272 350 OFFCURVE",
"272 372 CURVE SMOOTH",
"272 542 LINE SMOOTH",
"272 564 OFFCURVE",
"284 576 OFFCURVE",
"304 576 CURVE SMOOTH",
"324 576 OFFCURVE",
"336 564 OFFCURVE",
"336 542 CURVE SMOOTH",
"336 372 LINE SMOOTH",
"336 350 OFFCURVE",
"324 338 OFFCURVE",
"304 338 CURVE SMOOTH"
);
}
);
width = 586;
},
{
anchors = (
{
name = bottom;
position = "{287, 0}";
},
{
name = top;
position = "{267, 800}";
}
);
associatedMasterId = "462F72A0-0500-4E69-A49B-6C2F2580580D";
layerId = "172687C7-AB7E-4E18-8535-9C1AA72BD2F0";
name = "Jun 3 22, 17:45";
paths = (
{
closed = 1;
nodes = (
"259 0 LINE SMOOTH",
"267 0 OFFCURVE",
"274 7 OFFCURVE",
"274 15 CURVE SMOOTH",
"274 123 LINE SMOOTH",
"274 131 OFFCURVE",
"281 138 OFFCURVE",
"289 138 CURVE SMOOTH",
"434 138 LINE SMOOTH",
"438 138 OFFCURVE",
"443 140 OFFCURVE",
"445 143 CURVE SMOOTH",
"558 297 LINE SMOOTH",
"559 299 OFFCURVE",
"560 302 OFFCURVE",
"560 304 CURVE SMOOTH",
"560 629 LINE SMOOTH",
"560 631 OFFCURVE",
"559 633 OFFCURVE",
"557 636 CURVE SMOOTH",
"428 795 LINE SMOOTH",
"426 798 OFFCURVE",
"422 800 OFFCURVE",
"418 800 CURVE SMOOTH",
"47 800 LINE SMOOTH",
"39 800 OFFCURVE",
"32 793 OFFCURVE",
"32 785 CURVE SMOOTH",
"30 15 LINE SMOOTH",
"30 7 OFFCURVE",
"37 0 OFFCURVE",
"45 0 CURVE SMOOTH"
);
},
{
closed = 1;
nodes = (
"284 338 OFFCURVE",
"272 350 OFFCURVE",
"272 372 CURVE SMOOTH",
"272 542 LINE SMOOTH",
"272 564 OFFCURVE",
"284 576 OFFCURVE",
"304 576 CURVE SMOOTH",
"324 576 OFFCURVE",
"336 564 OFFCURVE",
"336 542 CURVE SMOOTH",
"336 372 LINE SMOOTH",
"336 350 OFFCURVE",
"324 338 OFFCURVE",
"304 338 CURVE SMOOTH"
);
}
);
width = 585;
},
{
anchors = (
{
name = bottom;
position = "{287, 0}";
},
{
name = top;
position = "{267, 800}";
}
);
associatedMasterId = "462F72A0-0500-4E69-A49B-6C2F2580580D";
guideLines = (
{
angle = 90;
position = "{304, 0}";
showMeasurement = 1;
}
);
layerId = "3EA6B3E1-7B84-4D05-AEE7-6861BB22467B";
name = "Jun 3 22, 17:46";
paths = (
{
closed = 1;
nodes = (
"259 0 LINE SMOOTH",
"267 0 OFFCURVE",
"274 7 OFFCURVE",
"274 15 CURVE SMOOTH",
"274 123 LINE SMOOTH",
"274 131 OFFCURVE",
"281 138 OFFCURVE",
"289 138 CURVE SMOOTH",
"442 138 LINE SMOOTH",
"446 138 OFFCURVE",
"451 140 OFFCURVE",
"453 143 CURVE SMOOTH",
"566 297 LINE SMOOTH",
"567 299 OFFCURVE",
"568 302 OFFCURVE",
"568 304 CURVE SMOOTH",
"568 629 LINE SMOOTH",
"568 631 OFFCURVE",
"567 633 OFFCURVE",
"565 636 CURVE SMOOTH",
"436 795 LINE SMOOTH",
"434 798 OFFCURVE",
"430 800 OFFCURVE",
"426 800 CURVE SMOOTH",
"45 800 LINE SMOOTH",
"37 800 OFFCURVE",
"30 793 OFFCURVE",
"30 785 CURVE SMOOTH",
"30 15 LINE SMOOTH",
"30 7 OFFCURVE",
"37 0 OFFCURVE",
"45 0 CURVE SMOOTH"
);
},
{
closed = 1;
nodes = (
"284 338 OFFCURVE",
"272 350 OFFCURVE",
"272 372 CURVE SMOOTH",
"272 542 LINE SMOOTH",
"272 564 OFFCURVE",
"284 576 OFFCURVE",
"304 576 CURVE SMOOTH",
"324 576 OFFCURVE",
"336 564 OFFCURVE",
"336 542 CURVE SMOOTH",
"336 372 LINE SMOOTH",
"336 350 OFFCURVE",
"324 338 OFFCURVE",
"304 338 CURVE SMOOTH"
);
}
);
width = 593;
},
{
anchors = (
{
name = bottom;
position = "{287, 0}";
},
{
name = top;
position = "{267, 800}";
}
);
associatedMasterId = "462F72A0-0500-4E69-A49B-6C2F2580580D";
guideLines = (
{
angle = 90;
position = "{304, 0}";
showMeasurement = 1;
}
);
layerId = "4870416C-9000-4C32-B517-E43DE8C91132";
name = _001;
paths = (
{
closed = 1;
nodes = (
"259 0 LINE SMOOTH",
"267 0 OFFCURVE",
"274 7 OFFCURVE",
"274 15 CURVE SMOOTH",
"274 123 LINE SMOOTH",
"274 131 OFFCURVE",
"281 138 OFFCURVE",
"289 138 CURVE SMOOTH",
"446 138 LINE SMOOTH",
"450 138 OFFCURVE",
"455 140 OFFCURVE",
"457 143 CURVE SMOOTH",
"570 297 LINE SMOOTH",
"571 299 OFFCURVE",
"572 302 OFFCURVE",
"572 304 CURVE SMOOTH",
"572 629 LINE SMOOTH",
"572 631 OFFCURVE",
"571 633 OFFCURVE",
"569 636 CURVE SMOOTH",
"440 795 LINE SMOOTH",
"438 798 OFFCURVE",
"434 800 OFFCURVE",
"430 800 CURVE SMOOTH",
"45 800 LINE SMOOTH",
"37 800 OFFCURVE",
"30 793 OFFCURVE",
"30 785 CURVE SMOOTH",
"30 15 LINE SMOOTH",
"30 7 OFFCURVE",
"37 0 OFFCURVE",
"45 0 CURVE SMOOTH"
);
},
{
closed = 1;
nodes = (
"284 364 OFFCURVE",
"272 376 OFFCURVE",
"272 398 CURVE SMOOTH",
"272 540 LINE SMOOTH",
"272 562 OFFCURVE",
"284 574 OFFCURVE",
"304 574 CURVE SMOOTH",
"324 574 OFFCURVE",
"336 562 OFFCURVE",
"336 540 CURVE SMOOTH",
"336 398 LINE SMOOTH",
"336 376 OFFCURVE",
"324 364 OFFCURVE",
"304 364 CURVE SMOOTH"
);
}
);
width = 597;
},
{
anchors = (
{
name = bottom;
position = "{287, 0}";
},
{
name = top;
position = "{267, 800}";
}
);
associatedMasterId = "462F72A0-0500-4E69-A49B-6C2F2580580D";
guideLines = (
{
angle = 90;
position = "{304, 0}";
showMeasurement = 1;
}
);
layerId = "8F5245DC-F2C5-4B74-87E2-D1A7F9398E0A";
name = Round;
paths = (
{
closed = 1;
nodes = (
"411 794 OFFCURVE",
"417 800 OFFCURVE",
"427 800 CURVE SMOOTH",
"437 800 OFFCURVE",
"443 794 OFFCURVE",
"443 784 CURVE SMOOTH",
"443 774 OFFCURVE",
"437 768 OFFCURVE",
"427 768 CURVE SMOOTH",
"417 768 OFFCURVE",
"411 774 OFFCURVE",
"411 784 CURVE SMOOTH"
);
},
{
closed = 1;
nodes = (
"540 636 OFFCURVE",
"546 642 OFFCURVE",
"556 642 CURVE SMOOTH",
"566 642 OFFCURVE",
"572 636 OFFCURVE",
"572 626 CURVE SMOOTH",
"572 616 OFFCURVE",
"566 610 OFFCURVE",
"556 610 CURVE SMOOTH",
"546 610 OFFCURVE",
"540 616 OFFCURVE",
"540 626 CURVE SMOOTH"
);
}
);
visible = 1;
width = 597;
},
{
anchors = (
{
name = bottom;
position = "{287, 0}";
},
{
name = top;
position = "{267, 800}";
}
);
associatedMasterId = "462F72A0-0500-4E69-A49B-6C2F2580580D";
guideLines = (
{
angle = 90;
position = "{304, 0}";
showMeasurement = 1;
}
);
layerId = "E8623457-7356-4AF3-AE62-4CA725C3C774";
name = "Jul 29 22, 20:28";
paths = (
{
closed = 1;
nodes = (
"258 0 LINE SMOOTH",
"268 0 OFFCURVE",
"274 6 OFFCURVE",
"274 16 CURVE SMOOTH",
"274 122 LINE SMOOTH",
"274 132 OFFCURVE",
"280 138 OFFCURVE",
"290 138 CURVE SMOOTH",
"426 138 LINE SMOOTH",
"434 138 OFFCURVE",
"438 140 OFFCURVE",
"442 145 CURVE SMOOTH",
"568 299 LINE SMOOTH",
"571 303 OFFCURVE",
"572 306 OFFCURVE",
"572 312 CURVE SMOOTH",
"572 626 LINE SMOOTH",
"572 632 OFFCURVE",
"571 635 OFFCURVE",
"568 639 CURVE SMOOTH",
"442 793 LINE SMOOTH",
"438 798 OFFCURVE",
"434 800 OFFCURVE",
"426 800 CURVE SMOOTH",
"46 800 LINE SMOOTH",
"36 800 OFFCURVE",
"30 794 OFFCURVE",
"30 784 CURVE SMOOTH",
"30 16 LINE SMOOTH",
"30 6 OFFCURVE",
"36 0 OFFCURVE",
"46 0 CURVE SMOOTH"
);
},
{
closed = 1;
nodes = (
"284 364 OFFCURVE",
"272 376 OFFCURVE",
"272 398 CURVE SMOOTH",
"272 540 LINE SMOOTH",
"272 562 OFFCURVE",
"284 574 OFFCURVE",
"304 574 CURVE SMOOTH",
"324 574 OFFCURVE",
"336 562 OFFCURVE",
"336 540 CURVE SMOOTH",
"336 398 LINE SMOOTH",
"336 376 OFFCURVE",
"324 364 OFFCURVE",
"304 364 CURVE SMOOTH"
);
}
);
width = 597;
},
{
anchors = (
{
name = bottom;
position = "{287, 0}";
},
{
name = top;
position = "{267, 800}";
}
);
associatedMasterId = "462F72A0-0500-4E69-A49B-6C2F2580580D";
guideLines = (
{
angle = 90;
position = "{304, 0}";
showMeasurement = 1;
}
);
layerId = "17F0027F-B1DD-4347-A5C4-466605FAC0B4";
name = "Jul 30 22, 02:16";
paths = (
{
closed = 1;
nodes = (
"258 0 LINE SMOOTH",
"268 0 OFFCURVE",
"274 6 OFFCURVE",
"274 16 CURVE SMOOTH",
"274 122 LINE SMOOTH",
"274 132 OFFCURVE",
"280 138 OFFCURVE",
"290 138 CURVE SMOOTH",
"426 138 LINE SMOOTH",
"434 138 OFFCURVE",
"438 140 OFFCURVE",
"442 145 CURVE SMOOTH",
"568 279 LINE SMOOTH",
"571 283 OFFCURVE",
"572 286 OFFCURVE",
"572 292 CURVE SMOOTH",
"572 646 LINE SMOOTH",
"572 652 OFFCURVE",
"571 655 OFFCURVE",
"568 659 CURVE SMOOTH",
"442 793 LINE SMOOTH",
"438 798 OFFCURVE",
"434 800 OFFCURVE",
"426 800 CURVE SMOOTH",
"46 800 LINE SMOOTH",
"36 800 OFFCURVE",
"30 794 OFFCURVE",
"30 784 CURVE SMOOTH",
"30 16 LINE SMOOTH",
"30 6 OFFCURVE",
"36 0 OFFCURVE",
"46 0 CURVE SMOOTH"
);
},
{
closed = 1;
nodes = (
"284 364 OFFCURVE",
"272 376 OFFCURVE",
"272 398 CURVE SMOOTH",
"272 540 LINE SMOOTH",
"272 562 OFFCURVE",
"284 574 OFFCURVE",
"304 574 CURVE SMOOTH",
"324 574 OFFCURVE",
"336 562 OFFCURVE",
"336 540 CURVE SMOOTH",
"336 398 LINE SMOOTH",
"336 376 OFFCURVE",
"324 364 OFFCURVE",
"304 364 CURVE SMOOTH"
);
}
);
width = 597;
}
);
leftMetricsKey = "=H";
unicode = 0050;
},
{
glyphname = Thorn;
lastChange = "2023-09-15 18:02:23 +0000";
layers = (
{
anchors = (
{
name = bottom;
position = "{319, -30}";
},
{
name = center;
position = "{319, 400}";
},
{
name = ogonek;
position = "{550, 10}";
},
{
name = top;
position = "{319, 800}";
},
{
name = topleft;
position = "{50, 800}";
},
{
name = topright;
position = "{565, 800}";
}
);
layerId = "462F72A0-0500-4E69-A49B-6C2F2580580D";
paths = (
{
closed = 1;
nodes = (
"245 0 LINE SMOOTH",
"255 0 OFFCURVE",
"261 6 OFFCURVE",
"261 16 CURVE SMOOTH",
"261 193 LINE",
"221 153 LINE",
"420 153 LINE SMOOTH",
"429 153 OFFCURVE",
"433 154 OFFCURVE",
"438 160 CURVE SMOOTH",
"525 250 LINE SMOOTH",
"529 254 OFFCURVE",
"530 259 OFFCURVE",
"530 266 CURVE SMOOTH",
"530 517 LINE SMOOTH",
"530 524 OFFCURVE",
"529 529 OFFCURVE",
"525 533 CURVE SMOOTH",
"438 623 LINE SMOOTH",
"433 629 OFFCURVE",
"429 630 OFFCURVE",
"420 630 CURVE SMOOTH",
"221 630 LINE",
"261 590 LINE",
"261 784 LINE SMOOTH",
"261 794 OFFCURVE",
"255 800 OFFCURVE",
"245 800 CURVE SMOOTH",
"46 800 LINE SMOOTH",
"36 800 OFFCURVE",
"30 794 OFFCURVE",
"30 784 CURVE SMOOTH",
"30 16 LINE SMOOTH",
"30 6 OFFCURVE",
"36 0 OFFCURVE",
"46 0 CURVE SMOOTH"
);
},
{
closed = 1;
nodes = (
"255 342 OFFCURVE",
"231 366 OFFCURVE",
"231 400 CURVE SMOOTH",
"231 434 OFFCURVE",
"255 458 OFFCURVE",
"289 458 CURVE SMOOTH",
"323 458 OFFCURVE",
"347 434 OFFCURVE",
"347 400 CURVE SMOOTH",
"347 366 OFFCURVE",
"323 342 OFFCURVE",
"289 342 CURVE SMOOTH"
);
}
);
width = 548;
},
{
anchors = (
{
name = bottom;
position = "{319, -30}";
},
{
name = center;
position = "{319, 400}";
},
{
name = ogonek;
position = "{550, 10}";
},
{
name = top;
position = "{319, 800}";
},
{
name = topleft;
position = "{50, 800}";
},
{
name = topright;
position = "{565, 800}";
}
);
associatedMasterId = "462F72A0-0500-4E69-A49B-6C2F2580580D";
layerId = "54830B6E-5819-459B-829D-D85F644DE33D";
name = Original;
paths = (
{
closed = 1;
nodes = (
"523 236 LINE SMOOTH",
"528 240 OFFCURVE",
"530 244 OFFCURVE",
"530 250 CURVE SMOOTH",
"530 519 LINE SMOOTH",
"530 525 OFFCURVE",
"528 530 OFFCURVE",
"524 535 CURVE SMOOTH",
"437 625 LINE SMOOTH",
"433 630 OFFCURVE",
"427 631 OFFCURVE",
"421 631 CURVE SMOOTH",
"275 631 LINE SMOOTH",
"270 631 OFFCURVE",
"264 630 OFFCURVE",
"260 625 CURVE SMOOTH",
"173 535 LINE SMOOTH",
"169 530 OFFCURVE",
"167 525 OFFCURVE",
"167 519 CURVE SMOOTH",
"167 250 LINE SMOOTH",
"167 244 OFFCURVE",
"169 240 OFFCURVE",
"173 236 CURVE SMOOTH",
"260 160 LINE SMOOTH",
"264 156 OFFCURVE",
"270 155 OFFCURVE",
"275 155 CURVE SMOOTH",
"421 155 LINE SMOOTH",
"427 155 OFFCURVE",
"433 156 OFFCURVE",
"437 160 CURVE SMOOTH"
);
},
{
closed = 1;
nodes = (
"30 15 LINE SMOOTH",
"30 6 OFFCURVE",
"36 0 OFFCURVE",
"45 0 CURVE SMOOTH",
"246 0 LINE SMOOTH",
"255 0 OFFCURVE",
"261 6 OFFCURVE",
"261 15 CURVE SMOOTH",
"261 311 LINE",
"201 407 LINE",
"261 511 LINE",
"261 785 LINE SMOOTH",
"261 794 OFFCURVE",
"255 800 OFFCURVE",
"246 800 CURVE SMOOTH",
"45 800 LINE SMOOTH",
"36 800 OFFCURVE",
"30 794 OFFCURVE",
"30 785 CURVE SMOOTH"
);
},
{
closed = 1;
nodes = (
"256 339 OFFCURVE",
"229 366 OFFCURVE",
"229 399 CURVE SMOOTH",
"229 433 OFFCURVE",
"256 460 OFFCURVE",
"290 460 CURVE SMOOTH",
"323 460 OFFCURVE",
"350 433 OFFCURVE",
"350 399 CURVE SMOOTH",
"350 366 OFFCURVE",
"323 339 OFFCURVE",
"290 339 CURVE SMOOTH"
);
}
);
width = 540;
}
);
leftMetricsKey = "=H";
unicode = "00DE,00FE";
},
{
glyphname = Pstroke;
lastChange = "2023-09-15 18:00:30 +0000";
layers = (
{
components = (
{
alignment = -1;
name = P;
transform = "{1, 0, 0, 1, 2, 0}";
}
);
layerId = "462F72A0-0500-4E69-A49B-6C2F2580580D";
paths = (
{
closed = 1;
nodes = (
"251 449 LINE",
"251 469 LINE",
"336 469 LINE",
"336 449 LINE",
"581 449 LINE SMOOTH",
"589 449 OFFCURVE",
"595 455 OFFCURVE",
"595 463 CURVE SMOOTH",
"595 535 LINE SMOOTH",
"595 543 OFFCURVE",
"589 549 OFFCURVE",
"581 549 CURVE SMOOTH",
"336 549 LINE",
"336 529 LINE",
"251 529 LINE",
"251 549 LINE",
"-1 549 LINE SMOOTH",
"-9 549 OFFCURVE",
"-15 543 OFFCURVE",
"-15 535 CURVE SMOOTH",
"-15 463 LINE SMOOTH",
"-15 455 OFFCURVE",
"-9 449 OFFCURVE",
"-1 449 CURVE SMOOTH"
);
}
);
width = 601;
},
{
associatedMasterId = "462F72A0-0500-4E69-A49B-6C2F2580580D";
components = (
{
alignment = -1;
name = P;
transform = "{1, 0, 0, 1, -2, 0}";
}
);
layerId = "275DBF89-B440-4AEE-B7D5-D712BDE00971";
name = Original;
width = 555;
},
{
associatedMasterId = "462F72A0-0500-4E69-A49B-6C2F2580580D";
components = (
{
alignment = -1;
name = P;
transform = "{1, 0, 0, 1, 2, 0}";
}
);
layerId = "85265DCF-B806-48A5-8EFE-921F39D7086A";
name = V1;
paths = (
{
closed = 1;
nodes = (
"594 425 LINE SMOOTH",
"602 425 OFFCURVE",
"608 431 OFFCURVE",
"608 439 CURVE SMOOTH",
"608 499 LINE SMOOTH",
"608 507 OFFCURVE",
"602 513 OFFCURVE",
"594 513 CURVE SMOOTH",
"12 513 LINE SMOOTH",
"4 513 OFFCURVE",
"-2 507 OFFCURVE",
"-2 499 CURVE SMOOTH",
"-2 439 LINE SMOOTH",
"-2 431 OFFCURVE",
"4 425 OFFCURVE",
"12 425 CURVE SMOOTH"
);
}
);
width = 601;
}
);
unicode = "2C63,1D7D";
},
{
glyphname = Q;
lastChange = "2023-05-20 14:37:02 +0000";
layers = (
{
layerId = "462F72A0-0500-4E69-A49B-6C2F2580580D";
paths = (
{
closed = 1;
nodes = (
"575 102 LINE SMOOTH",
"581 107 OFFCURVE",
"583 113 OFFCURVE",
"583 120 CURVE SMOOTH",
"583 661 LINE SMOOTH",
"583 668 OFFCURVE",
"581 674 OFFCURVE",
"576 680 CURVE SMOOTH",
"466 794 LINE SMOOTH",
"461 800 OFFCURVE",
"454 802 OFFCURVE",
"447 802 CURVE SMOOTH",
"163 802 LINE SMOOTH",
"156 802 OFFCURVE",
"149 800 OFFCURVE",
"144 794 CURVE SMOOTH",
"34 680 LINE SMOOTH",
"29 674 OFFCURVE",
"27 668 OFFCURVE",
"27 661 CURVE SMOOTH",
"27 120 LINE SMOOTH",
"27 113 OFFCURVE",
"29 107 OFFCURVE",
"35 102 CURVE SMOOTH",
"144 7 LINE SMOOTH",
"149 2 OFFCURVE",
"156 0 OFFCURVE",
"163 0 CURVE SMOOTH",
"447 0 LINE SMOOTH",
"454 0 OFFCURVE",
"461 2 OFFCURVE",
"466 7 CURVE SMOOTH"
);
},
{
closed = 1;
nodes = (
"327 575 OFFCURVE",
"336 562 OFFCURVE",
"336 543 CURVE SMOOTH",
"336 252 LINE SMOOTH",
"336 240 OFFCURVE",
"323 228 OFFCURVE",
"306 228 CURVE SMOOTH",
"286 228 OFFCURVE",
"275 240 OFFCURVE",
"275 252 CURVE SMOOTH",
"275 543 LINE SMOOTH",
"275 562 OFFCURVE",
"286 575 OFFCURVE",
"306 575 CURVE SMOOTH"
);
},
{
closed = 1;
nodes = (
"390 -100 LINE SMOOTH",
"402 -100 OFFCURVE",
"411 -89 OFFCURVE",
"407 -77 CURVE SMOOTH",
"381 0 LINE",
"218 0 LINE",
"218 -85 LINE SMOOTH",
"218 -93 OFFCURVE",
"225 -100 OFFCURVE",
"233 -100 CURVE SMOOTH"
);
}
);
width = 610;
}
);
leftMetricsKey = O;
rightMetricsKey = O;
unicode = 0051;
},
{
glyphname = R;
lastChange = "2023-05-24 12:10:30 +0000";
layers = (
{
anchors = (
{
name = bottom;
position = "{296, -30}";
},
{
name = top;
position = "{256, 800}";
}
);
associatedMasterId = "462F72A0-0500-4E69-A49B-6C2F2580580D";
layerId = "AF638800-35F8-4ACC-B725-7B5D7F0EAF08";
name = "Jun 2 22, 02:58";
paths = (
{
closed = 1;
nodes = (
"27 800 OFFCURVE",
"21 794 OFFCURVE",
"21 785 CURVE SMOOTH",
"21 15 LINE SMOOTH",
"21 6 OFFCURVE",
"27 0 OFFCURVE",
"36 0 CURVE SMOOTH",
"254 0 LINE SMOOTH",
"263 0 OFFCURVE",
"269 6 OFFCURVE",
"269 15 CURVE SMOOTH",
"269 233 LINE",
"283 233 LINE",
"341 12 LINE SMOOTH",
"343 4 OFFCURVE",
"351 0 OFFCURVE",
"359 0 CURVE SMOOTH",
"569 0 LINE SMOOTH",
"578 0 OFFCURVE",
"584 6 OFFCURVE",
"584 15 CURVE SMOOTH",
"584 216 LINE SMOOTH",
"584 223 OFFCURVE",
"581 229 OFFCURVE",
"576 235 CURVE SMOOTH",
"480 350 LINE",
"480 384 LINE",
"564 463 LINE SMOOTH",
"571 469 OFFCURVE",
"574 473 OFFCURVE",
"574 481 CURVE SMOOTH",
"574 649 LINE SMOOTH",
"574 656 OFFCURVE",
"572 662 OFFCURVE",
"566 667 CURVE SMOOTH",
"422 793 LINE SMOOTH",
"417 798 OFFCURVE",
"410 800 OFFCURVE",
"403 800 CURVE SMOOTH",
"36 800 LINE SMOOTH"
);
},
{
closed = 1;
nodes = (
"249 460 OFFCURVE",
"231 485 OFFCURVE",
"231 515 CURVE SMOOTH",
"231 545 OFFCURVE",
"249 570 OFFCURVE",
"279 570 CURVE SMOOTH",
"309 570 OFFCURVE",
"334 545 OFFCURVE",
"334 515 CURVE SMOOTH",
"334 485 OFFCURVE",
"309 460 OFFCURVE",
"279 460 CURVE SMOOTH"
);
}
);
width = 580;
},
{
anchors = (
{
name = bottom;
position = "{301, -30}";
},
{
name = top;
position = "{261, 800}";
}
);
associatedMasterId = "462F72A0-0500-4E69-A49B-6C2F2580580D";
layerId = "B9528265-754A-48A9-9B70-B3AD385321AF";
name = "Jun 2 22, 03:20";
paths = (
{
closed = 1;
nodes = (
"259 0 LINE SMOOTH",
"268 0 OFFCURVE",
"274 6 OFFCURVE",
"274 15 CURVE SMOOTH",
"274 233 LINE",
"288 233 LINE",
"346 12 LINE SMOOTH",
"348 4 OFFCURVE",
"356 0 OFFCURVE",
"364 0 CURVE SMOOTH",
"574 0 LINE SMOOTH",
"583 0 OFFCURVE",
"589 6 OFFCURVE",
"589 15 CURVE SMOOTH",
"589 216 LINE SMOOTH",
"589 223 OFFCURVE",
"586 229 OFFCURVE",
"581 235 CURVE SMOOTH",
"485 350 LINE",
"485 384 LINE",
"568 463 LINE SMOOTH",
"575 469 OFFCURVE",
"578 473 OFFCURVE",
"578 481 CURVE SMOOTH",
"578 646 LINE SMOOTH",
"578 657 OFFCURVE",
"577 660 OFFCURVE",
"568 668 CURVE SMOOTH",
"430 792 LINE SMOOTH",
"423 798 OFFCURVE",
"417 800 OFFCURVE",
"406 800 CURVE SMOOTH",
"45 800 LINE SMOOTH",
"36 800 OFFCURVE",
"30 794 OFFCURVE",
"30 785 CURVE SMOOTH",
"30 15 LINE SMOOTH",
"30 6 OFFCURVE",
"36 0 OFFCURVE",
"45 0 CURVE SMOOTH"
);
},
{
closed = 1;
nodes = (
"259 460 OFFCURVE",
"236 483 OFFCURVE",
"236 515 CURVE SMOOTH",
"236 547 OFFCURVE",
"259 570 OFFCURVE",
"291 570 CURVE SMOOTH",
"323 570 OFFCURVE",
"346 547 OFFCURVE",
"346 515 CURVE SMOOTH",
"346 483 OFFCURVE",
"323 460 OFFCURVE",
"291 460 CURVE SMOOTH"
);
}
);
width = 597;
},
{
anchors = (
{
name = bottom;
position = "{301, -30}";
},
{
name = top;
position = "{261, 800}";
}
);
associatedMasterId = "462F72A0-0500-4E69-A49B-6C2F2580580D";
layerId = "72750E73-5F28-4E8C-A1F6-B2DE7FF6F472";
name = "Jun 3 22, 18:40";
paths = (
{
closed = 1;
nodes = (
"259 0 LINE SMOOTH",
"268 0 OFFCURVE",
"274 6 OFFCURVE",
"274 15 CURVE SMOOTH",
"274 233 LINE",
"288 233 LINE",
"346 12 LINE SMOOTH",
"348 4 OFFCURVE",
"356 0 OFFCURVE",
"364 0 CURVE SMOOTH",
"574 0 LINE SMOOTH",
"583 0 OFFCURVE",
"589 6 OFFCURVE",
"589 15 CURVE SMOOTH",
"589 162 LINE SMOOTH",
"589 170 OFFCURVE",
"588 174 OFFCURVE",
"583 182 CURVE SMOOTH",
"485 350 LINE",
"485 384 LINE",
"568 463 LINE SMOOTH",
"575 469 OFFCURVE",
"578 473 OFFCURVE",
"578 481 CURVE SMOOTH",
"578 644 LINE SMOOTH",
"578 657 OFFCURVE",
"577 660 OFFCURVE",
"568 668 CURVE SMOOTH",
"430 792 LINE SMOOTH",
"423 798 OFFCURVE",
"417 800 OFFCURVE",
"406 800 CURVE SMOOTH",
"45 800 LINE SMOOTH",
"36 800 OFFCURVE",
"30 794 OFFCURVE",
"30 785 CURVE SMOOTH",
"30 15 LINE SMOOTH",
"30 6 OFFCURVE",
"36 0 OFFCURVE",
"45 0 CURVE SMOOTH"
);
},
{
closed = 1;
nodes = (
"259 437 OFFCURVE",
"235 461 OFFCURVE",
"235 495 CURVE SMOOTH",
"235 529 OFFCURVE",
"259 553 OFFCURVE",
"293 553 CURVE SMOOTH",
"327 553 OFFCURVE",
"351 529 OFFCURVE",
"351 495 CURVE SMOOTH",
"351 461 OFFCURVE",
"327 437 OFFCURVE",
"293 437 CURVE SMOOTH"
);
}
);
width = 597;
},
{
anchors = (
{
name = bottom;
position = "{301, -30}";
},
{
name = top;
position = "{261, 800}";
}
);
associatedMasterId = "462F72A0-0500-4E69-A49B-6C2F2580580D";
guideLines = (
{
angle = 90;
position = "{291, 0}";
showMeasurement = 1;
}
);
layerId = "6974F1C5-9481-4341-A955-917EF2096B08";
name = "Jun 3 22, 18:54";
paths = (
{
closed = 1;
nodes = (
"259 0 LINE SMOOTH",
"268 0 OFFCURVE",
"274 6 OFFCURVE",
"274 15 CURVE SMOOTH",
"274 233 LINE",
"288 233 LINE",
"346 12 LINE SMOOTH",
"348 4 OFFCURVE",
"356 0 OFFCURVE",
"364 0 CURVE SMOOTH",
"574 0 LINE SMOOTH",
"583 0 OFFCURVE",
"589 6 OFFCURVE",
"589 15 CURVE SMOOTH",
"589 162 LINE SMOOTH",
"589 170 OFFCURVE",
"588 174 OFFCURVE",
"583 182 CURVE SMOOTH",
"485 350 LINE",
"485 384 LINE",
"568 463 LINE SMOOTH",
"575 469 OFFCURVE",
"578 473 OFFCURVE",
"578 481 CURVE SMOOTH",
"578 644 LINE SMOOTH",
"578 657 OFFCURVE",
"577 660 OFFCURVE",
"568 668 CURVE SMOOTH",
"430 792 LINE SMOOTH",
"423 798 OFFCURVE",
"417 800 OFFCURVE",
"406 800 CURVE SMOOTH",
"45 800 LINE SMOOTH",
"36 800 OFFCURVE",
"30 794 OFFCURVE",
"30 785 CURVE SMOOTH",
"30 15 LINE SMOOTH",
"30 6 OFFCURVE",
"36 0 OFFCURVE",
"45 0 CURVE SMOOTH"
);
},
{
closed = 1;
nodes = (
"259 460 OFFCURVE",
"236 483 OFFCURVE",
"236 515 CURVE SMOOTH",
"236 547 OFFCURVE",
"259 570 OFFCURVE",
"291 570 CURVE SMOOTH",
"323 570 OFFCURVE",
"346 547 OFFCURVE",
"346 515 CURVE SMOOTH",
"346 483 OFFCURVE",
"323 460 OFFCURVE",
"291 460 CURVE SMOOTH"
);
}
);
width = 597;
},
{
anchors = (
{
name = bottom;
position = "{301, -30}";
},
{
name = top;
position = "{261, 800}";
}
);
associatedMasterId = "462F72A0-0500-4E69-A49B-6C2F2580580D";
guideLines = (
{
angle = 90;
position = "{291, 0}";
showMeasurement = 1;
}
);
layerId = "7525FFA4-9F5B-4C8C-BD27-BDE459A613CD";
name = "Jun 3 22, 20:15";
paths = (
{
closed = 1;
nodes = (
"259 0 LINE SMOOTH",
"268 0 OFFCURVE",
"274 6 OFFCURVE",
"274 15 CURVE SMOOTH",
"274 233 LINE",
"288 233 LINE",
"346 12 LINE SMOOTH",
"348 4 OFFCURVE",
"356 0 OFFCURVE",
"364 0 CURVE SMOOTH",
"574 0 LINE SMOOTH",
"583 0 OFFCURVE",
"589 6 OFFCURVE",
"589 15 CURVE SMOOTH",
"589 162 LINE SMOOTH",
"589 170 OFFCURVE",
"588 174 OFFCURVE",
"583 182 CURVE SMOOTH",
"485 350 LINE",
"485 384 LINE",
"568 463 LINE SMOOTH",
"575 469 OFFCURVE",
"578 473 OFFCURVE",
"578 481 CURVE SMOOTH",
"578 644 LINE SMOOTH",
"578 657 OFFCURVE",
"577 660 OFFCURVE",
"568 668 CURVE SMOOTH",
"430 792 LINE SMOOTH",
"423 798 OFFCURVE",
"417 800 OFFCURVE",
"406 800 CURVE SMOOTH",
"45 800 LINE SMOOTH",
"36 800 OFFCURVE",
"30 794 OFFCURVE",
"30 785 CURVE SMOOTH",
"30 15 LINE SMOOTH",
"30 6 OFFCURVE",
"36 0 OFFCURVE",
"45 0 CURVE SMOOTH"
);
},
{
closed = 1;
nodes = (
"259 484 OFFCURVE",
"236 507 OFFCURVE",
"236 539 CURVE SMOOTH",
"236 571 OFFCURVE",
"259 594 OFFCURVE",
"291 594 CURVE SMOOTH",
"323 594 OFFCURVE",
"346 571 OFFCURVE",
"346 539 CURVE SMOOTH",
"346 507 OFFCURVE",
"323 484 OFFCURVE",
"291 484 CURVE SMOOTH"
);
}
);
width = 597;
},
{
anchors = (
{
name = bottom;
position = "{301, -30}";
},
{
name = top;
position = "{261, 800}";
}
);
associatedMasterId = "462F72A0-0500-4E69-A49B-6C2F2580580D";
guideLines = (
{
angle = 90;
position = "{291, 0}";
showMeasurement = 1;
},
{
position = "{0, 539}";
showMeasurement = 1;
}
);
layerId = "5FD4876D-AC27-4393-9540-2F7274C9B336";
name = _001;
paths = (
{
closed = 1;
nodes = (
"259 0 LINE SMOOTH",
"268 0 OFFCURVE",
"274 6 OFFCURVE",
"274 15 CURVE SMOOTH",
"274 233 LINE",
"288 233 LINE",
"346 12 LINE SMOOTH",
"348 4 OFFCURVE",
"356 0 OFFCURVE",
"364 0 CURVE SMOOTH",
"574 0 LINE SMOOTH",
"583 0 OFFCURVE",
"589 7 OFFCURVE",
"589 15 CURVE SMOOTH",
"589 163 LINE SMOOTH",
"589 173 OFFCURVE",
"588 179 OFFCURVE",
"584 186 CURVE SMOOTH",
"485 362 LINE",
"485 384 LINE",
"568 463 LINE SMOOTH",
"575 469 OFFCURVE",
"578 473 OFFCURVE",
"578 481 CURVE SMOOTH",
"578 644 LINE SMOOTH",
"578 657 OFFCURVE",
"577 660 OFFCURVE",
"568 668 CURVE SMOOTH",
"430 792 LINE SMOOTH",
"423 798 OFFCURVE",
"417 800 OFFCURVE",
"406 800 CURVE SMOOTH",
"45 800 LINE SMOOTH",
"36 800 OFFCURVE",
"30 794 OFFCURVE",
"30 785 CURVE SMOOTH",
"30 15 LINE SMOOTH",
"30 6 OFFCURVE",
"36 0 OFFCURVE",
"45 0 CURVE SMOOTH"
);
},
{
closed = 1;
nodes = (
"259 484 OFFCURVE",
"236 507 OFFCURVE",
"236 539 CURVE SMOOTH",
"236 571 OFFCURVE",
"259 594 OFFCURVE",
"291 594 CURVE SMOOTH",
"323 594 OFFCURVE",
"346 571 OFFCURVE",
"346 539 CURVE SMOOTH",
"346 507 OFFCURVE",
"323 484 OFFCURVE",
"291 484 CURVE SMOOTH"
);
}
);
width = 597;
},
{
anchors = (
{
name = bottom;
position = "{301, -30}";
},
{
name = top;
position = "{261, 800}";
}
);
associatedMasterId = "462F72A0-0500-4E69-A49B-6C2F2580580D";
guideLines = (
{
angle = 90;
position = "{291, 0}";
showMeasurement = 1;
},
{
position = "{0, 539}";
showMeasurement = 1;
}
);
layerId = "AE7AD3BF-9F1D-41B1-A701-24F51E48BB3E";
name = "Jul 29 22, 23:57";
paths = (
{
closed = 1;
nodes = (
"259 0 LINE SMOOTH",
"268 0 OFFCURVE",
"274 6 OFFCURVE",
"274 15 CURVE SMOOTH",
"274 203 LINE",
"306 203 LINE",
"386 12 LINE SMOOTH",
"389 4 OFFCURVE",
"396 0 OFFCURVE",
"404 0 CURVE SMOOTH",
"574 0 LINE SMOOTH",
"583 0 OFFCURVE",
"589 7 OFFCURVE",
"589 15 CURVE SMOOTH",
"589 133 LINE SMOOTH",
"589 143 OFFCURVE",
"587 149 OFFCURVE",
"584 156 CURVE SMOOTH",
"485 362 LINE",
"485 384 LINE",
"568 463 LINE SMOOTH",
"575 469 OFFCURVE",
"578 473 OFFCURVE",
"578 481 CURVE SMOOTH",
"578 644 LINE SMOOTH",
"578 657 OFFCURVE",
"577 660 OFFCURVE",
"568 668 CURVE SMOOTH",
"430 792 LINE SMOOTH",
"423 798 OFFCURVE",
"417 800 OFFCURVE",
"406 800 CURVE SMOOTH",
"45 800 LINE SMOOTH",
"36 800 OFFCURVE",
"30 794 OFFCURVE",
"30 785 CURVE SMOOTH",
"30 15 LINE SMOOTH",
"30 6 OFFCURVE",
"36 0 OFFCURVE",
"45 0 CURVE SMOOTH"
);
},
{
closed = 1;
nodes = (
"259 484 OFFCURVE",
"236 507 OFFCURVE",
"236 539 CURVE SMOOTH",
"236 571 OFFCURVE",
"259 594 OFFCURVE",
"291 594 CURVE SMOOTH",
"323 594 OFFCURVE",
"346 571 OFFCURVE",
"346 539 CURVE SMOOTH",
"346 507 OFFCURVE",
"323 484 OFFCURVE",
"291 484 CURVE SMOOTH"
);
}
);
width = 597;
},
{
anchors = (
{
name = bottom;
position = "{301, -30}";
},
{
name = top;
position = "{261, 800}";
}
);
associatedMasterId = "462F72A0-0500-4E69-A49B-6C2F2580580D";
guideLines = (
{
angle = 90;
position = "{291, 0}";
showMeasurement = 1;
},
{
position = "{0, 539}";
showMeasurement = 1;
}
);
layerId = "A5A068D8-9EFC-43A3-B8A9-8DE79F423F2B";
name = "Jul 30 22, 01:57";
paths = (
{
closed = 1;
nodes = (
"259 0 LINE SMOOTH",
"268 0 OFFCURVE",
"274 6 OFFCURVE",
"274 15 CURVE SMOOTH",
"274 223 LINE",
"284 223 LINE",
"366 12 LINE SMOOTH",
"369 4 OFFCURVE",
"376 0 OFFCURVE",
"384 0 CURVE SMOOTH",
"574 0 LINE SMOOTH",
"583 0 OFFCURVE",
"589 7 OFFCURVE",
"589 15 CURVE SMOOTH",
"589 131 LINE SMOOTH",
"589 141 OFFCURVE",
"587 147 OFFCURVE",
"584 154 CURVE SMOOTH",
"485 352 LINE",
"485 394 LINE",
"568 463 LINE SMOOTH",
"575 469 OFFCURVE",
"578 473 OFFCURVE",
"578 481 CURVE SMOOTH",
"578 644 LINE SMOOTH",
"578 657 OFFCURVE",
"577 660 OFFCURVE",
"568 668 CURVE SMOOTH",
"430 792 LINE SMOOTH",
"423 798 OFFCURVE",
"417 800 OFFCURVE",
"406 800 CURVE SMOOTH",
"45 800 LINE SMOOTH",
"36 800 OFFCURVE",
"30 794 OFFCURVE",
"30 785 CURVE SMOOTH",
"30 15 LINE SMOOTH",
"30 6 OFFCURVE",
"36 0 OFFCURVE",
"45 0 CURVE SMOOTH"
);
},
{
closed = 1;
nodes = (
"259 484 OFFCURVE",
"236 507 OFFCURVE",
"236 539 CURVE SMOOTH",
"236 571 OFFCURVE",
"259 594 OFFCURVE",
"291 594 CURVE SMOOTH",
"323 594 OFFCURVE",
"346 571 OFFCURVE",
"346 539 CURVE SMOOTH",
"346 507 OFFCURVE",
"323 484 OFFCURVE",
"291 484 CURVE SMOOTH"
);
}
);
width = 597;
},
{
anchors = (
{
name = bottom;
position = "{301, -30}";
},
{
name = top;
position = "{261, 800}";
}
);
associatedMasterId = "462F72A0-0500-4E69-A49B-6C2F2580580D";
guideLines = (
{
angle = 90;
position = "{291, 0}";
showMeasurement = 1;
},
{
position = "{0, 539}";
showMeasurement = 1;
}
);
layerId = "F8DB3154-4C69-4439-AE57-65B577DB4CD5";
name = "Jul 30 22, 01:58";
paths = (
{
closed = 1;
nodes = (
"572 0 OFFCURVE",
"578 7 OFFCURVE",
"578 15 CURVE SMOOTH",
"578 211 LINE SMOOTH",
"578 221 OFFCURVE",
"578 227 OFFCURVE",
"573 234 CURVE SMOOTH",
"485 362 LINE",
"485 384 LINE",
"568 463 LINE SMOOTH",
"575 469 OFFCURVE",
"578 473 OFFCURVE",
"578 481 CURVE SMOOTH",
"578 644 LINE SMOOTH",
"578 657 OFFCURVE",
"577 660 OFFCURVE",
"568 668 CURVE SMOOTH",
"430 792 LINE SMOOTH",
"423 798 OFFCURVE",
"417 800 OFFCURVE",
"406 800 CURVE SMOOTH",
"45 800 LINE SMOOTH",
"36 800 OFFCURVE",
"30 794 OFFCURVE",
"30 785 CURVE SMOOTH",
"30 15 LINE SMOOTH",
"30 6 OFFCURVE",
"36 0 OFFCURVE",
"45 0 CURVE SMOOTH",
"259 0 LINE SMOOTH",
"268 0 OFFCURVE",
"274 6 OFFCURVE",
"274 15 CURVE SMOOTH",
"274 228 LINE",
"334 228 LINE",
"334 15 LINE SMOOTH",
"334 6 OFFCURVE",
"340 0 OFFCURVE",
"349 0 CURVE SMOOTH",
"563 0 LINE SMOOTH"
);
},
{
closed = 1;
nodes = (
"272 484 OFFCURVE",
"249 507 OFFCURVE",
"249 539 CURVE SMOOTH",
"249 571 OFFCURVE",
"272 594 OFFCURVE",
"304 594 CURVE SMOOTH",
"336 594 OFFCURVE",
"359 571 OFFCURVE",
"359 539 CURVE SMOOTH",
"359 507 OFFCURVE",
"336 484 OFFCURVE",
"304 484 CURVE SMOOTH"
);
}
);
width = 597;
},
{
anchors = (
{
name = bottom;
position = "{301, -30}";
},
{
name = top;
position = "{261, 800}";
}
);
associatedMasterId = "462F72A0-0500-4E69-A49B-6C2F2580580D";
guideLines = (
{
angle = 90;
position = "{291, 0}";
showMeasurement = 1;
},
{
position = "{0, 539}";
showMeasurement = 1;
}
);
layerId = "3C2E9AA8-F244-4B39-901E-7498C22DE193";
name = "Jul 30 22, 02:08";
paths = (
{
closed = 1;
nodes = (
"259 0 LINE SMOOTH",
"268 0 OFFCURVE",
"274 6 OFFCURVE",
"274 15 CURVE SMOOTH",
"274 223 LINE",
"334 223 LINE",
"334 12 LINE SMOOTH",
"334 4 OFFCURVE",
"344 0 OFFCURVE",
"352 0 CURVE SMOOTH",
"563 0 LINE SMOOTH",
"572 0 OFFCURVE",
"578 7 OFFCURVE",
"578 15 CURVE SMOOTH",
"578 231 LINE SMOOTH",
"578 241 OFFCURVE",
"580 247 OFFCURVE",
"573 254 CURVE SMOOTH",
"485 342 LINE",
"485 374 LINE",
"568 453 LINE SMOOTH",
"575 459 OFFCURVE",
"578 463 OFFCURVE",
"578 471 CURVE SMOOTH",
"578 644 LINE SMOOTH",
"578 657 OFFCURVE",
"577 660 OFFCURVE",
"568 668 CURVE SMOOTH",
"430 792 LINE SMOOTH",
"423 798 OFFCURVE",
"417 800 OFFCURVE",
"406 800 CURVE SMOOTH",
"45 800 LINE SMOOTH",
"36 800 OFFCURVE",
"30 794 OFFCURVE",
"30 785 CURVE SMOOTH",
"30 15 LINE SMOOTH",
"30 6 OFFCURVE",
"36 0 OFFCURVE",
"45 0 CURVE SMOOTH"
);
},
{
closed = 1;
nodes = (
"269 484 OFFCURVE",
"246 507 OFFCURVE",
"246 539 CURVE SMOOTH",
"246 571 OFFCURVE",
"269 594 OFFCURVE",
"301 594 CURVE SMOOTH",
"333 594 OFFCURVE",
"356 571 OFFCURVE",
"356 539 CURVE SMOOTH",
"356 507 OFFCURVE",
"333 484 OFFCURVE",
"301 484 CURVE SMOOTH"
);
}
);
visible = 1;
width = 586;
},
{
anchors = (
{
name = bottom;
position = "{301, -30}";
},
{
name = top;
position = "{261, 800}";
}
);
guideLines = (
{
angle = 90;
position = "{291, 0}";
showMeasurement = 1;
},
{
position = "{0, 539}";
showMeasurement = 1;
}
);
layerId = "462F72A0-0500-4E69-A49B-6C2F2580580D";
paths = (
{
closed = 1;
nodes = (
"259 0 LINE SMOOTH",
"268 0 OFFCURVE",
"274 6 OFFCURVE",
"274 15 CURVE SMOOTH",
"274 223 LINE",
"284 223 LINE",
"366 12 LINE SMOOTH",
"369 4 OFFCURVE",
"376 0 OFFCURVE",
"384 0 CURVE SMOOTH",
"574 0 LINE SMOOTH",
"583 0 OFFCURVE",
"589 7 OFFCURVE",
"589 15 CURVE SMOOTH",
"589 131 LINE SMOOTH",
"589 141 OFFCURVE",
"587 147 OFFCURVE",
"584 154 CURVE SMOOTH",
"485 362 LINE",
"485 384 LINE",
"568 463 LINE SMOOTH",
"575 469 OFFCURVE",
"578 473 OFFCURVE",
"578 481 CURVE SMOOTH",
"578 644 LINE SMOOTH",
"578 657 OFFCURVE",
"577 660 OFFCURVE",
"568 668 CURVE SMOOTH",
"430 792 LINE SMOOTH",
"423 798 OFFCURVE",
"417 800 OFFCURVE",
"406 800 CURVE SMOOTH",
"45 800 LINE SMOOTH",
"36 800 OFFCURVE",
"30 794 OFFCURVE",
"30 785 CURVE SMOOTH",
"30 15 LINE SMOOTH",
"30 6 OFFCURVE",
"36 0 OFFCURVE",
"45 0 CURVE SMOOTH"
);
},
{
closed = 1;
nodes = (
"269 474 OFFCURVE",
"246 497 OFFCURVE",
"246 529 CURVE SMOOTH",
"246 561 OFFCURVE",
"269 584 OFFCURVE",
"301 584 CURVE SMOOTH",
"333 584 OFFCURVE",
"356 561 OFFCURVE",
"356 529 CURVE SMOOTH",
"356 497 OFFCURVE",
"333 474 OFFCURVE",
"301 474 CURVE SMOOTH"
);
}
);
width = 597;
}
);
leftMetricsKey = H;
unicode = 0052;
},
{
glyphname = Rtail;
lastChange = "2023-09-15 18:00:39 +0000";
layers = (
{
anchors = (
{
name = bottom;
position = "{301, -30}";
},
{
name = top;
position = "{261, 800}";
}
);
layerId = "462F72A0-0500-4E69-A49B-6C2F2580580D";
paths = (
{
closed = 1;
nodes = (
"269 223 LINE",
"284 223 LINE",
"366 12 LINE SMOOTH",
"369 4 OFFCURVE",
"376 0 OFFCURVE",
"384 0 CURVE SMOOTH",
"574 0 LINE SMOOTH",
"583 0 OFFCURVE",
"589 7 OFFCURVE",
"589 15 CURVE SMOOTH",
"589 131 LINE SMOOTH",
"589 141 OFFCURVE",
"587 147 OFFCURVE",
"584 154 CURVE SMOOTH",
"485 362 LINE",
"485 384 LINE",
"568 463 LINE SMOOTH",
"575 469 OFFCURVE",
"578 473 OFFCURVE",
"578 481 CURVE SMOOTH",
"578 644 LINE SMOOTH",
"578 657 OFFCURVE",
"577 660 OFFCURVE",
"568 668 CURVE SMOOTH",
"430 792 LINE SMOOTH",
"423 798 OFFCURVE",
"417 800 OFFCURVE",
"406 800 CURVE SMOOTH",
"45 800 LINE SMOOTH",
"36 800 OFFCURVE",
"30 794 OFFCURVE",
"30 785 CURVE SMOOTH",
"30 15 LINE SMOOTH",
"30 14 OFFCURVE",
"30 13 OFFCURVE",
"30 13 CURVE",
"30 7 LINE",
"30 -57 LINE SMOOTH",
"30 -71 OFFCURVE",
"35 -82 OFFCURVE",
"47 -93 CURVE SMOOTH",
"119 -162 LINE SMOOTH",
"129 -172 OFFCURVE",
"143 -176 OFFCURVE",
"158 -176 CURVE SMOOTH",
"236 -176 LINE SMOOTH",
"254 -176 OFFCURVE",
"266 -164 OFFCURVE",
"266 -146 CURVE SMOOTH"
);
},
{
closed = 1;
nodes = (
"269 484 OFFCURVE",
"246 507 OFFCURVE",
"246 539 CURVE SMOOTH",
"246 571 OFFCURVE",
"269 594 OFFCURVE",
"301 594 CURVE SMOOTH",
"333 594 OFFCURVE",
"356 571 OFFCURVE",
"356 539 CURVE SMOOTH",
"356 507 OFFCURVE",
"333 484 OFFCURVE",
"301 484 CURVE SMOOTH"
);
}
);
width = 592;
}
);
unicode = "2C64,027D";
},
{
glyphname = S;
lastChange = "2023-05-24 12:14:22 +0000";
layers = (
{
anchors = (
{
name = bottom;
position = "{189, -20}";
},
{
name = top;
position = "{249, 800}";
}
);
associatedMasterId = "462F72A0-0500-4E69-A49B-6C2F2580580D";
layerId = "4D4C5C5F-6D4A-4BF8-A92D-809A2AF0B29C";
name = Original;
paths = (
{
closed = 1;
nodes = (
"188 800 OFFCURVE",
"183 799 OFFCURVE",
"177 794 CURVE SMOOTH",
"18 661 LINE SMOOTH",
"12 656 OFFCURVE",
"9 651 OFFCURVE",
"9 643 CURVE SMOOTH",
"9 395 LINE SMOOTH",
"9 387 OFFCURVE",
"12 381 OFFCURVE",
"19 377 CURVE SMOOTH",
"134 321 LINE",
"134 284 LINE",
"17 180 LINE SMOOTH",
"11 175 OFFCURVE",
"9 169 OFFCURVE",
"9 162 CURVE SMOOTH",
"9 15 LINE SMOOTH",
"9 6 OFFCURVE",
"15 0 OFFCURVE",
"24 0 CURVE SMOOTH",
"233 0 LINE SMOOTH",
"240 0 OFFCURVE",
"247 2 OFFCURVE",
"252 7 CURVE SMOOTH",
"420 161 LINE SMOOTH",
"426 167 OFFCURVE",
"428 172 OFFCURVE",
"428 179 CURVE SMOOTH",
"428 378 LINE SMOOTH",
"428 386 OFFCURVE",
"425 394 OFFCURVE",
"419 397 CURVE SMOOTH",
"272 471 LINE",
"272 502 LINE",
"419 610 LINE SMOOTH",
"425 614 OFFCURVE",
"428 620 OFFCURVE",
"428 628 CURVE SMOOTH",
"428 785 LINE SMOOTH",
"428 794 OFFCURVE",
"422 800 OFFCURVE",
"413 800 CURVE SMOOTH",
"195 800 LINE SMOOTH"
);
}
);
width = 437;
},
{
anchors = (
{
name = bottom;
position = "{202, -20}";
},
{
name = top;
position = "{262, 800}";
}
);
associatedMasterId = "462F72A0-0500-4E69-A49B-6C2F2580580D";
layerId = "B31CD8A6-4595-4B81-BB19-1834881F1983";
name = "Jun 4 22, 20:00";
paths = (
{
closed = 1;
nodes = (
"246 0 LINE SMOOTH",
"253 0 OFFCURVE",
"260 2 OFFCURVE",
"265 7 CURVE SMOOTH",
"433 161 LINE SMOOTH",
"439 167 OFFCURVE",
"441 172 OFFCURVE",
"441 179 CURVE SMOOTH",
"441 358 LINE SMOOTH",
"441 366 OFFCURVE",
"438 373 OFFCURVE",
"432 377 CURVE SMOOTH",
"285 471 LINE",
"285 502 LINE",
"432 610 LINE SMOOTH",
"438 614 OFFCURVE",
"441 620 OFFCURVE",
"441 628 CURVE SMOOTH",
"441 785 LINE SMOOTH",
"441 794 OFFCURVE",
"435 800 OFFCURVE",
"426 800 CURVE SMOOTH",
"194 800 LINE SMOOTH",
"183 800 OFFCURVE",
"177 798 OFFCURVE",
"170 792 CURVE SMOOTH",
"32 668 LINE SMOOTH",
"23 660 OFFCURVE",
"22 657 OFFCURVE",
"22 644 CURVE SMOOTH",
"22 415 LINE SMOOTH",
"22 407 OFFCURVE",
"25 401 OFFCURVE",
"32 397 CURVE SMOOTH",
"147 321 LINE",
"147 284 LINE",
"30 180 LINE SMOOTH",
"24 175 OFFCURVE",
"22 169 OFFCURVE",
"22 162 CURVE SMOOTH",
"22 15 LINE SMOOTH",
"22 6 OFFCURVE",
"28 0 OFFCURVE",
"37 0 CURVE SMOOTH"
);
}
);
width = 462;
},
{
anchors = (
{
name = bottom;
position = "{222, -20}";
},
{
name = top;
position = "{262, 800}";
}
);
layerId = "462F72A0-0500-4E69-A49B-6C2F2580580D";
paths = (
{
closed = 1;
nodes = (
"246 0 LINE SMOOTH",
"253 0 OFFCURVE",
"260 3 OFFCURVE",
"265 7 CURVE SMOOTH",
"453 161 LINE SMOOTH",
"460 166 OFFCURVE",
"461 172 OFFCURVE",
"461 179 CURVE SMOOTH",
"461 378 LINE SMOOTH",
"461 386 OFFCURVE",
"458 394 OFFCURVE",
"452 397 CURVE SMOOTH",
"305 471 LINE",
"305 502 LINE",
"472 610 LINE SMOOTH",
"478 614 OFFCURVE",
"481 620 OFFCURVE",
"481 628 CURVE SMOOTH",
"481 785 LINE SMOOTH",
"481 794 OFFCURVE",
"475 800 OFFCURVE",
"466 800 CURVE SMOOTH",
"234 800 LINE SMOOTH",
"223 800 OFFCURVE",
"217 798 OFFCURVE",
"210 792 CURVE SMOOTH",
"52 668 LINE SMOOTH",
"43 661 OFFCURVE",
"42 657 OFFCURVE",
"42 644 CURVE SMOOTH",
"42 395 LINE SMOOTH",
"42 387 OFFCURVE",
"45 381 OFFCURVE",
"52 377 CURVE SMOOTH",
"167 321 LINE",
"167 284 LINE",
"30 180 LINE SMOOTH",
"23 175 OFFCURVE",
"22 170 OFFCURVE",
"22 160 CURVE SMOOTH",
"22 15 LINE SMOOTH",
"22 6 OFFCURVE",
"28 0 OFFCURVE",
"37 0 CURVE SMOOTH"
);
}
);
width = 502;
},
{
anchors = (
{
name = bottom;
position = "{202, -20}";
},
{
name = top;
position = "{262, 800}";
}
);
associatedMasterId = "462F72A0-0500-4E69-A49B-6C2F2580580D";
layerId = "A6690135-2FFD-45E1-9F9B-368866090FD2";
name = "Jul 30 22, 01:47";
paths = (
{
closed = 1;
nodes = (
"246 0 LINE SMOOTH",
"253 0 OFFCURVE",
"260 2 OFFCURVE",
"265 7 CURVE SMOOTH",
"433 161 LINE SMOOTH",
"439 167 OFFCURVE",
"441 172 OFFCURVE",
"441 179 CURVE SMOOTH",
"441 378 LINE SMOOTH",
"441 386 OFFCURVE",
"438 394 OFFCURVE",
"432 397 CURVE SMOOTH",
"275 481 LINE",
"275 492 LINE",
"432 610 LINE SMOOTH",
"438 615 OFFCURVE",
"441 620 OFFCURVE",
"441 628 CURVE SMOOTH",
"441 785 LINE SMOOTH",
"441 794 OFFCURVE",
"435 800 OFFCURVE",
"426 800 CURVE SMOOTH",
"194 800 LINE SMOOTH",
"183 800 OFFCURVE",
"177 798 OFFCURVE",
"170 792 CURVE SMOOTH",
"32 668 LINE SMOOTH",
"23 660 OFFCURVE",
"22 657 OFFCURVE",
"22 644 CURVE SMOOTH",
"22 395 LINE SMOOTH",
"22 387 OFFCURVE",
"25 381 OFFCURVE",
"32 377 CURVE SMOOTH",
"157 311 LINE",
"157 294 LINE",
"30 180 LINE SMOOTH",
"24 174 OFFCURVE",
"22 170 OFFCURVE",
"22 160 CURVE SMOOTH",
"22 15 LINE SMOOTH",
"22 6 OFFCURVE",
"28 0 OFFCURVE",
"37 0 CURVE SMOOTH"
);
}
);
width = 462;
}
);
unicode = 0053;
},
{
glyphname = Saltillo;
lastChange = "2023-05-18 02:22:02 +0000";
layers = (
{
layerId = "462F72A0-0500-4E69-A49B-6C2F2580580D";
paths = (
{
closed = 1;
nodes = (
"40 268 LINE SMOOTH",
"41 258 OFFCURVE",
"46 254 OFFCURVE",
"55 254 CURVE SMOOTH",
"215 254 LINE SMOOTH",
"224 254 OFFCURVE",
"229 258 OFFCURVE",
"230 268 CURVE SMOOTH",
"262 784 LINE SMOOTH",
"263 794 OFFCURVE",
"257 800 OFFCURVE",
"247 800 CURVE SMOOTH",
"23 800 LINE SMOOTH",
"13 800 OFFCURVE",
"7 794 OFFCURVE",
"8 784 CURVE SMOOTH"
);
}
);
width = 270;
}
);
leftMetricsKey = "=exclam-10";
rightMetricsKey = "=exclam-10";
unicode = "A78B,A78C";
},
{
glyphname = Germandbls;
lastChange = "2023-05-18 02:22:02 +0000";
layers = (
{
layerId = "462F72A0-0500-4E69-A49B-6C2F2580580D";
paths = (
{
closed = 1;
nodes = (
"244 0 LINE SMOOTH",
"252 0 OFFCURVE",
"259 7 OFFCURVE",
"259 15 CURVE SMOOTH",
"259 598 LINE",
"321 598 LINE",
"270 357 LINE SMOOTH",
"268 346 OFFCURVE",
"276 338 OFFCURVE",
"286 338 CURVE SMOOTH",
"350 338 LINE",
"350 322 LINE",
"278 167 LINE",
"278 15 LINE SMOOTH",
"278 7 OFFCURVE",
"285 0 OFFCURVE",
"293 0 CURVE SMOOTH",
"451 0 LINE SMOOTH",
"455 0 OFFCURVE",
"460 2 OFFCURVE",
"462 6 CURVE SMOOTH",
"568 188 LINE",
"568 511 LINE SMOOTH",
"568 519 OFFCURVE",
"561 526 OFFCURVE",
"553 526 CURVE SMOOTH",
"496 526 LINE",
"496 534 LINE",
"544 724 LINE SMOOTH",
"546 732 OFFCURVE",
"541 738 OFFCURVE",
"535 743 CURVE SMOOTH",
"478 794 LINE SMOOTH",
"469 802 OFFCURVE",
"462 800 OFFCURVE",
"456 800 CURVE SMOOTH",
"45 800 LINE SMOOTH",
"37 800 OFFCURVE",
"30 793 OFFCURVE",
"30 785 CURVE SMOOTH",
"30 15 LINE SMOOTH",
"30 7 OFFCURVE",
"37 0 OFFCURVE",
"45 0 CURVE SMOOTH"
);
}
);
width = 571;
}
);
leftMetricsKey = "=H";
rightMetricsKey = "=B";
unicode = "1E9E,00DF";
},
{
glyphname = T;
lastChange = "2023-05-24 12:14:51 +0000";
layers = (
{
anchors = (
{
name = bottom;
position = "{217, -30}";
},
{
name = center;
position = "{217, 400}";
},
{
name = top;
position = "{217, 800}";
}
);
layerId = "462F72A0-0500-4E69-A49B-6C2F2580580D";
paths = (
{
closed = 1;
nodes = (
"95 567 LINE",
"95 15 LINE SMOOTH",
"95 6 OFFCURVE",
"101 0 OFFCURVE",
"110 0 CURVE SMOOTH",
"324 0 LINE SMOOTH",
"333 0 OFFCURVE",
"339 6 OFFCURVE",
"339 15 CURVE SMOOTH",
"339 567 LINE",
"419 567 LINE SMOOTH",
"428 567 OFFCURVE",
"434 573 OFFCURVE",
"434 582 CURVE SMOOTH",
"434 785 LINE SMOOTH",
"434 794 OFFCURVE",
"428 800 OFFCURVE",
"419 800 CURVE SMOOTH",
"15 800 LINE SMOOTH",
"6 800 OFFCURVE",
"0 794 OFFCURVE",
"0 785 CURVE SMOOTH",
"0 582 LINE SMOOTH",
"0 573 OFFCURVE",
"6 567 OFFCURVE",
"15 567 CURVE SMOOTH"
);
}
);
width = 434;
}
);
unicode = 0054;
},
{
glyphname = Tbar;
lastChange = "2023-05-18 02:22:02 +0000";
layers = (
{
components = (
{
alignment = -1;
name = T;
}
);
layerId = "462F72A0-0500-4E69-A49B-6C2F2580580D";
paths = (
{
closed = 1;
nodes = (
"46 359 LINE SMOOTH",
"46 350 OFFCURVE",
"52 344 OFFCURVE",
"61 344 CURVE SMOOTH",
"374 344 LINE SMOOTH",
"383 344 OFFCURVE",
"389 350 OFFCURVE",
"389 359 CURVE SMOOTH",
"389 450 LINE SMOOTH",
"389 459 OFFCURVE",
"383 465 OFFCURVE",
"374 465 CURVE SMOOTH",
"61 465 LINE SMOOTH",
"52 465 OFFCURVE",
"46 459 OFFCURVE",
"46 450 CURVE SMOOTH"
);
}
);
width = 434;
}
);
leftMetricsKey = "=T";
rightMetricsKey = "=T";
unicode = "0166,0167";
},
{
glyphname = Thook;
lastChange = "2023-05-18 02:22:02 +0000";
layers = (
{
components = (
{
name = T;
}
);
layerId = "462F72A0-0500-4E69-A49B-6C2F2580580D";
paths = (
{
closed = 1;
nodes = (
"196 559 OFFCURVE",
"208 571 OFFCURVE",
"208 590 CURVE",
"208 737 LINE",
"208 771 OFFCURVE",
"180 800 OFFCURVE",
"131 800 CURVE SMOOTH",
"-11 800 LINE SMOOTH",
"-25 800 OFFCURVE",
"-35 795 OFFCURVE",
"-47 783 CURVE SMOOTH",
"-106 724 LINE SMOOTH",
"-116 714 OFFCURVE",
"-120 700 OFFCURVE",
"-120 685 CURVE SMOOTH",
"-120 490 LINE SMOOTH",
"-120 472 OFFCURVE",
"-108 460 OFFCURVE",
"-90 460 CURVE SMOOTH",
"12 460 LINE SMOOTH",
"30 460 OFFCURVE",
"43 472 OFFCURVE",
"43 490 CURVE SMOOTH",
"43 559 LINE",
"178 559 LINE SMOOTH"
);
}
);
width = 454;
}
);
rightMetricsKey = "=T";
unicode = "01AC,01AD";
},
{
glyphname = Tretroflexhook;
lastChange = "2023-05-18 02:22:02 +0000";
layers = (
{
components = (
{
name = T;
}
);
layerId = "462F72A0-0500-4E69-A49B-6C2F2580580D";
paths = (
{
closed = 1;
nodes = (
"339 72 OFFCURVE",
"327 84 OFFCURVE",
"308 84 CURVE",
"158 84 LINE",
"124 84 OFFCURVE",
"95 56 OFFCURVE",
"95 7 CURVE SMOOTH",
"95 -57 LINE SMOOTH",
"95 -71 OFFCURVE",
"100 -82 OFFCURVE",
"112 -93 CURVE SMOOTH",
"184 -162 LINE SMOOTH",
"194 -172 OFFCURVE",
"208 -176 OFFCURVE",
"223 -176 CURVE SMOOTH",
"385 -176 LINE SMOOTH",
"403 -176 OFFCURVE",
"415 -164 OFFCURVE",
"415 -146 CURVE SMOOTH",
"415 -44 LINE SMOOTH",
"415 -26 OFFCURVE",
"403 -13 OFFCURVE",
"385 -13 CURVE SMOOTH",
"339 -13 LINE",
"339 54 LINE SMOOTH"
);
}
);
width = 434;
}
);
unicode = "01AE,0288";
},
{
glyphname = U;
lastChange = "2023-05-20 14:37:02 +0000";
layers = (
{
anchors = (
{
name = bottom;
position = "{308, -26}";
},
{
name = ogonek;
position = "{538, 10}";
},
{
name = top;
position = "{312, 800}";
},
{
name = topright;
position = "{576, 800}";
}
);
layerId = "462F72A0-0500-4E69-A49B-6C2F2580580D";
paths = (
{
closed = 1;
nodes = (
"575 794 OFFCURVE",
"569 800 OFFCURVE",
"560 800 CURVE SMOOTH",
"343 800 LINE SMOOTH",
"334 800 OFFCURVE",
"328 794 OFFCURVE",
"328 785 CURVE SMOOTH",
"328 228 LINE",
"307 228 LINE SMOOTH",
"287 228 OFFCURVE",
"276 240 OFFCURVE",
"276 252 CURVE SMOOTH",
"276 785 LINE SMOOTH",
"276 794 OFFCURVE",
"270 800 OFFCURVE",
"261 800 CURVE SMOOTH",
"43 800 LINE SMOOTH",
"34 800 OFFCURVE",
"28 794 OFFCURVE",
"28 785 CURVE SMOOTH",
"28 120 LINE SMOOTH",
"28 113 OFFCURVE",
"30 107 OFFCURVE",
"36 102 CURVE SMOOTH",
"145 7 LINE SMOOTH",
"150 2 OFFCURVE",
"157 0 OFFCURVE",
"164 0 CURVE SMOOTH",
"560 0 LINE SMOOTH",
"569 0 OFFCURVE",
"575 6 OFFCURVE",
"575 15 CURVE SMOOTH",
"575 785 LINE SMOOTH"
);
}
);
width = 605;
}
);
rightMetricsKey = "=H";
unicode = 0055;
},
{
glyphname = "Upsilon-latin";
lastChange = "2023-05-18 02:22:02 +0000";
layers = (
{
anchors = (
{
name = bottom;
position = "{289, -30}";
},
{
name = center;
position = "{289, 400}";
},
{
name = ogonek;
position = "{520, 10}";
},
{
name = top;
position = "{289, 800}";
},
{
name = topleft;
position = "{20, 800}";
},
{
name = topright;
position = "{535, 790}";
}
);
layerId = "462F72A0-0500-4E69-A49B-6C2F2580580D";
paths = (
{
closed = 1;
nodes = (
"61 614 LINE",
"61 601 LINE",
"28 567 LINE SMOOTH",
"23 561 OFFCURVE",
"21 555 OFFCURVE",
"21 548 CURVE SMOOTH",
"21 160 LINE SMOOTH",
"21 153 OFFCURVE",
"23 147 OFFCURVE",
"29 142 CURVE SMOOTH",
"178 7 LINE SMOOTH",
"184 2 OFFCURVE",
"190 0 OFFCURVE",
"197 0 CURVE SMOOTH",
"381 0 LINE SMOOTH",
"388 0 OFFCURVE",
"394 2 OFFCURVE",
"400 7 CURVE SMOOTH",
"549 142 LINE SMOOTH",
"555 147 OFFCURVE",
"557 153 OFFCURVE",
"557 160 CURVE SMOOTH",
"557 548 LINE SMOOTH",
"557 555 OFFCURVE",
"555 561 OFFCURVE",
"550 567 CURVE SMOOTH",
"517 601 LINE",
"517 614 LINE",
"575 614 LINE SMOOTH",
"584 614 OFFCURVE",
"590 620 OFFCURVE",
"590 629 CURVE SMOOTH",
"590 785 LINE SMOOTH",
"590 794 OFFCURVE",
"584 800 OFFCURVE",
"575 800 CURVE SMOOTH",
"325 800 LINE SMOOTH",
"316 800 OFFCURVE",
"310 794 OFFCURVE",
"310 785 CURVE SMOOTH",
"310 252 LINE SMOOTH",
"310 236 OFFCURVE",
"303 228 OFFCURVE",
"290 228 CURVE SMOOTH",
"277 228 OFFCURVE",
"269 236 OFFCURVE",
"269 252 CURVE SMOOTH",
"269 785 LINE SMOOTH",
"269 794 OFFCURVE",
"263 800 OFFCURVE",
"254 800 CURVE SMOOTH",
"4 800 LINE SMOOTH",
"-5 800 OFFCURVE",
"-11 794 OFFCURVE",
"-11 785 CURVE SMOOTH",
"-11 629 LINE SMOOTH",
"-11 620 OFFCURVE",
"-5 614 OFFCURVE",
"4 614 CURVE SMOOTH"
);
}
);
width = 578;
}
);
unicode = "01B1,028A";
},
{
glyphname = V;
lastChange = "2023-05-20 14:37:02 +0000";
layers = (
{
anchors = (
{
name = bottom;
position = "{293, -30}";
},
{
name = top;
position = "{293, 800}";
}
);
layerId = "462F72A0-0500-4E69-A49B-6C2F2580580D";
paths = (
{
closed = 1;
nodes = (
"330 800 LINE SMOOTH",
"321 800 OFFCURVE",
"315 794 OFFCURVE",
"315 785 CURVE SMOOTH",
"315 263 LINE",
"270 263 LINE",
"270 785 LINE SMOOTH",
"270 794 OFFCURVE",
"264 800 OFFCURVE",
"255 800 CURVE SMOOTH",
"41 800 LINE SMOOTH",
"32 800 OFFCURVE",
"26 794 OFFCURVE",
"26 785 CURVE SMOOTH",
"26 229 LINE SMOOTH",
"26 222 OFFCURVE",
"28 217 OFFCURVE",
"32 211 CURVE SMOOTH",
"174 9 LINE SMOOTH",
"178 3 OFFCURVE",
"185 0 OFFCURVE",
"193 0 CURVE SMOOTH",
"393 0 LINE SMOOTH",
"401 0 OFFCURVE",
"408 3 OFFCURVE",
"412 9 CURVE SMOOTH",
"553 211 LINE SMOOTH",
"557 217 OFFCURVE",
"559 222 OFFCURVE",
"559 229 CURVE SMOOTH",
"559 785 LINE SMOOTH",
"559 794 OFFCURVE",
"553 800 OFFCURVE",
"544 800 CURVE SMOOTH"
);
}
);
width = 585;
},
{
anchors = (
{
name = bottom;
position = "{293, -30}";
},
{
name = top;
position = "{293, 800}";
}
);
associatedMasterId = "462F72A0-0500-4E69-A49B-6C2F2580580D";
layerId = "A9F91B0C-65E3-4D8B-AE9A-A8C4AFAAD86C";
name = "Jul 29 22, 17:18";
paths = (
{
closed = 1;
nodes = (
"330 800 LINE SMOOTH",
"321 800 OFFCURVE",
"315 794 OFFCURVE",
"315 785 CURVE SMOOTH",
"315 263 LINE",
"270 263 LINE",
"270 785 LINE SMOOTH",
"270 794 OFFCURVE",
"264 800 OFFCURVE",
"255 800 CURVE SMOOTH",
"41 800 LINE SMOOTH",
"32 800 OFFCURVE",
"26 794 OFFCURVE",
"26 785 CURVE SMOOTH",
"26 229 LINE SMOOTH",
"26 222 OFFCURVE",
"28 217 OFFCURVE",
"32 211 CURVE SMOOTH",
"174 9 LINE SMOOTH",
"178 3 OFFCURVE",
"185 0 OFFCURVE",
"193 0 CURVE SMOOTH",
"393 0 LINE SMOOTH",
"401 0 OFFCURVE",
"408 3 OFFCURVE",
"412 9 CURVE SMOOTH",
"553 211 LINE SMOOTH",
"557 217 OFFCURVE",
"559 222 OFFCURVE",
"559 229 CURVE SMOOTH",
"559 785 LINE SMOOTH",
"559 794 OFFCURVE",
"553 800 OFFCURVE",
"544 800 CURVE SMOOTH"
);
}
);
width = 585;
}
);
unicode = 0056;
},
{
glyphname = "Gamma-latin";
lastChange = "2023-05-18 02:22:02 +0000";
layers = (
{
layerId = "462F72A0-0500-4E69-A49B-6C2F2580580D";
paths = (
{
closed = 1;
nodes = (
"16 313 OFFCURVE",
"16 307 OFFCURVE",
"22 302 CURVE SMOOTH",
"147 192 LINE",
"147 188 LINE",
"101 150 LINE SMOOTH",
"95 145 OFFCURVE",
"91 139 OFFCURVE",
"91 131 CURVE SMOOTH",
"91 -26 LINE SMOOTH",
"91 -33 OFFCURVE",
"93 -39 OFFCURVE",
"99 -45 CURVE SMOOTH",
"147 -91 LINE SMOOTH",
"153 -97 OFFCURVE",
"159 -99 OFFCURVE",
"166 -99 CURVE SMOOTH",
"401 -99 LINE SMOOTH",
"408 -99 OFFCURVE",
"415 -96 OFFCURVE",
"420 -91 CURVE SMOOTH",
"466 -45 LINE SMOOTH",
"472 -39 OFFCURVE",
"474 -33 OFFCURVE",
"474 -26 CURVE SMOOTH",
"474 134 LINE SMOOTH",
"474 142 OFFCURVE",
"470 147 OFFCURVE",
"464 152 CURVE SMOOTH",
"420 188 LINE",
"420 192 LINE",
"543 302 LINE SMOOTH",
"549 307 OFFCURVE",
"549 313 OFFCURVE",
"549 320 CURVE SMOOTH",
"549 785 LINE SMOOTH",
"549 794 OFFCURVE",
"543 800 OFFCURVE",
"534 800 CURVE SMOOTH",
"320 800 LINE SMOOTH",
"311 800 OFFCURVE",
"305 794 OFFCURVE",
"305 785 CURVE SMOOTH",
"305 354 LINE",
"260 354 LINE",
"260 785 LINE SMOOTH",
"260 794 OFFCURVE",
"254 800 OFFCURVE",
"245 800 CURVE SMOOTH",
"31 800 LINE SMOOTH",
"22 800 OFFCURVE",
"16 794 OFFCURVE",
"16 785 CURVE SMOOTH",
"16 320 LINE SMOOTH"
);
},
{
closed = 1;
nodes = (
"255 8 OFFCURVE",
"231 30 OFFCURVE",
"231 57 CURVE SMOOTH",
"231 87 OFFCURVE",
"255 109 OFFCURVE",
"283 109 CURVE SMOOTH",
"310 109 OFFCURVE",
"334 87 OFFCURVE",
"334 57 CURVE SMOOTH",
"334 30 OFFCURVE",
"310 8 OFFCURVE",
"283 8 CURVE SMOOTH"
);
}
);
width = 565;
}
);
unicode = "0194,0263";
},
{
glyphname = Vhook;
lastChange = "2023-05-18 02:22:02 +0000";
layers = (
{
layerId = "462F72A0-0500-4E69-A49B-6C2F2580580D";
paths = (
{
closed = 1;
nodes = (
"284 811 LINE SMOOTH",
"274 811 OFFCURVE",
"268 805 OFFCURVE",
"272 794 CURVE SMOOTH",
"305 694 LINE",
"305 233 LINE",
"270 233 LINE",
"270 775 LINE SMOOTH",
"270 784 OFFCURVE",
"264 790 OFFCURVE",
"255 790 CURVE SMOOTH",
"41 790 LINE SMOOTH",
"32 790 OFFCURVE",
"26 784 OFFCURVE",
"26 775 CURVE SMOOTH",
"26 212 LINE SMOOTH",
"26 205 OFFCURVE",
"28 199 OFFCURVE",
"31 193 CURVE SMOOTH",
"134 10 LINE SMOOTH",
"138 2 OFFCURVE",
"144 0 OFFCURVE",
"152 0 CURVE SMOOTH",
"413 0 LINE SMOOTH",
"421 0 OFFCURVE",
"429 3 OFFCURVE",
"432 9 CURVE SMOOTH",
"544 200 LINE SMOOTH",
"547 206 OFFCURVE",
"549 212 OFFCURVE",
"549 219 CURVE SMOOTH",
"549 689 LINE SMOOTH",
"549 695 OFFCURVE",
"548 701 OFFCURVE",
"546 707 CURVE SMOOTH",
"508 799 LINE SMOOTH",
"504 808 OFFCURVE",
"499 811 OFFCURVE",
"491 811 CURVE SMOOTH"
);
}
);
width = 567;
}
);
leftMetricsKey = "=V";
rightMetricsKey = "=V-8";
unicode = "01B2,028B";
},
{
glyphname = W;
lastChange = "2023-05-20 14:37:02 +0000";
layers = (
{
anchors = (
{
name = bottom;
position = "{442, -30}";
},
{
name = top;
position = "{442, 800}";
}
);
layerId = "462F72A0-0500-4E69-A49B-6C2F2580580D";
paths = (
{
closed = 1;
nodes = (
"640 800 LINE SMOOTH",
"631 800 OFFCURVE",
"625 794 OFFCURVE",
"625 785 CURVE SMOOTH",
"625 299 LINE",
"573 299 LINE",
"573 785 LINE SMOOTH",
"573 794 OFFCURVE",
"567 800 OFFCURVE",
"558 800 CURVE SMOOTH",
"325 800 LINE SMOOTH",
"316 800 OFFCURVE",
"310 794 OFFCURVE",
"310 785 CURVE SMOOTH",
"310 299 LINE",
"259 299 LINE",
"259 785 LINE SMOOTH",
"259 794 OFFCURVE",
"253 800 OFFCURVE",
"244 800 CURVE SMOOTH",
"41 800 LINE SMOOTH",
"31 800 OFFCURVE",
"27 795 OFFCURVE",
"27 785 CURVE",
"26 171 LINE",
"26 163 OFFCURVE",
"28 158 OFFCURVE",
"34 152 CURVE SMOOTH",
"179 8 LINE SMOOTH",
"185 2 OFFCURVE",
"191 0 OFFCURVE",
"198 0 CURVE SMOOTH",
"303 0 LINE SMOOTH",
"310 0 OFFCURVE",
"316 2 OFFCURVE",
"321 8 CURVE SMOOTH",
"431 128 LINE",
"453 128 LINE",
"562 8 LINE SMOOTH",
"567 2 OFFCURVE",
"573 0 OFFCURVE",
"580 0 CURVE SMOOTH",
"686 0 LINE SMOOTH",
"693 0 OFFCURVE",
"699 2 OFFCURVE",
"705 8 CURVE SMOOTH",
"850 152 LINE SMOOTH",
"856 158 OFFCURVE",
"858 163 OFFCURVE",
"858 171 CURVE",
"857 785 LINE",
"857 795 OFFCURVE",
"853 800 OFFCURVE",
"843 800 CURVE SMOOTH"
);
}
);
width = 884;
}
);
unicode = 0057;
},
{
glyphname = Whook;
lastChange = "2023-09-15 18:00:35 +0000";
layers = (
{
anchors = (
{
name = bottom;
position = "{428, -30}";
},
{
name = top;
position = "{428, 800}";
}
);
layerId = "462F72A0-0500-4E69-A49B-6C2F2580580D";
paths = (
{
closed = 1;
nodes = (
"670 850 LINE SMOOTH",
"663 850 OFFCURVE",
"656 847 OFFCURVE",
"651 842 CURVE SMOOTH",
"619 810 LINE SMOOTH",
"614 805 OFFCURVE",
"611 798 OFFCURVE",
"611 791 CURVE SMOOTH",
"611 299 LINE",
"559 299 LINE",
"559 785 LINE SMOOTH",
"559 794 OFFCURVE",
"553 800 OFFCURVE",
"544 800 CURVE SMOOTH",
"311 800 LINE SMOOTH",
"302 800 OFFCURVE",
"296 794 OFFCURVE",
"296 785 CURVE SMOOTH",
"296 299 LINE",
"245 299 LINE",
"245 785 LINE SMOOTH",
"245 794 OFFCURVE",
"239 800 OFFCURVE",
"230 800 CURVE SMOOTH",
"27 800 LINE SMOOTH",
"17 800 OFFCURVE",
"13 795 OFFCURVE",
"13 785 CURVE SMOOTH",
"12 171 LINE SMOOTH",
"12 163 OFFCURVE",
"14 158 OFFCURVE",
"20 152 CURVE SMOOTH",
"165 8 LINE SMOOTH",
"171 2 OFFCURVE",
"177 0 OFFCURVE",
"184 0 CURVE SMOOTH",
"289 0 LINE SMOOTH",
"296 0 OFFCURVE",
"302 2 OFFCURVE",
"307 8 CURVE SMOOTH",
"417 128 LINE",
"439 128 LINE",
"548 8 LINE SMOOTH",
"553 2 OFFCURVE",
"559 0 OFFCURVE",
"566 0 CURVE SMOOTH",
"672 0 LINE SMOOTH",
"679 0 OFFCURVE",
"685 2 OFFCURVE",
"691 8 CURVE SMOOTH",
"836 152 LINE SMOOTH",
"842 158 OFFCURVE",
"844 163 OFFCURVE",
"844 171 CURVE SMOOTH",
"843 835 LINE SMOOTH",
"843 845 OFFCURVE",
"839 850 OFFCURVE",
"829 850 CURVE SMOOTH"
);
},
{
closed = 1;
nodes = (
"867 640 OFFCURVE",
"873 634 OFFCURVE",
"882 634 CURVE SMOOTH",
"972 634 LINE SMOOTH",
"989 634 OFFCURVE",
"1003 648 OFFCURVE",
"1003 672 CURVE SMOOTH",
"1003 791 LINE SMOOTH",
"1003 798 OFFCURVE",
"1001 804 OFFCURVE",
"995 809 CURVE SMOOTH",
"959 843 LINE SMOOTH",
"954 848 OFFCURVE",
"947 850 OFFCURVE",
"940 850 CURVE SMOOTH",
"821 850 LINE SMOOTH",
"812 850 OFFCURVE",
"806 844 OFFCURVE",
"806 835 CURVE SMOOTH",
"806 694 LINE SMOOTH",
"806 685 OFFCURVE",
"812 679 OFFCURVE",
"821 679 CURVE SMOOTH",
"867 679 LINE",
"867 649 LINE SMOOTH"
);
}
);
width = 856;
}
);
unicode = "2C72,2C73";
},
{
glyphname = X;
lastChange = "2023-05-20 14:37:02 +0000";
layers = (
{
anchors = (
{
name = bottom;
position = "{296, 0}";
},
{
name = top;
position = "{296, 800}";
}
);
layerId = "462F72A0-0500-4E69-A49B-6C2F2580580D";
paths = (
{
closed = 1;
nodes = (
"28 455 OFFCURVE",
"28 449 OFFCURVE",
"34 444 CURVE SMOOTH",
"114 380 LINE",
"114 359 LINE",
"36 296 LINE SMOOTH",
"30 291 OFFCURVE",
"30 285 OFFCURVE",
"30 278 CURVE SMOOTH",
"30 15 LINE SMOOTH",
"30 6 OFFCURVE",
"36 0 OFFCURVE",
"45 0 CURVE SMOOTH",
"259 0 LINE SMOOTH",
"268 0 OFFCURVE",
"274 6 OFFCURVE",
"274 15 CURVE SMOOTH",
"274 257 LINE",
"319 257 LINE",
"319 15 LINE SMOOTH",
"319 6 OFFCURVE",
"325 0 OFFCURVE",
"334 0 CURVE SMOOTH",
"548 0 LINE SMOOTH",
"557 0 OFFCURVE",
"563 6 OFFCURVE",
"563 15 CURVE SMOOTH",
"563 278 LINE SMOOTH",
"563 285 OFFCURVE",
"563 292 OFFCURVE",
"557 296 CURVE SMOOTH",
"475 359 LINE",
"475 380 LINE",
"555 444 LINE SMOOTH",
"561 449 OFFCURVE",
"561 455 OFFCURVE",
"561 462 CURVE SMOOTH",
"561 785 LINE SMOOTH",
"561 794 OFFCURVE",
"555 800 OFFCURVE",
"546 800 CURVE SMOOTH",
"332 800 LINE SMOOTH",
"323 800 OFFCURVE",
"317 794 OFFCURVE",
"317 785 CURVE SMOOTH",
"317 483 LINE",
"272 483 LINE",
"272 785 LINE SMOOTH",
"272 794 OFFCURVE",
"266 800 OFFCURVE",
"257 800 CURVE SMOOTH",
"43 800 LINE SMOOTH",
"34 800 OFFCURVE",
"28 794 OFFCURVE",
"28 785 CURVE SMOOTH",
"28 462 LINE SMOOTH"
);
}
);
width = 591;
}
);
unicode = 0058;
},
{
glyphname = Y;
lastChange = "2023-05-20 14:37:02 +0000";
layers = (
{
anchors = (
{
name = bottom;
position = "{300, -22}";
},
{
name = top;
position = "{300, 800}";
},
{
name = topleft;
position = "{53, 800}";
}
);
layerId = "462F72A0-0500-4E69-A49B-6C2F2580580D";
paths = (
{
closed = 1;
nodes = (
"405 0 LINE SMOOTH",
"414 0 OFFCURVE",
"420 6 OFFCURVE",
"420 15 CURVE SMOOTH",
"420 260 LINE",
"568 414 LINE SMOOTH",
"573 420 OFFCURVE",
"574 425 OFFCURVE",
"574 432 CURVE SMOOTH",
"574 785 LINE SMOOTH",
"574 794 OFFCURVE",
"568 800 OFFCURVE",
"559 800 CURVE SMOOTH",
"345 800 LINE SMOOTH",
"336 800 OFFCURVE",
"330 794 OFFCURVE",
"330 785 CURVE SMOOTH",
"330 492 LINE",
"270 492 LINE",
"270 785 LINE SMOOTH",
"270 794 OFFCURVE",
"264 800 OFFCURVE",
"255 800 CURVE SMOOTH",
"41 800 LINE SMOOTH",
"32 800 OFFCURVE",
"26 794 OFFCURVE",
"26 785 CURVE SMOOTH",
"26 432 LINE SMOOTH",
"26 425 OFFCURVE",
"27 420 OFFCURVE",
"32 414 CURVE SMOOTH",
"180 260 LINE",
"180 15 LINE SMOOTH",
"180 6 OFFCURVE",
"186 0 OFFCURVE",
"195 0 CURVE SMOOTH"
);
}
);
width = 600;
},
{
anchors = (
{
name = bottom;
position = "{268, -22}";
},
{
name = top;
position = "{268, 800}";
},
{
name = topleft;
position = "{20, 800}";
}
);
associatedMasterId = "462F72A0-0500-4E69-A49B-6C2F2580580D";
layerId = "F890D65D-2DF4-43D1-88D7-AA4194B0BC3E";
name = "Jun 2 22, 02:37";
paths = (
{
closed = 1;
nodes = (
"5 425 OFFCURVE",
"6 420 OFFCURVE",
"11 414 CURVE SMOOTH",
"149 260 LINE",
"149 15 LINE SMOOTH",
"149 6 OFFCURVE",
"155 0 OFFCURVE",
"164 0 CURVE SMOOTH",
"371 0 LINE SMOOTH",
"380 0 OFFCURVE",
"386 6 OFFCURVE",
"386 15 CURVE SMOOTH",
"386 260 LINE",
"525 414 LINE SMOOTH",
"530 420 OFFCURVE",
"531 425 OFFCURVE",
"531 432 CURVE SMOOTH",
"531 785 LINE SMOOTH",
"531 794 OFFCURVE",
"525 800 OFFCURVE",
"516 800 CURVE SMOOTH",
"302 800 LINE SMOOTH",
"293 800 OFFCURVE",
"287 794 OFFCURVE",
"287 785 CURVE SMOOTH",
"287 493 LINE",
"249 493 LINE",
"249 785 LINE SMOOTH",
"249 794 OFFCURVE",
"243 800 OFFCURVE",
"234 800 CURVE SMOOTH",
"20 800 LINE SMOOTH",
"11 800 OFFCURVE",
"5 794 OFFCURVE",
"5 785 CURVE SMOOTH",
"5 432 LINE SMOOTH"
);
}
);
width = 536;
}
);
unicode = 0059;
},
{
glyphname = Yhook;
lastChange = "2023-09-15 18:00:35 +0000";
layers = (
{
anchors = (
{
name = bottom;
position = "{268, -22}";
},
{
name = top;
position = "{659, 702}";
},
{
name = topleft;
position = "{20, 800}";
}
);
layerId = "462F72A0-0500-4E69-A49B-6C2F2580580D";
paths = (
{
closed = 1;
nodes = (
"536 660 OFFCURVE",
"542 654 OFFCURVE",
"551 654 CURVE SMOOTH",
"634 654 LINE SMOOTH",
"651 654 OFFCURVE",
"665 668 OFFCURVE",
"665 692 CURVE SMOOTH",
"665 791 LINE SMOOTH",
"665 798 OFFCURVE",
"663 804 OFFCURVE",
"657 809 CURVE SMOOTH",
"621 843 LINE SMOOTH",
"616 848 OFFCURVE",
"609 850 OFFCURVE",
"602 850 CURVE SMOOTH",
"481 850 LINE SMOOTH",
"472 850 OFFCURVE",
"466 844 OFFCURVE",
"466 835 CURVE SMOOTH",
"466 704 LINE SMOOTH",
"466 695 OFFCURVE",
"472 689 OFFCURVE",
"481 689 CURVE SMOOTH",
"536 689 LINE",
"536 669 LINE SMOOTH"
);
},
{
closed = 1;
nodes = (
"5 425 OFFCURVE",
"6 420 OFFCURVE",
"11 414 CURVE SMOOTH",
"149 260 LINE",
"149 15 LINE SMOOTH",
"149 6 OFFCURVE",
"155 0 OFFCURVE",
"164 0 CURVE SMOOTH",
"351 0 LINE SMOOTH",
"360 0 OFFCURVE",
"366 6 OFFCURVE",
"366 15 CURVE SMOOTH",
"366 260 LINE",
"505 414 LINE SMOOTH",
"510 420 OFFCURVE",
"511 425 OFFCURVE",
"511 432 CURVE SMOOTH",
"511 835 LINE SMOOTH",
"511 844 OFFCURVE",
"505 850 OFFCURVE",
"496 850 CURVE SMOOTH",
"351 850 LINE SMOOTH",
"344 850 OFFCURVE",
"338 847 OFFCURVE",
"333 841 CURVE SMOOTH",
"294 795 LINE SMOOTH",
"289 790 OFFCURVE",
"287 783 OFFCURVE",
"287 776 CURVE SMOOTH",
"287 493 LINE",
"249 493 LINE",
"249 785 LINE SMOOTH",
"249 794 OFFCURVE",
"243 800 OFFCURVE",
"234 800 CURVE SMOOTH",
"20 800 LINE SMOOTH",
"11 800 OFFCURVE",
"5 794 OFFCURVE",
"5 785 CURVE SMOOTH",
"5 432 LINE SMOOTH"
);
}
);
width = 625;
}
);
unicode = "01B3,01B4";
},
{
glyphname = Z;
lastChange = "2023-05-20 14:37:02 +0000";
layers = (
{
anchors = (
{
name = bottom;
position = "{233, -30}";
},
{
name = center;
position = "{233, 400}";
},
{
name = top;
position = "{233, 800}";
}
);
layerId = "462F72A0-0500-4E69-A49B-6C2F2580580D";
paths = (
{
closed = 1;
nodes = (
"81 10 LINE SMOOTH",
"85 3 OFFCURVE",
"91 0 OFFCURVE",
"99 0 CURVE SMOOTH",
"443 0 LINE SMOOTH",
"452 0 OFFCURVE",
"458 6 OFFCURVE",
"458 15 CURVE SMOOTH",
"458 217 LINE SMOOTH",
"458 226 OFFCURVE",
"452 232 OFFCURVE",
"443 232 CURVE SMOOTH",
"302 232 LINE",
"302 244 LINE",
"474 649 LINE SMOOTH",
"477 656 OFFCURVE",
"477 664 OFFCURVE",
"472 670 CURVE SMOOTH",
"386 791 LINE SMOOTH",
"382 797 OFFCURVE",
"376 800 OFFCURVE",
"368 800 CURVE SMOOTH",
"34 800 LINE SMOOTH",
"25 800 OFFCURVE",
"19 794 OFFCURVE",
"19 785 CURVE SMOOTH",
"19 583 LINE SMOOTH",
"19 574 OFFCURVE",
"25 568 OFFCURVE",
"34 568 CURVE SMOOTH",
"163 568 LINE",
"163 558 LINE",
"4 158 LINE SMOOTH",
"1 150 OFFCURVE",
"2 144 OFFCURVE",
"6 137 CURVE SMOOTH"
);
}
);
width = 476;
}
);
unicode = 005A;
},
{
glyphname = Bhook.alt;
lastChange = "2023-09-02 16:32:30 +0000";
layers = (
{
components = (
{
name = B;
}
);
layerId = "462F72A0-0500-4E69-A49B-6C2F2580580D";
paths = (
{
closed = 1;
nodes = (
"264 873 LINE SMOOTH",
"264 887 OFFCURVE",
"259 898 OFFCURVE",
"247 909 CURVE SMOOTH",
"175 978 LINE SMOOTH",
"165 988 OFFCURVE",
"151 992 OFFCURVE",
"136 992 CURVE SMOOTH",
"61 992 LINE SMOOTH",
"43 992 OFFCURVE",
"31 980 OFFCURVE",
"31 962 CURVE SMOOTH",
"30 775 LINE",
"263 775 LINE"
);
}
);
width = 582;
}
);
},
{
glyphname = M.alt;
lastChange = "2023-06-02 17:47:30 +0000";
layers = (
{
anchors = (
{
name = bottom;
position = "{442, 0}";
},
{
name = top;
position = "{442, 830}";
}
);
layerId = "462F72A0-0500-4E69-A49B-6C2F2580580D";
paths = (
{
closed = 1;
nodes = (
"30 7 OFFCURVE",
"37 0 OFFCURVE",
"45 0 CURVE SMOOTH",
"249 0 LINE SMOOTH",
"257 0 OFFCURVE",
"259 7 OFFCURVE",
"259 15 CURVE SMOOTH",
"259 386 LINE",
"269 386 LINE",
"293 122 LINE SMOOTH",
"294 115 OFFCURVE",
"300 109 OFFCURVE",
"307 109 CURVE SMOOTH",
"423 109 LINE SMOOTH",
"430 109 OFFCURVE",
"437 115 OFFCURVE",
"438 122 CURVE SMOOTH",
"467 386 LINE",
"477 386 LINE",
"477 15 LINE SMOOTH",
"477 7 OFFCURVE",
"478 0 OFFCURVE",
"486 0 CURVE SMOOTH",
"690 0 LINE SMOOTH",
"698 0 OFFCURVE",
"705 7 OFFCURVE",
"705 15 CURVE SMOOTH",
"705 785 LINE SMOOTH",
"705 793 OFFCURVE",
"698 800 OFFCURVE",
"690 800 CURVE SMOOTH",
"413 800 LINE SMOOTH",
"406 800 OFFCURVE",
"400 796 OFFCURVE",
"399 788 CURVE SMOOTH",
"370 507 LINE",
"366 507 LINE",
"336 788 LINE SMOOTH",
"335 796 OFFCURVE",
"329 800 OFFCURVE",
"322 800 CURVE SMOOTH",
"45 800 LINE SMOOTH",
"37 800 OFFCURVE",
"30 793 OFFCURVE",
"30 785 CURVE SMOOTH",
"30 15 LINE SMOOTH"
);
}
);
width = 735;
}
);
},
{
glyphname = N.alt;
lastChange = "2023-05-18 13:23:12 +0000";
layers = (
{
layerId = "462F72A0-0500-4E69-A49B-6C2F2580580D";
paths = (
{
closed = 1;
nodes = (
"30 6 OFFCURVE",
"36 0 OFFCURVE",
"45 0 CURVE SMOOTH",
"249 0 LINE SMOOTH",
"258 0 OFFCURVE",
"264 6 OFFCURVE",
"264 15 CURVE SMOOTH",
"264 288 LINE",
"270 288 LINE",
"352 10 LINE SMOOTH",
"354 3 OFFCURVE",
"360 0 OFFCURVE",
"366 0 CURVE SMOOTH",
"567 0 LINE SMOOTH",
"576 0 OFFCURVE",
"582 6 OFFCURVE",
"582 15 CURVE SMOOTH",
"582 785 LINE SMOOTH",
"582 794 OFFCURVE",
"576 800 OFFCURVE",
"567 800 CURVE SMOOTH",
"363 800 LINE SMOOTH",
"354 800 OFFCURVE",
"348 794 OFFCURVE",
"348 785 CURVE SMOOTH",
"348 536 LINE",
"342 536 LINE",
"260 791 LINE SMOOTH",
"258 796 OFFCURVE",
"253 800 OFFCURVE",
"247 800 CURVE SMOOTH",
"45 800 LINE SMOOTH",
"36 800 OFFCURVE",
"30 794 OFFCURVE",
"30 785 CURVE SMOOTH",
"30 15 LINE SMOOTH"
);
}
);
width = 600;
}
);
},
{
glyphname = Ccaron.czech;
lastChange = "2023-09-01 21:19:07 +0000";
layers = (
{
anchors = (
{
name = bottom;
position = "{247, -30}";
},
{
name = top;
position = "{250, 800}";
}
);
components = (
{
name = circumflexcomb;
transform = "{-1, 0, 0, -1, 482, 1813}";
}
);
layerId = "462F72A0-0500-4E69-A49B-6C2F2580580D";
paths = (
{
closed = 1;
nodes = (
"397 0 LINE SMOOTH",
"406 0 OFFCURVE",
"412 6 OFFCURVE",
"412 15 CURVE SMOOTH",
"412 181 LINE SMOOTH",
"412 188 OFFCURVE",
"412 194 OFFCURVE",
"406 199 CURVE SMOOTH",
"263 338 LINE",
"263 462 LINE",
"405 600 LINE SMOOTH",
"411 605 OFFCURVE",
"412 612 OFFCURVE",
"412 619 CURVE SMOOTH",
"412 785 LINE SMOOTH",
"412 794 OFFCURVE",
"406 800 OFFCURVE",
"397 800 CURVE SMOOTH",
"229 800 LINE SMOOTH",
"218 800 OFFCURVE",
"212 798 OFFCURVE",
"205 792 CURVE SMOOTH",
"25 644 LINE SMOOTH",
"16 636 OFFCURVE",
"15 633 OFFCURVE",
"15 620 CURVE SMOOTH",
"15 180 LINE SMOOTH",
"15 167 OFFCURVE",
"16 163 OFFCURVE",
"25 156 CURVE SMOOTH",
"201 8 LINE SMOOTH",
"208 2 OFFCURVE",
"214 0 OFFCURVE",
"225 0 CURVE SMOOTH"
);
}
);
width = 428;
}
);
},
{
glyphname = Iacute.czech;
lastChange = "2023-09-01 21:19:02 +0000";
layers = (
{
anchors = (
{
name = top;
position = "{148, 990}";
}
);
components = (
{
name = I;
}
);
layerId = "462F72A0-0500-4E69-A49B-6C2F2580580D";
paths = (
{
closed = 1;
nodes = (
"287 865 LINE SMOOTH",
"295 868 OFFCURVE",
"297 877 OFFCURVE",
"294 885 CURVE SMOOTH",
"254 1002 LINE SMOOTH",
"251 1012 OFFCURVE",
"243 1016 OFFCURVE",
"234 1011 CURVE SMOOTH",
"52 900 LINE SMOOTH",
"44 895 OFFCURVE",
"42 888 OFFCURVE",
"45 879 CURVE SMOOTH",
"70 804 LINE SMOOTH",
"73 795 OFFCURVE",
"80 794 OFFCURVE",
"89 797 CURVE SMOOTH"
);
}
);
width = 315;
}
);
},
{
glyphname = P.ss01;
lastChange = "2022-06-03 22:56:43 +0000";
layers = (
{
layerId = "462F72A0-0500-4E69-A49B-6C2F2580580D";
paths = (
{
closed = 1;
nodes = (
"259 0 LINE SMOOTH",
"267 0 OFFCURVE",
"274 7 OFFCURVE",
"274 15 CURVE SMOOTH",
"274 123 LINE SMOOTH",
"274 131 OFFCURVE",
"281 138 OFFCURVE",
"289 138 CURVE SMOOTH",
"434 138 LINE SMOOTH",
"438 138 OFFCURVE",
"443 140 OFFCURVE",
"445 143 CURVE SMOOTH",
"558 297 LINE SMOOTH",
"559 299 OFFCURVE",
"560 302 OFFCURVE",
"560 304 CURVE SMOOTH",
"560 629 LINE SMOOTH",
"560 631 OFFCURVE",
"559 633 OFFCURVE",
"557 636 CURVE SMOOTH",
"428 795 LINE SMOOTH",
"426 798 OFFCURVE",
"422 800 OFFCURVE",
"418 800 CURVE SMOOTH",
"47 800 LINE SMOOTH",
"39 800 OFFCURVE",
"32 793 OFFCURVE",
"32 785 CURVE SMOOTH",
"30 15 LINE SMOOTH",
"30 7 OFFCURVE",
"37 0 OFFCURVE",
"45 0 CURVE SMOOTH"
);
},
{
closed = 1;
nodes = (
"270 407 OFFCURVE",
"246 431 OFFCURVE",
"246 465 CURVE SMOOTH",
"246 499 OFFCURVE",
"270 523 OFFCURVE",
"304 523 CURVE SMOOTH",
"338 523 OFFCURVE",
"362 499 OFFCURVE",
"362 465 CURVE SMOOTH",
"362 431 OFFCURVE",
"338 407 OFFCURVE",
"304 407 CURVE SMOOTH"
);
}
);
width = 586;
},
{
associatedMasterId = "462F72A0-0500-4E69-A49B-6C2F2580580D";
layerId = "BD712199-67CA-4BCC-B7B6-9BCE0A0CC1AB";
name = "Jun 3 22, 18:56";
paths = (
{
closed = 1;
nodes = (
"259 0 LINE SMOOTH",
"267 0 OFFCURVE",
"274 7 OFFCURVE",
"274 15 CURVE SMOOTH",
"274 123 LINE SMOOTH",
"274 131 OFFCURVE",
"281 138 OFFCURVE",
"289 138 CURVE SMOOTH",
"434 138 LINE SMOOTH",
"438 138 OFFCURVE",
"443 140 OFFCURVE",
"445 143 CURVE SMOOTH",
"558 297 LINE SMOOTH",
"559 299 OFFCURVE",
"560 302 OFFCURVE",
"560 304 CURVE SMOOTH",
"560 629 LINE SMOOTH",
"560 631 OFFCURVE",
"559 633 OFFCURVE",
"557 636 CURVE SMOOTH",
"428 795 LINE SMOOTH",
"426 798 OFFCURVE",
"422 800 OFFCURVE",
"418 800 CURVE SMOOTH",
"47 800 LINE SMOOTH",
"39 800 OFFCURVE",
"32 793 OFFCURVE",
"32 785 CURVE SMOOTH",
"30 15 LINE SMOOTH",
"30 7 OFFCURVE",
"37 0 OFFCURVE",
"45 0 CURVE SMOOTH"
);
},
{
closed = 1;
nodes = (
"270 407 OFFCURVE",
"246 431 OFFCURVE",
"246 465 CURVE SMOOTH",
"246 499 OFFCURVE",
"270 523 OFFCURVE",
"304 523 CURVE SMOOTH",
"338 523 OFFCURVE",
"362 499 OFFCURVE",
"362 465 CURVE SMOOTH",
"362 431 OFFCURVE",
"338 407 OFFCURVE",
"304 407 CURVE SMOOTH"
);
}
);
width = 586;
}
);
},
{
glyphname = R.ss01;
lastChange = "2022-07-30 06:39:28 +0000";
layers = (
{
layerId = "462F72A0-0500-4E69-A49B-6C2F2580580D";
paths = (
{
closed = 1;
nodes = (
"259 0 LINE SMOOTH",
"268 0 OFFCURVE",
"274 6 OFFCURVE",
"274 15 CURVE SMOOTH",
"274 212 LINE",
"310 212 LINE",
"382 12 LINE SMOOTH",
"385 4 OFFCURVE",
"392 0 OFFCURVE",
"400 0 CURVE SMOOTH",
"574 0 LINE SMOOTH",
"583 0 OFFCURVE",
"589 7 OFFCURVE",
"589 15 CURVE SMOOTH",
"589 149 LINE SMOOTH",
"589 159 OFFCURVE",
"587 165 OFFCURVE",
"584 172 CURVE SMOOTH",
"485 372 LINE",
"485 384 LINE",
"568 463 LINE SMOOTH",
"575 469 OFFCURVE",
"578 473 OFFCURVE",
"578 481 CURVE SMOOTH",
"578 644 LINE SMOOTH",
"578 657 OFFCURVE",
"577 660 OFFCURVE",
"568 668 CURVE SMOOTH",
"430 792 LINE SMOOTH",
"423 798 OFFCURVE",
"417 800 OFFCURVE",
"406 800 CURVE SMOOTH",
"45 800 LINE SMOOTH",
"36 800 OFFCURVE",
"30 794 OFFCURVE",
"30 785 CURVE SMOOTH",
"30 15 LINE SMOOTH",
"30 6 OFFCURVE",
"36 0 OFFCURVE",
"45 0 CURVE SMOOTH"
);
},
{
closed = 1;
nodes = (
"259 484 OFFCURVE",
"236 507 OFFCURVE",
"236 539 CURVE SMOOTH",
"236 571 OFFCURVE",
"259 594 OFFCURVE",
"291 594 CURVE SMOOTH",
"323 594 OFFCURVE",
"346 571 OFFCURVE",
"346 539 CURVE SMOOTH",
"346 507 OFFCURVE",
"323 484 OFFCURVE",
"291 484 CURVE SMOOTH"
);
}
);
width = 597;
},
{
associatedMasterId = "462F72A0-0500-4E69-A49B-6C2F2580580D";
layerId = "82B596CF-89D3-48CD-906E-5F554FDB1D33";
name = "Jul 30 22, 02:37";
paths = (
{
closed = 1;
nodes = (
"401 4 OFFCURVE",
"408 0 OFFCURVE",
"416 0 CURVE SMOOTH",
"574 0 LINE SMOOTH",
"583 0 OFFCURVE",
"589 7 OFFCURVE",
"589 15 CURVE SMOOTH",
"589 131 LINE SMOOTH",
"589 141 OFFCURVE",
"587 147 OFFCURVE",
"584 154 CURVE SMOOTH",
"485 362 LINE",
"485 384 LINE",
"568 463 LINE SMOOTH",
"575 469 OFFCURVE",
"578 473 OFFCURVE",
"578 481 CURVE SMOOTH",
"578 644 LINE SMOOTH",
"578 657 OFFCURVE",
"577 660 OFFCURVE",
"568 668 CURVE SMOOTH",
"430 792 LINE SMOOTH",
"423 798 OFFCURVE",
"417 800 OFFCURVE",
"406 800 CURVE SMOOTH",
"45 800 LINE SMOOTH",
"36 800 OFFCURVE",
"30 794 OFFCURVE",
"30 785 CURVE SMOOTH",
"30 15 LINE SMOOTH",
"30 6 OFFCURVE",
"36 0 OFFCURVE",
"45 0 CURVE SMOOTH",
"259 0 LINE SMOOTH",
"268 0 OFFCURVE",
"274 6 OFFCURVE",
"274 15 CURVE SMOOTH",
"274 58 LINE",
"274 212 LINE SMOOTH",
"274 226 OFFCURVE",
"282 234 OFFCURVE",
"295 234 CURVE SMOOTH",
"308 234 OFFCURVE",
"311 225 OFFCURVE",
"316 214 CURVE SMOOTH",
"398 12 LINE SMOOTH"
);
},
{
closed = 1;
nodes = (
"269 484 OFFCURVE",
"246 507 OFFCURVE",
"246 539 CURVE SMOOTH",
"246 571 OFFCURVE",
"269 594 OFFCURVE",
"301 594 CURVE SMOOTH",
"333 594 OFFCURVE",
"356 571 OFFCURVE",
"356 539 CURVE SMOOTH",
"356 507 OFFCURVE",
"333 484 OFFCURVE",
"301 484 CURVE SMOOTH"
);
}
);
width = 597;
}
);
leftMetricsKey = H;
rightMetricsKey = R;
},
{
glyphname = P.ss02;
lastChange = "2023-05-18 02:13:51 +0000";
layers = (
{
associatedMasterId = "462F72A0-0500-4E69-A49B-6C2F2580580D";
layerId = "F2CDC9BD-0C18-42E5-8E18-D0B8285E6F8A";
name = Original;
paths = (
{
closed = 1;
nodes = (
"373 800 LINE SMOOTH",
"380 800 OFFCURVE",
"387 798 OFFCURVE",
"392 793 CURVE SMOOTH",
"536 667 LINE SMOOTH",
"542 662 OFFCURVE",
"544 656 OFFCURVE",
"544 649 CURVE SMOOTH",
"544 400 LINE SMOOTH",
"544 393 OFFCURVE",
"542 387 OFFCURVE",
"537 381 CURVE SMOOTH",
"417 246 LINE SMOOTH",
"412 240 OFFCURVE",
"406 238 OFFCURVE",
"399 238 CURVE SMOOTH",
"269 238 LINE",
"269 15 LINE SMOOTH",
"269 6 OFFCURVE",
"263 0 OFFCURVE",
"254 0 CURVE SMOOTH",
"36 0 LINE SMOOTH",
"27 0 OFFCURVE",
"21 6 OFFCURVE",
"21 15 CURVE SMOOTH",
"21 785 LINE SMOOTH",
"21 794 OFFCURVE",
"27 800 OFFCURVE",
"36 800 CURVE SMOOTH"
);
},
{
closed = 1;
nodes = (
"309 450 OFFCURVE",
"334 475 OFFCURVE",
"334 505 CURVE SMOOTH",
"334 535 OFFCURVE",
"309 560 OFFCURVE",
"279 560 CURVE SMOOTH",
"249 560 OFFCURVE",
"231 535 OFFCURVE",
"231 505 CURVE SMOOTH",
"231 475 OFFCURVE",
"249 450 OFFCURVE",
"279 450 CURVE SMOOTH"
);
}
);
width = 535;
},
{
associatedMasterId = "462F72A0-0500-4E69-A49B-6C2F2580580D";
layerId = "C71184BF-58F7-4666-A63B-050E2A806EDF";
name = /R;
paths = (
{
closed = 1;
nodes = (
"259 0 LINE SMOOTH",
"268 0 OFFCURVE",
"274 6 OFFCURVE",
"274 15 CURVE SMOOTH",
"274 233 LINE",
"288 233 LINE",
"346 12 LINE SMOOTH",
"348 4 OFFCURVE",
"356 0 OFFCURVE",
"364 0 CURVE SMOOTH",
"574 0 LINE SMOOTH",
"583 0 OFFCURVE",
"589 6 OFFCURVE",
"589 15 CURVE SMOOTH",
"589 162 LINE SMOOTH",
"589 170 OFFCURVE",
"588 174 OFFCURVE",
"583 182 CURVE SMOOTH",
"485 350 LINE",
"485 384 LINE",
"568 463 LINE SMOOTH",
"575 469 OFFCURVE",
"578 473 OFFCURVE",
"578 481 CURVE SMOOTH",
"578 644 LINE SMOOTH",
"578 657 OFFCURVE",
"577 660 OFFCURVE",
"568 668 CURVE SMOOTH",
"430 792 LINE SMOOTH",
"423 798 OFFCURVE",
"417 800 OFFCURVE",
"406 800 CURVE SMOOTH",
"45 800 LINE SMOOTH",
"36 800 OFFCURVE",
"30 794 OFFCURVE",
"30 785 CURVE SMOOTH",
"30 15 LINE SMOOTH",
"30 6 OFFCURVE",
"36 0 OFFCURVE",
"45 0 CURVE SMOOTH"
);
},
{
closed = 1;
nodes = (
"259 460 OFFCURVE",
"236 483 OFFCURVE",
"236 515 CURVE SMOOTH",
"236 547 OFFCURVE",
"259 570 OFFCURVE",
"291 570 CURVE SMOOTH",
"323 570 OFFCURVE",
"346 547 OFFCURVE",
"346 515 CURVE SMOOTH",
"346 483 OFFCURVE",
"323 460 OFFCURVE",
"291 460 CURVE SMOOTH"
);
}
);
visible = 1;
width = 574;
},
{
associatedMasterId = "462F72A0-0500-4E69-A49B-6C2F2580580D";
guideLines = (
{
position = "{0, 519}";
showMeasurement = 1;
},
{
angle = 90;
position = "{291, 0}";
showMeasurement = 1;
}
);
layerId = "611CF714-D675-4764-B75D-8BAAA8305A5F";
name = "Jun 3 22, 18:56";
paths = (
{
closed = 1;
nodes = (
"259 0 LINE SMOOTH",
"268 0 OFFCURVE",
"274 6 OFFCURVE",
"274 15 CURVE SMOOTH",
"274 198 LINE",
"405 198 LINE SMOOTH",
"412 198 OFFCURVE",
"418 200 OFFCURVE",
"423 206 CURVE SMOOTH",
"543 341 LINE SMOOTH",
"548 347 OFFCURVE",
"550 353 OFFCURVE",
"550 360 CURVE SMOOTH",
"550 649 LINE SMOOTH",
"550 656 OFFCURVE",
"548 662 OFFCURVE",
"542 667 CURVE SMOOTH",
"398 793 LINE SMOOTH",
"393 798 OFFCURVE",
"386 800 OFFCURVE",
"379 800 CURVE SMOOTH",
"45 800 LINE SMOOTH",
"36 800 OFFCURVE",
"30 794 OFFCURVE",
"30 785 CURVE SMOOTH",
"30 15 LINE SMOOTH",
"30 6 OFFCURVE",
"36 0 OFFCURVE",
"45 0 CURVE SMOOTH"
);
},
{
closed = 1;
nodes = (
"259 444 OFFCURVE",
"236 467 OFFCURVE",
"236 499 CURVE SMOOTH",
"236 531 OFFCURVE",
"259 554 OFFCURVE",
"291 554 CURVE SMOOTH",
"323 554 OFFCURVE",
"346 531 OFFCURVE",
"346 499 CURVE SMOOTH",
"346 467 OFFCURVE",
"323 444 OFFCURVE",
"291 444 CURVE SMOOTH"
);
}
);
width = 572;
},
{
guideLines = (
{
position = "{0, 499}";
showMeasurement = 1;
},
{
angle = 90;
position = "{287, 0}";
showMeasurement = 1;
}
);
layerId = "462F72A0-0500-4E69-A49B-6C2F2580580D";
paths = (
{
closed = 1;
nodes = (
"261 0 LINE SMOOTH",
"270 0 OFFCURVE",
"276 6 OFFCURVE",
"276 15 CURVE SMOOTH",
"276 198 LINE",
"411 198 LINE SMOOTH",
"418 198 OFFCURVE",
"424 200 OFFCURVE",
"429 206 CURVE SMOOTH",
"549 341 LINE SMOOTH",
"554 347 OFFCURVE",
"556 353 OFFCURVE",
"556 360 CURVE SMOOTH",
"556 649 LINE SMOOTH",
"556 656 OFFCURVE",
"554 662 OFFCURVE",
"548 667 CURVE SMOOTH",
"404 793 LINE SMOOTH",
"399 798 OFFCURVE",
"392 800 OFFCURVE",
"385 800 CURVE SMOOTH",
"45 800 LINE SMOOTH",
"36 800 OFFCURVE",
"30 794 OFFCURVE",
"30 785 CURVE SMOOTH",
"30 15 LINE SMOOTH",
"30 6 OFFCURVE",
"36 0 OFFCURVE",
"45 0 CURVE SMOOTH"
);
},
{
closed = 1;
nodes = (
"259 444 OFFCURVE",
"236 467 OFFCURVE",
"236 499 CURVE SMOOTH",
"236 531 OFFCURVE",
"259 554 OFFCURVE",
"291 554 CURVE SMOOTH",
"323 554 OFFCURVE",
"346 531 OFFCURVE",
"346 499 CURVE SMOOTH",
"346 467 OFFCURVE",
"323 444 OFFCURVE",
"291 444 CURVE SMOOTH"
);
}
);
width = 577;
},
{
associatedMasterId = "462F72A0-0500-4E69-A49B-6C2F2580580D";
guideLines = (
{
position = "{0, 519}";
showMeasurement = 1;
},
{
angle = 90;
position = "{287, 0}";
showMeasurement = 1;
}
);
layerId = "A77E2241-E446-47A8-BA67-980D67FAA281";
name = "Jun 3 22, 18:56";
paths = (
{
closed = 1;
nodes = (
"259 0 LINE SMOOTH",
"268 0 OFFCURVE",
"274 6 OFFCURVE",
"274 15 CURVE SMOOTH",
"274 238 LINE",
"405 238 LINE SMOOTH",
"412 238 OFFCURVE",
"418 240 OFFCURVE",
"423 246 CURVE SMOOTH",
"543 381 LINE SMOOTH",
"548 387 OFFCURVE",
"550 393 OFFCURVE",
"550 400 CURVE SMOOTH",
"550 649 LINE SMOOTH",
"550 656 OFFCURVE",
"548 662 OFFCURVE",
"542 667 CURVE SMOOTH",
"398 793 LINE SMOOTH",
"393 798 OFFCURVE",
"386 800 OFFCURVE",
"379 800 CURVE SMOOTH",
"45 800 LINE SMOOTH",
"36 800 OFFCURVE",
"30 794 OFFCURVE",
"30 785 CURVE SMOOTH",
"30 15 LINE SMOOTH",
"30 6 OFFCURVE",
"36 0 OFFCURVE",
"45 0 CURVE SMOOTH"
);
},
{
closed = 1;
nodes = (
"259 464 OFFCURVE",
"236 487 OFFCURVE",
"236 519 CURVE SMOOTH",
"236 551 OFFCURVE",
"259 574 OFFCURVE",
"291 574 CURVE SMOOTH",
"323 574 OFFCURVE",
"346 551 OFFCURVE",
"346 519 CURVE SMOOTH",
"346 487 OFFCURVE",
"323 464 OFFCURVE",
"291 464 CURVE SMOOTH"
);
}
);
width = 572;
}
);
leftMetricsKey = P;
},
{
glyphname = Pstroke.ss02;
lastChange = "2023-09-15 17:55:26 +0000";
layers = (
{
layerId = "462F72A0-0500-4E69-A49B-6C2F2580580D";
paths = (
{
closed = 1;
nodes = (
"26 800 OFFCURVE",
"20 794 OFFCURVE",
"20 785 CURVE SMOOTH",
"20 15 LINE SMOOTH",
"20 6 OFFCURVE",
"26 0 OFFCURVE",
"35 0 CURVE SMOOTH",
"253 0 LINE SMOOTH",
"262 0 OFFCURVE",
"268 6 OFFCURVE",
"268 15 CURVE SMOOTH",
"268 238 LINE",
"398 238 LINE SMOOTH",
"405 238 OFFCURVE",
"411 240 OFFCURVE",
"416 246 CURVE SMOOTH",
"536 381 LINE SMOOTH",
"541 387 OFFCURVE",
"543 393 OFFCURVE",
"543 400 CURVE SMOOTH",
"543 649 LINE SMOOTH",
"543 656 OFFCURVE",
"541 662 OFFCURVE",
"535 667 CURVE SMOOTH",
"391 793 LINE SMOOTH",
"386 798 OFFCURVE",
"379 800 OFFCURVE",
"372 800 CURVE SMOOTH",
"35 800 LINE SMOOTH"
);
},
{
closed = 1;
nodes = (
"209 387 OFFCURVE",
"172 441 OFFCURVE",
"172 505 CURVE SMOOTH",
"172 569 OFFCURVE",
"209 623 OFFCURVE",
"274 623 CURVE SMOOTH",
"338 623 OFFCURVE",
"391 569 OFFCURVE",
"391 505 CURVE SMOOTH",
"391 441 OFFCURVE",
"338 387 OFFCURVE",
"274 387 CURVE SMOOTH"
);
}
);
width = 551;
}
);
},
{
glyphname = R.ss02;
lastChange = "2022-07-30 07:14:29 +0000";
layers = (
{
associatedMasterId = "462F72A0-0500-4E69-A49B-6C2F2580580D";
layerId = "F196AF72-5018-47CD-A151-E30A843BF63E";
name = "Jul 30 22, 02:43";
paths = (
{
closed = 1;
nodes = (
"45 800 LINE SMOOTH",
"36 800 OFFCURVE",
"30 794 OFFCURVE",
"30 785 CURVE SMOOTH",
"30 15 LINE SMOOTH",
"30 6 OFFCURVE",
"36 0 OFFCURVE",
"45 0 CURVE SMOOTH",
"259 0 LINE SMOOTH",
"268 0 OFFCURVE",
"274 6 OFFCURVE",
"274 15 CURVE SMOOTH",
"274 202 LINE",
"310 202 LINE",
"372 12 LINE SMOOTH",
"375 4 OFFCURVE",
"382 0 OFFCURVE",
"390 0 CURVE SMOOTH",
"574 0 LINE SMOOTH",
"583 0 OFFCURVE",
"589 7 OFFCURVE",
"589 15 CURVE SMOOTH",
"589 129 LINE SMOOTH",
"589 139 OFFCURVE",
"587 145 OFFCURVE",
"584 152 CURVE SMOOTH",
"495 352 LINE",
"495 394 LINE",
"568 463 LINE SMOOTH",
"575 469 OFFCURVE",
"578 473 OFFCURVE",
"578 481 CURVE SMOOTH",
"578 651 LINE SMOOTH",
"578 658 OFFCURVE",
"576 664 OFFCURVE",
"571 670 CURVE SMOOTH",
"461 792 LINE SMOOTH",
"456 798 OFFCURVE",
"449 800 OFFCURVE",
"442 800 CURVE SMOOTH"
);
},
{
closed = 1;
nodes = (
"284 464 OFFCURVE",
"272 476 OFFCURVE",
"272 498 CURVE SMOOTH",
"272 590 LINE SMOOTH",
"272 612 OFFCURVE",
"284 624 OFFCURVE",
"304 624 CURVE SMOOTH",
"324 624 OFFCURVE",
"336 612 OFFCURVE",
"336 590 CURVE SMOOTH",
"336 498 LINE SMOOTH",
"336 476 OFFCURVE",
"324 464 OFFCURVE",
"304 464 CURVE SMOOTH"
);
}
);
width = 597;
},
{
associatedMasterId = "462F72A0-0500-4E69-A49B-6C2F2580580D";
guideLines = (
{
position = "{236, 539}";
showMeasurement = 1;
}
);
layerId = "E6C51F8E-C807-41B1-99A4-4C6A756186A6";
name = "Jul 30 22, 02:46";
paths = (
{
closed = 1;
nodes = (
"259 484 OFFCURVE",
"236 507 OFFCURVE",
"236 539 CURVE SMOOTH",
"236 571 OFFCURVE",
"259 594 OFFCURVE",
"291 594 CURVE SMOOTH",
"323 594 OFFCURVE",
"346 571 OFFCURVE",
"346 539 CURVE SMOOTH",
"346 507 OFFCURVE",
"323 484 OFFCURVE",
"291 484 CURVE SMOOTH"
);
},
{
closed = 1;
nodes = (
"461 340 LINE",
"571 462 LINE SMOOTH",
"576 468 OFFCURVE",
"578 474 OFFCURVE",
"578 481 CURVE SMOOTH",
"578 651 LINE SMOOTH",
"578 658 OFFCURVE",
"576 664 OFFCURVE",
"571 670 CURVE SMOOTH",
"461 792 LINE SMOOTH",
"456 798 OFFCURVE",
"449 800 OFFCURVE",
"442 800 CURVE SMOOTH",
"45 800 LINE SMOOTH",
"36 800 OFFCURVE",
"30 794 OFFCURVE",
"30 785 CURVE SMOOTH",
"30 15 LINE SMOOTH",
"30 6 OFFCURVE",
"36 0 OFFCURVE",
"45 0 CURVE SMOOTH",
"259 0 LINE SMOOTH",
"268 0 OFFCURVE",
"274 6 OFFCURVE",
"274 15 CURVE SMOOTH",
"274 202 LINE",
"310 202 LINE",
"372 12 LINE SMOOTH",
"375 4 OFFCURVE",
"382 0 OFFCURVE",
"390 0 CURVE SMOOTH",
"573 0 LINE SMOOTH",
"582 0 OFFCURVE",
"588 7 OFFCURVE",
"588 15 CURVE SMOOTH",
"588 169 LINE SMOOTH",
"588 179 OFFCURVE",
"588 185 OFFCURVE",
"583 192 CURVE SMOOTH",
"475 332 LINE",
"475 374 LINE"
);
}
);
width = 596;
},
{
associatedMasterId = "462F72A0-0500-4E69-A49B-6C2F2580580D";
guideLines = (
{
position = "{236, 539}";
showMeasurement = 1;
}
);
layerId = "C1322373-E04A-435F-9297-45DFF54C48E6";
name = "Jul 30 22, 02:47";
paths = (
{
closed = 1;
nodes = (
"45 800 LINE SMOOTH",
"36 800 OFFCURVE",
"30 794 OFFCURVE",
"30 785 CURVE SMOOTH",
"30 15 LINE SMOOTH",
"30 6 OFFCURVE",
"36 0 OFFCURVE",
"45 0 CURVE SMOOTH",
"259 0 LINE SMOOTH",
"268 0 OFFCURVE",
"274 6 OFFCURVE",
"274 15 CURVE SMOOTH",
"274 202 LINE",
"310 202 LINE",
"372 12 LINE SMOOTH",
"375 4 OFFCURVE",
"382 0 OFFCURVE",
"390 0 CURVE SMOOTH",
"563 0 LINE SMOOTH",
"572 0 OFFCURVE",
"578 7 OFFCURVE",
"578 15 CURVE SMOOTH",
"578 219 LINE SMOOTH",
"578 229 OFFCURVE",
"578 235 OFFCURVE",
"573 242 CURVE SMOOTH",
"495 352 LINE",
"495 394 LINE",
"568 463 LINE SMOOTH",
"575 469 OFFCURVE",
"578 473 OFFCURVE",
"578 481 CURVE SMOOTH",
"578 651 LINE SMOOTH",
"578 658 OFFCURVE",
"576 664 OFFCURVE",
"571 670 CURVE SMOOTH",
"461 792 LINE SMOOTH",
"456 798 OFFCURVE",
"449 800 OFFCURVE",
"442 800 CURVE SMOOTH"
);
},
{
closed = 1;
nodes = (
"259 484 OFFCURVE",
"236 507 OFFCURVE",
"236 539 CURVE SMOOTH",
"236 571 OFFCURVE",
"259 594 OFFCURVE",
"291 594 CURVE SMOOTH",
"323 594 OFFCURVE",
"346 571 OFFCURVE",
"346 539 CURVE SMOOTH",
"346 507 OFFCURVE",
"323 484 OFFCURVE",
"291 484 CURVE SMOOTH"
);
}
);
width = 596;
},
{
associatedMasterId = "462F72A0-0500-4E69-A49B-6C2F2580580D";
guideLines = (
{
position = "{236, 539}";
showMeasurement = 1;
}
);
layerId = "E6D5C6F9-55E2-466A-9104-EF5CA73BE203";
name = "Jul 30 22, 03:13";
paths = (
{
closed = 1;
nodes = (
"45 800 LINE SMOOTH",
"36 800 OFFCURVE",
"30 794 OFFCURVE",
"30 785 CURVE SMOOTH",
"30 15 LINE SMOOTH",
"30 6 OFFCURVE",
"36 0 OFFCURVE",
"45 0 CURVE SMOOTH",
"259 0 LINE SMOOTH",
"268 0 OFFCURVE",
"274 6 OFFCURVE",
"274 15 CURVE SMOOTH",
"274 184 LINE",
"310 184 LINE",
"372 12 LINE SMOOTH",
"375 4 OFFCURVE",
"382 0 OFFCURVE",
"390 0 CURVE SMOOTH",
"573 0 LINE SMOOTH",
"582 0 OFFCURVE",
"588 7 OFFCURVE",
"588 15 CURVE SMOOTH",
"588 129 LINE SMOOTH",
"588 139 OFFCURVE",
"586 145 OFFCURVE",
"583 152 CURVE SMOOTH",
"495 352 LINE",
"495 394 LINE",
"568 463 LINE SMOOTH",
"575 469 OFFCURVE",
"578 473 OFFCURVE",
"578 481 CURVE SMOOTH",
"578 651 LINE SMOOTH",
"578 658 OFFCURVE",
"576 664 OFFCURVE",
"571 670 CURVE SMOOTH",
"461 792 LINE SMOOTH",
"456 798 OFFCURVE",
"449 800 OFFCURVE",
"442 800 CURVE SMOOTH"
);
},
{
closed = 1;
nodes = (
"259 484 OFFCURVE",
"236 507 OFFCURVE",
"236 539 CURVE SMOOTH",
"236 571 OFFCURVE",
"259 594 OFFCURVE",
"291 594 CURVE SMOOTH",
"323 594 OFFCURVE",
"346 571 OFFCURVE",
"346 539 CURVE SMOOTH",
"346 507 OFFCURVE",
"323 484 OFFCURVE",
"291 484 CURVE SMOOTH"
);
}
);
width = 596;
},
{
associatedMasterId = "462F72A0-0500-4E69-A49B-6C2F2580580D";
guideLines = (
{
position = "{236, 539}";
showMeasurement = 1;
}
);
layerId = "6124E0CE-B223-4417-B19E-F6276E126A03";
name = "Jul 30 22, 03:14";
paths = (
{
closed = 1;
nodes = (
"45 800 LINE SMOOTH",
"36 800 OFFCURVE",
"30 794 OFFCURVE",
"30 785 CURVE SMOOTH",
"30 15 LINE SMOOTH",
"30 6 OFFCURVE",
"36 0 OFFCURVE",
"45 0 CURVE SMOOTH",
"259 0 LINE SMOOTH",
"268 0 OFFCURVE",
"274 6 OFFCURVE",
"274 15 CURVE SMOOTH",
"274 250 LINE",
"284 250 LINE",
"370 12 LINE SMOOTH",
"373 4 OFFCURVE",
"380 0 OFFCURVE",
"388 0 CURVE SMOOTH",
"569 0 LINE SMOOTH",
"578 0 OFFCURVE",
"584 7 OFFCURVE",
"584 15 CURVE SMOOTH",
"584 129 LINE SMOOTH",
"584 139 OFFCURVE",
"582 145 OFFCURVE",
"579 152 CURVE SMOOTH",
"491 352 LINE",
"491 394 LINE",
"564 463 LINE SMOOTH",
"571 469 OFFCURVE",
"574 473 OFFCURVE",
"574 481 CURVE SMOOTH",
"574 651 LINE SMOOTH",
"574 658 OFFCURVE",
"572 664 OFFCURVE",
"567 670 CURVE SMOOTH",
"457 792 LINE SMOOTH",
"452 798 OFFCURVE",
"445 800 OFFCURVE",
"438 800 CURVE SMOOTH"
);
},
{
closed = 1;
nodes = (
"259 484 OFFCURVE",
"236 507 OFFCURVE",
"236 539 CURVE SMOOTH",
"236 571 OFFCURVE",
"259 594 OFFCURVE",
"291 594 CURVE SMOOTH",
"323 594 OFFCURVE",
"346 571 OFFCURVE",
"346 539 CURVE SMOOTH",
"346 507 OFFCURVE",
"323 484 OFFCURVE",
"291 484 CURVE SMOOTH"
);
}
);
width = 592;
},
{
guideLines = (
{
position = "{236, 539}";
showMeasurement = 1;
}
);
layerId = "462F72A0-0500-4E69-A49B-6C2F2580580D";
paths = (
{
closed = 1;
nodes = (
"45 800 LINE SMOOTH",
"36 800 OFFCURVE",
"30 794 OFFCURVE",
"30 785 CURVE SMOOTH",
"30 15 LINE SMOOTH",
"30 6 OFFCURVE",
"36 0 OFFCURVE",
"45 0 CURVE SMOOTH",
"259 0 LINE SMOOTH",
"268 0 OFFCURVE",
"274 6 OFFCURVE",
"274 15 CURVE SMOOTH",
"274 184 LINE",
"310 184 LINE",
"372 12 LINE SMOOTH",
"375 4 OFFCURVE",
"382 0 OFFCURVE",
"390 0 CURVE SMOOTH",
"569 0 LINE SMOOTH",
"578 0 OFFCURVE",
"584 7 OFFCURVE",
"584 15 CURVE SMOOTH",
"584 129 LINE SMOOTH",
"584 139 OFFCURVE",
"582 145 OFFCURVE",
"579 152 CURVE SMOOTH",
"491 352 LINE",
"491 394 LINE",
"564 463 LINE SMOOTH",
"571 469 OFFCURVE",
"574 473 OFFCURVE",
"574 481 CURVE SMOOTH",
"574 651 LINE SMOOTH",
"574 658 OFFCURVE",
"572 664 OFFCURVE",
"567 670 CURVE SMOOTH",
"457 792 LINE SMOOTH",
"452 798 OFFCURVE",
"445 800 OFFCURVE",
"438 800 CURVE SMOOTH"
);
},
{
closed = 1;
nodes = (
"259 484 OFFCURVE",
"236 507 OFFCURVE",
"236 539 CURVE SMOOTH",
"236 571 OFFCURVE",
"259 594 OFFCURVE",
"291 594 CURVE SMOOTH",
"323 594 OFFCURVE",
"346 571 OFFCURVE",
"346 539 CURVE SMOOTH",
"346 507 OFFCURVE",
"323 484 OFFCURVE",
"291 484 CURVE SMOOTH"
);
}
);
width = 592;
}
);
},
{
glyphname = Y.ss02;
lastChange = "2022-06-03 23:26:29 +0000";
layers = (
{
layerId = "462F72A0-0500-4E69-A49B-6C2F2580580D";
paths = (
{
closed = 1;
nodes = (
"30 6 OFFCURVE",
"36 0 OFFCURVE",
"45 0 CURVE SMOOTH",
"563 0 LINE SMOOTH",
"572 0 OFFCURVE",
"578 6 OFFCURVE",
"578 15 CURVE SMOOTH",
"578 785 LINE SMOOTH",
"578 794 OFFCURVE",
"572 800 OFFCURVE",
"563 800 CURVE SMOOTH",
"349 800 LINE SMOOTH",
"340 800 OFFCURVE",
"334 794 OFFCURVE",
"334 785 CURVE SMOOTH",
"334 518 LINE",
"274 517 LINE",
"274 785 LINE SMOOTH",
"274 794 OFFCURVE",
"268 800 OFFCURVE",
"259 800 CURVE SMOOTH",
"45 800 LINE SMOOTH",
"36 800 OFFCURVE",
"30 794 OFFCURVE",
"30 785 CURVE SMOOTH",
"30 301 LINE SMOOTH",
"30 292 OFFCURVE",
"36 286 OFFCURVE",
"45 286 CURVE SMOOTH",
"334 286 LINE",
"334 232 LINE",
"45 232 LINE SMOOTH",
"36 232 OFFCURVE",
"30 226 OFFCURVE",
"30 217 CURVE SMOOTH",
"30 15 LINE SMOOTH"
);
}
);
width = 608;
}
);
rightMetricsKey = H;
},
{
glyphname = R.ss03;
lastChange = "2022-07-30 07:14:56 +0000";
layers = (
{
layerId = "462F72A0-0500-4E69-A49B-6C2F2580580D";
paths = (
{
closed = 1;
nodes = (
"45 800 LINE SMOOTH",
"36 800 OFFCURVE",
"30 794 OFFCURVE",
"30 785 CURVE SMOOTH",
"30 15 LINE SMOOTH",
"30 6 OFFCURVE",
"36 0 OFFCURVE",
"45 0 CURVE SMOOTH",
"259 0 LINE SMOOTH",
"268 0 OFFCURVE",
"274 6 OFFCURVE",
"274 15 CURVE SMOOTH",
"274 250 LINE",
"284 250 LINE",
"370 12 LINE SMOOTH",
"373 4 OFFCURVE",
"380 0 OFFCURVE",
"388 0 CURVE SMOOTH",
"569 0 LINE SMOOTH",
"578 0 OFFCURVE",
"584 7 OFFCURVE",
"584 15 CURVE SMOOTH",
"584 129 LINE SMOOTH",
"584 139 OFFCURVE",
"582 145 OFFCURVE",
"579 152 CURVE SMOOTH",
"491 352 LINE",
"491 394 LINE",
"564 463 LINE SMOOTH",
"571 469 OFFCURVE",
"574 473 OFFCURVE",
"574 481 CURVE SMOOTH",
"574 651 LINE SMOOTH",
"574 658 OFFCURVE",
"572 664 OFFCURVE",
"567 670 CURVE SMOOTH",
"457 792 LINE SMOOTH",
"452 798 OFFCURVE",
"445 800 OFFCURVE",
"438 800 CURVE SMOOTH"
);
},
{
closed = 1;
nodes = (
"259 484 OFFCURVE",
"236 507 OFFCURVE",
"236 539 CURVE SMOOTH",
"236 571 OFFCURVE",
"259 594 OFFCURVE",
"291 594 CURVE SMOOTH",
"323 594 OFFCURVE",
"346 571 OFFCURVE",
"346 539 CURVE SMOOTH",
"346 507 OFFCURVE",
"323 484 OFFCURVE",
"291 484 CURVE SMOOTH"
);
}
);
width = 592;
}
);
},
{
glyphname = Y.ss03;
lastChange = "2022-07-30 05:39:37 +0000";
layers = (
{
layerId = "462F72A0-0500-4E69-A49B-6C2F2580580D";
paths = (
{
closed = 1;
nodes = (
"563 0 LINE SMOOTH",
"572 0 OFFCURVE",
"578 6 OFFCURVE",
"578 15 CURVE SMOOTH",
"578 785 LINE SMOOTH",
"578 794 OFFCURVE",
"572 800 OFFCURVE",
"563 800 CURVE SMOOTH",
"349 800 LINE SMOOTH",
"340 800 OFFCURVE",
"334 794 OFFCURVE",
"334 785 CURVE SMOOTH",
"334 518 LINE",
"274 517 LINE",
"274 785 LINE SMOOTH",
"274 794 OFFCURVE",
"268 800 OFFCURVE",
"259 800 CURVE SMOOTH",
"45 800 LINE SMOOTH",
"36 800 OFFCURVE",
"30 794 OFFCURVE",
"30 785 CURVE SMOOTH",
"30 385 LINE SMOOTH",
"30 378 OFFCURVE",
"32 372 OFFCURVE",
"37 366 CURVE SMOOTH",
"106 294 LINE SMOOTH",
"111 288 OFFCURVE",
"118 286 OFFCURVE",
"125 286 CURVE SMOOTH",
"334 286 LINE",
"334 232 LINE",
"45 232 LINE SMOOTH",
"36 232 OFFCURVE",
"30 226 OFFCURVE",
"30 217 CURVE SMOOTH",
"30 15 LINE SMOOTH",
"30 6 OFFCURVE",
"36 0 OFFCURVE",
"45 0 CURVE SMOOTH"
);
}
);
width = 608;
}
);
rightMetricsKey = H;
},
{
glyphname = Ismall;
lastChange = "2022-04-23 21:20:44 +0000";
layers = (
{
anchors = (
{
name = bottom;
position = "{149, 0}";
},
{
name = top;
position = "{149, 560}";
}
);
layerId = "462F72A0-0500-4E69-A49B-6C2F2580580D";
paths = (
{
closed = 1;
nodes = (
"276 545 LINE",
"276 554 OFFCURVE",
"270 560 OFFCURVE",
"261 560 CURVE SMOOTH",
"36 560 LINE SMOOTH",
"27 560 OFFCURVE",
"21 554 OFFCURVE",
"21 545 CURVE SMOOTH",
"21 15 LINE SMOOTH",
"21 6 OFFCURVE",
"27 0 OFFCURVE",
"36 0 CURVE SMOOTH",
"261 0 LINE SMOOTH",
"270 0 OFFCURVE",
"276 6 OFFCURVE",
"276 15 CURVE"
);
}
);
width = 297;
}
);
unicode = 026A;
},
{
glyphname = Nsmall;
lastChange = "2022-04-23 21:20:17 +0000";
layers = (
{
anchors = (
{
name = bottom;
position = "{297, -30}";
},
{
name = top;
position = "{297, 800}";
}
);
layerId = "462F72A0-0500-4E69-A49B-6C2F2580580D";
paths = (
{
closed = 1;
nodes = (
"21 6 OFFCURVE",
"27 0 OFFCURVE",
"36 0 CURVE SMOOTH",
"240 0 LINE SMOOTH",
"249 0 OFFCURVE",
"255 6 OFFCURVE",
"255 15 CURVE SMOOTH",
"255 178 LINE",
"261 178 LINE",
"343 10 LINE SMOOTH",
"347 3 OFFCURVE",
"351 0 OFFCURVE",
"357 0 CURVE SMOOTH",
"558 0 LINE SMOOTH",
"567 0 OFFCURVE",
"573 6 OFFCURVE",
"573 15 CURVE SMOOTH",
"573 545 LINE SMOOTH",
"573 554 OFFCURVE",
"567 560 OFFCURVE",
"558 560 CURVE SMOOTH",
"354 560 LINE SMOOTH",
"345 560 OFFCURVE",
"339 554 OFFCURVE",
"339 545 CURVE SMOOTH",
"339 336 LINE",
"333 336 LINE",
"251 551 LINE SMOOTH",
"249 556 OFFCURVE",
"244 560 OFFCURVE",
"238 560 CURVE SMOOTH",
"36 560 LINE SMOOTH",
"27 560 OFFCURVE",
"21 554 OFFCURVE",
"21 545 CURVE SMOOTH",
"21 15 LINE SMOOTH"
);
}
);
width = 594;
}
);
unicode = 0274;
},
{
glyphname = Usmallstroke;
lastChange = "2023-09-15 17:55:26 +0000";
layers = (
{
layerId = "462F72A0-0500-4E69-A49B-6C2F2580580D";
paths = (
{
closed = 1;
nodes = (
"556 554 OFFCURVE",
"550 560 OFFCURVE",
"541 560 CURVE SMOOTH",
"324 560 LINE SMOOTH",
"315 560 OFFCURVE",
"309 554 OFFCURVE",
"309 545 CURVE SMOOTH",
"309 228 LINE",
"288 228 LINE SMOOTH",
"268 228 OFFCURVE",
"257 240 OFFCURVE",
"257 252 CURVE SMOOTH",
"257 545 LINE SMOOTH",
"257 554 OFFCURVE",
"251 560 OFFCURVE",
"242 560 CURVE SMOOTH",
"24 560 LINE SMOOTH",
"15 560 OFFCURVE",
"9 554 OFFCURVE",
"9 545 CURVE SMOOTH",
"9 120 LINE SMOOTH",
"9 113 OFFCURVE",
"11 107 OFFCURVE",
"17 102 CURVE SMOOTH",
"126 7 LINE SMOOTH",
"131 2 OFFCURVE",
"138 0 OFFCURVE",
"145 0 CURVE SMOOTH",
"541 0 LINE SMOOTH",
"550 0 OFFCURVE",
"556 6 OFFCURVE",
"556 15 CURVE SMOOTH",
"556 545 LINE SMOOTH"
);
}
);
width = 577;
}
);
unicode = 1D7E;
},
{
glyphname = zero;
lastChange = "2022-06-04 00:40:38 +0000";
layers = (
{
guideLines = (
{
angle = 90;
position = "{845, -368}";
}
);
layerId = "462F72A0-0500-4E69-A49B-6C2F2580580D";
paths = (
{
closed = 1;
nodes = (
"529 0 LINE SMOOTH",
"538 0 OFFCURVE",
"544 6 OFFCURVE",
"544 15 CURVE SMOOTH",
"544 786 LINE SMOOTH",
"544 795 OFFCURVE",
"538 801 OFFCURVE",
"529 801 CURVE SMOOTH",
"45 799 LINE SMOOTH",
"36 799 OFFCURVE",
"30 793 OFFCURVE",
"30 784 CURVE SMOOTH",
"30 15 LINE SMOOTH",
"30 6 OFFCURVE",
"36 0 OFFCURVE",
"45 0 CURVE SMOOTH"
);
},
{
closed = 1;
nodes = (
"317 583 LINE",
"317 217 LINE",
"258 217 LINE",
"258 583 LINE"
);
}
);
width = 574;
}
);
leftMetricsKey = "=H";
rightMetricsKey = "=H";
unicode = 0030;
},
{
glyphname = one;
lastChange = "2022-06-04 00:41:06 +0000";
layers = (
{
layerId = "462F72A0-0500-4E69-A49B-6C2F2580580D";
paths = (
{
closed = 1;
nodes = (
"82 576 LINE",
"82 15 LINE SMOOTH",
"82 6 OFFCURVE",
"88 0 OFFCURVE",
"97 0 CURVE SMOOTH",
"311 0 LINE SMOOTH",
"320 0 OFFCURVE",
"326 6 OFFCURVE",
"326 15 CURVE SMOOTH",
"326 785 LINE SMOOTH",
"326 794 OFFCURVE",
"320 800 OFFCURVE",
"311 800 CURVE SMOOTH",
"32 800 LINE SMOOTH",
"23 800 OFFCURVE",
"17 794 OFFCURVE",
"17 785 CURVE SMOOTH",
"17 591 LINE SMOOTH",
"17 582 OFFCURVE",
"23 576 OFFCURVE",
"32 576 CURVE SMOOTH"
);
}
);
width = 356;
}
);
rightMetricsKey = "=H";
unicode = 0031;
},
{
glyphname = two;
lastChange = "2022-06-04 00:41:39 +0000";
layers = (
{
layerId = "462F72A0-0500-4E69-A49B-6C2F2580580D";
paths = (
{
closed = 1;
nodes = (
"248 240 LINE",
"433 240 LINE SMOOTH",
"442 240 OFFCURVE",
"448 234 OFFCURVE",
"448 225 CURVE SMOOTH",
"448 15 LINE SMOOTH",
"448 6 OFFCURVE",
"442 0 OFFCURVE",
"433 0 CURVE SMOOTH",
"43 0 LINE SMOOTH",
"34 0 OFFCURVE",
"28 6 OFFCURVE",
"28 15 CURVE SMOOTH",
"27 393 LINE SMOOTH",
"27 402 OFFCURVE",
"31 407 OFFCURVE",
"38 410 CURVE SMOOTH",
"183 479 LINE",
"183 502 LINE",
"36 610 LINE SMOOTH",
"30 614 OFFCURVE",
"27 620 OFFCURVE",
"27 628 CURVE SMOOTH",
"27 785 LINE SMOOTH",
"27 794 OFFCURVE",
"33 800 OFFCURVE",
"42 800 CURVE SMOOTH",
"260 800 LINE SMOOTH",
"267 800 OFFCURVE",
"272 799 OFFCURVE",
"278 794 CURVE SMOOTH",
"437 661 LINE SMOOTH",
"443 656 OFFCURVE",
"446 651 OFFCURVE",
"446 643 CURVE SMOOTH",
"446 378 LINE SMOOTH",
"446 370 OFFCURVE",
"443 361 OFFCURVE",
"436 358 CURVE SMOOTH",
"248 271 LINE"
);
}
);
width = 473;
}
);
unicode = 0032;
},
{
glyphname = three;
lastChange = "2022-06-04 00:42:20 +0000";
layers = (
{
annotations = (
{
position = "{40.296, 0.739}";
type = Arrow;
}
);
layerId = "462F72A0-0500-4E69-A49B-6C2F2580580D";
paths = (
{
closed = 1;
nodes = (
"27 19 LINE SMOOTH",
"27 11 OFFCURVE",
"34 4 OFFCURVE",
"42 4 CURVE SMOOTH",
"324 0 LINE SMOOTH",
"331 0 OFFCURVE",
"338 2 OFFCURVE",
"343 7 CURVE SMOOTH",
"457 133 LINE SMOOTH",
"462 139 OFFCURVE",
"465 144 OFFCURVE",
"465 151 CURVE SMOOTH",
"465 274 LINE SMOOTH",
"465 281 OFFCURVE",
"463 286 OFFCURVE",
"459 292 CURVE SMOOTH",
"401 381 LINE",
"401 419 LINE",
"459 508 LINE SMOOTH",
"463 514 OFFCURVE",
"465 519 OFFCURVE",
"465 526 CURVE SMOOTH",
"465 649 LINE SMOOTH",
"465 656 OFFCURVE",
"462 661 OFFCURVE",
"457 667 CURVE SMOOTH",
"343 793 LINE SMOOTH",
"338 798 OFFCURVE",
"331 800 OFFCURVE",
"324 800 CURVE SMOOTH",
"42 804 LINE SMOOTH",
"34 804 OFFCURVE",
"27 797 OFFCURVE",
"27 789 CURVE SMOOTH",
"27 581 LINE SMOOTH",
"27 573 OFFCURVE",
"34 566 OFFCURVE",
"42 566 CURVE SMOOTH",
"242 562 LINE",
"242 498 LINE",
"72 500 LINE SMOOTH",
"64 500 OFFCURVE",
"57 493 OFFCURVE",
"57 485 CURVE SMOOTH",
"57 321 LINE SMOOTH",
"57 313 OFFCURVE",
"64 306 OFFCURVE",
"72 306 CURVE SMOOTH",
"234 302 LINE",
"234 238 LINE",
"42 242 LINE SMOOTH",
"34 242 OFFCURVE",
"27 235 OFFCURVE",
"27 227 CURVE SMOOTH"
);
}
);
width = 484;
}
);
unicode = 0033;
},
{
glyphname = four;
lastChange = "2022-06-04 00:42:30 +0000";
layers = (
{
layerId = "462F72A0-0500-4E69-A49B-6C2F2580580D";
paths = (
{
closed = 1;
nodes = (
"529 785 LINE",
"529 794 OFFCURVE",
"523 800 OFFCURVE",
"514 800 CURVE SMOOTH",
"310 800 LINE SMOOTH",
"301 800 OFFCURVE",
"295 794 OFFCURVE",
"295 785 CURVE SMOOTH",
"295 15 LINE SMOOTH",
"295 6 OFFCURVE",
"301 0 OFFCURVE",
"310 0 CURVE SMOOTH",
"514 0 LINE SMOOTH",
"523 0 OFFCURVE",
"529 6 OFFCURVE",
"529 15 CURVE"
);
},
{
closed = 1;
nodes = (
"259 785 LINE",
"259 794 OFFCURVE",
"253 800 OFFCURVE",
"244 800 CURVE SMOOTH",
"40 800 LINE SMOOTH",
"31 800 OFFCURVE",
"25 794 OFFCURVE",
"25 785 CURVE SMOOTH",
"25 215 LINE SMOOTH",
"25 206 OFFCURVE",
"31 200 OFFCURVE",
"40 200 CURVE SMOOTH",
"244 200 LINE SMOOTH",
"253 200 OFFCURVE",
"259 206 OFFCURVE",
"259 215 CURVE"
);
},
{
closed = 1;
nodes = (
"73 200 LINE",
"513 200 LINE",
"513 424 LINE",
"73 424 LINE"
);
}
);
width = 559;
}
);
rightMetricsKey = "=H";
unicode = 0034;
},
{
glyphname = five;
lastChange = "2022-06-04 00:42:47 +0000";
layers = (
{
layerId = "462F72A0-0500-4E69-A49B-6C2F2580580D";
paths = (
{
closed = 1;
nodes = (
"28 7 OFFCURVE",
"35 0 OFFCURVE",
"43 0 CURVE SMOOTH",
"343 0 LINE SMOOTH",
"350 0 OFFCURVE",
"357 2 OFFCURVE",
"362 7 CURVE SMOOTH",
"477 134 LINE SMOOTH",
"482 139 OFFCURVE",
"484 146 OFFCURVE",
"484 153 CURVE SMOOTH",
"484 493 LINE SMOOTH",
"484 502 OFFCURVE",
"478 508 OFFCURVE",
"469 508 CURVE SMOOTH",
"248 508 LINE",
"248 569 LINE",
"469 569 LINE SMOOTH",
"478 569 OFFCURVE",
"484 575 OFFCURVE",
"484 584 CURVE SMOOTH",
"484 785 LINE SMOOTH",
"484 794 OFFCURVE",
"478 800 OFFCURVE",
"469 800 CURVE SMOOTH",
"45 800 LINE SMOOTH",
"36 800 OFFCURVE",
"30 794 OFFCURVE",
"30 785 CURVE SMOOTH",
"29 324 LINE SMOOTH",
"29 316 OFFCURVE",
"36 309 OFFCURVE",
"44 309 CURVE SMOOTH",
"250 309 LINE",
"250 238 LINE",
"43 238 LINE SMOOTH",
"35 238 OFFCURVE",
"28 231 OFFCURVE",
"28 223 CURVE SMOOTH",
"28 15 LINE SMOOTH"
);
}
);
width = 511;
}
);
unicode = 0035;
},
{
glyphname = six;
lastChange = "2023-04-03 12:15:41 +0000";
layers = (
{
layerId = "462F72A0-0500-4E69-A49B-6C2F2580580D";
paths = (
{
closed = 1;
nodes = (
"408 0 LINE SMOOTH",
"415 0 OFFCURVE",
"421 2 OFFCURVE",
"426 8 CURVE SMOOTH",
"536 123 LINE SMOOTH",
"541 128 OFFCURVE",
"543 135 OFFCURVE",
"543 142 CURVE SMOOTH",
"543 390 LINE SMOOTH",
"543 397 OFFCURVE",
"541 403 OFFCURVE",
"536 409 CURVE SMOOTH",
"467 481 LINE SMOOTH",
"462 487 OFFCURVE",
"455 489 OFFCURVE",
"448 489 CURVE SMOOTH",
"290 489 LINE",
"290 502 LINE",
"437 630 LINE SMOOTH",
"443 635 OFFCURVE",
"446 640 OFFCURVE",
"446 648 CURVE SMOOTH",
"446 785 LINE SMOOTH",
"446 794 OFFCURVE",
"440 800 OFFCURVE",
"431 800 CURVE SMOOTH",
"233 800 LINE SMOOTH",
"226 800 OFFCURVE",
"221 799 OFFCURVE",
"215 794 CURVE SMOOTH",
"36 621 LINE SMOOTH",
"30 616 OFFCURVE",
"27 611 OFFCURVE",
"27 603 CURVE SMOOTH",
"27 142 LINE SMOOTH",
"27 135 OFFCURVE",
"29 128 OFFCURVE",
"34 123 CURVE SMOOTH",
"144 8 LINE SMOOTH",
"149 2 OFFCURVE",
"155 0 OFFCURVE",
"162 0 CURVE SMOOTH"
);
},
{
closed = 1;
nodes = (
"251 198 OFFCURVE",
"227 222 OFFCURVE",
"227 256 CURVE SMOOTH",
"227 290 OFFCURVE",
"251 314 OFFCURVE",
"285 314 CURVE SMOOTH",
"319 314 OFFCURVE",
"343 290 OFFCURVE",
"343 256 CURVE SMOOTH",
"343 222 OFFCURVE",
"319 198 OFFCURVE",
"285 198 CURVE SMOOTH"
);
}
);
width = 563;
},
{
associatedMasterId = "462F72A0-0500-4E69-A49B-6C2F2580580D";
layerId = "330E654A-D446-44E4-8C86-81C743FC6958";
name = "Jul 29 22, 21:22";
paths = (
{
closed = 0;
nodes = (
"255 574 LINE",
"255 499 LINE",
"445 499 LINE SMOOTH",
"452 499 OFFCURVE",
"459 497 OFFCURVE",
"464 491 CURVE SMOOTH",
"533 419 LINE SMOOTH",
"538 413 OFFCURVE",
"540 407 OFFCURVE",
"540 400 CURVE SMOOTH",
"540 162 LINE SMOOTH",
"540 155 OFFCURVE",
"538 148 OFFCURVE",
"533 143 CURVE SMOOTH",
"413 8 LINE SMOOTH",
"408 2 OFFCURVE",
"402 0 OFFCURVE",
"395 0 CURVE SMOOTH",
"162 0 LINE SMOOTH",
"155 0 OFFCURVE",
"149 2 OFFCURVE",
"144 8 CURVE SMOOTH",
"34 123 LINE SMOOTH",
"29 128 OFFCURVE",
"27 135 OFFCURVE",
"27 142 CURVE SMOOTH",
"27 378 LINE",
"27 643 LINE SMOOTH",
"27 651 OFFCURVE",
"30 656 OFFCURVE",
"36 661 CURVE SMOOTH",
"195 794 LINE SMOOTH",
"201 799 OFFCURVE",
"206 800 OFFCURVE",
"213 800 CURVE SMOOTH",
"431 800 LINE SMOOTH",
"440 800 OFFCURVE",
"446 794 OFFCURVE",
"446 785 CURVE SMOOTH",
"446 628 LINE SMOOTH",
"446 620 OFFCURVE",
"443 614 OFFCURVE",
"437 610 CURVE SMOOTH",
"290 502 LINE",
"290 479 LINE"
);
},
{
closed = 1;
nodes = (
"343 287 OFFCURVE",
"317 313 OFFCURVE",
"285 313 CURVE SMOOTH",
"254 313 OFFCURVE",
"228 287 OFFCURVE",
"228 256 CURVE SMOOTH",
"228 224 OFFCURVE",
"254 198 OFFCURVE",
"285 198 CURVE SMOOTH",
"317 198 OFFCURVE",
"343 224 OFFCURVE",
"343 256 CURVE SMOOTH"
);
}
);
width = 600;
},
{
associatedMasterId = "462F72A0-0500-4E69-A49B-6C2F2580580D";
layerId = "F7325B30-2A85-44BC-8F9D-D81D78B4DB64";
name = "Jul 29 22, 22:04";
paths = (
{
closed = 1;
nodes = (
"395 0 LINE SMOOTH",
"402 0 OFFCURVE",
"408 2 OFFCURVE",
"413 8 CURVE SMOOTH",
"533 143 LINE SMOOTH",
"538 148 OFFCURVE",
"540 155 OFFCURVE",
"540 162 CURVE SMOOTH",
"540 390 LINE SMOOTH",
"540 397 OFFCURVE",
"538 403 OFFCURVE",
"533 409 CURVE SMOOTH",
"464 481 LINE SMOOTH",
"459 487 OFFCURVE",
"452 489 OFFCURVE",
"445 489 CURVE SMOOTH",
"290 489 LINE",
"290 502 LINE",
"437 610 LINE SMOOTH",
"443 615 OFFCURVE",
"446 620 OFFCURVE",
"446 628 CURVE SMOOTH",
"446 785 LINE SMOOTH",
"446 794 OFFCURVE",
"440 800 OFFCURVE",
"431 800 CURVE SMOOTH",
"213 800 LINE SMOOTH",
"206 800 OFFCURVE",
"201 799 OFFCURVE",
"195 794 CURVE SMOOTH",
"36 661 LINE SMOOTH",
"30 656 OFFCURVE",
"27 651 OFFCURVE",
"27 643 CURVE SMOOTH",
"27 378 LINE",
"27 142 LINE SMOOTH",
"27 135 OFFCURVE",
"29 128 OFFCURVE",
"34 123 CURVE SMOOTH",
"144 8 LINE SMOOTH",
"149 2 OFFCURVE",
"155 0 OFFCURVE",
"162 0 CURVE SMOOTH"
);
},
{
closed = 1;
nodes = (
"254 198 OFFCURVE",
"228 224 OFFCURVE",
"228 256 CURVE SMOOTH",
"228 287 OFFCURVE",
"254 313 OFFCURVE",
"285 313 CURVE SMOOTH",
"317 313 OFFCURVE",
"343 287 OFFCURVE",
"343 256 CURVE SMOOTH",
"343 224 OFFCURVE",
"317 198 OFFCURVE",
"285 198 CURVE SMOOTH"
);
}
);
width = 560;
},
{
associatedMasterId = "462F72A0-0500-4E69-A49B-6C2F2580580D";
layerId = "9B03116C-A39C-4577-A9D1-4B7903DA54D2";
name = "Jul 29 22, 22:07";
paths = (
{
closed = 1;
nodes = (
"395 0 LINE SMOOTH",
"402 0 OFFCURVE",
"408 2 OFFCURVE",
"413 8 CURVE SMOOTH",
"533 143 LINE SMOOTH",
"538 148 OFFCURVE",
"540 155 OFFCURVE",
"540 162 CURVE SMOOTH",
"540 390 LINE SMOOTH",
"540 397 OFFCURVE",
"538 403 OFFCURVE",
"533 409 CURVE SMOOTH",
"464 481 LINE SMOOTH",
"459 487 OFFCURVE",
"452 489 OFFCURVE",
"445 489 CURVE SMOOTH",
"290 489 LINE",
"290 502 LINE",
"437 630 LINE SMOOTH",
"443 635 OFFCURVE",
"446 640 OFFCURVE",
"446 648 CURVE SMOOTH",
"446 785 LINE SMOOTH",
"446 794 OFFCURVE",
"440 800 OFFCURVE",
"431 800 CURVE SMOOTH",
"213 800 LINE SMOOTH",
"206 800 OFFCURVE",
"201 799 OFFCURVE",
"195 794 CURVE SMOOTH",
"36 641 LINE SMOOTH",
"30 636 OFFCURVE",
"27 631 OFFCURVE",
"27 623 CURVE SMOOTH",
"27 378 LINE",
"27 142 LINE SMOOTH",
"27 135 OFFCURVE",
"29 128 OFFCURVE",
"34 123 CURVE SMOOTH",
"144 8 LINE SMOOTH",
"149 2 OFFCURVE",
"155 0 OFFCURVE",
"162 0 CURVE SMOOTH"
);
},
{
closed = 1;
nodes = (
"251 198 OFFCURVE",
"227 222 OFFCURVE",
"227 256 CURVE SMOOTH",
"227 290 OFFCURVE",
"251 314 OFFCURVE",
"285 314 CURVE SMOOTH",
"319 314 OFFCURVE",
"343 290 OFFCURVE",
"343 256 CURVE SMOOTH",
"343 222 OFFCURVE",
"319 198 OFFCURVE",
"285 198 CURVE SMOOTH"
);
}
);
width = 560;
}
);
leftMetricsKey = six;
unicode = 0036;
},
{
glyphname = seven;
lastChange = "2022-07-30 05:51:21 +0000";
layers = (
{
layerId = "462F72A0-0500-4E69-A49B-6C2F2580580D";
paths = (
{
closed = 1;
nodes = (
"190 574 LINE",
"190 553 LINE",
"58 16 LINE SMOOTH",
"55 5 OFFCURVE",
"61 0 OFFCURVE",
"71 0 CURVE SMOOTH",
"284 0 LINE SMOOTH",
"293 0 OFFCURVE",
"298 5 OFFCURVE",
"300 13 CURVE SMOOTH",
"454 659 LINE SMOOTH",
"456 666 OFFCURVE",
"454 673 OFFCURVE",
"450 679 CURVE SMOOTH",
"369 791 LINE SMOOTH",
"364 798 OFFCURVE",
"359 800 OFFCURVE",
"351 800 CURVE SMOOTH",
"34 800 LINE SMOOTH",
"25 800 OFFCURVE",
"19 794 OFFCURVE",
"19 785 CURVE SMOOTH",
"19 589 LINE SMOOTH",
"19 580 OFFCURVE",
"25 574 OFFCURVE",
"34 574 CURVE SMOOTH"
);
}
);
width = 460;
},
{
associatedMasterId = "462F72A0-0500-4E69-A49B-6C2F2580580D";
layerId = "8B641B57-A0CE-4764-AAE4-4BD0405C08C7";
name = "Jul 30 22, 01:50";
paths = (
{
closed = 1;
nodes = (
"190 574 LINE",
"190 553 LINE",
"66 16 LINE SMOOTH",
"63 5 OFFCURVE",
"69 0 OFFCURVE",
"79 0 CURVE SMOOTH",
"281 0 LINE SMOOTH",
"290 0 OFFCURVE",
"295 5 OFFCURVE",
"297 13 CURVE SMOOTH",
"451 659 LINE SMOOTH",
"453 666 OFFCURVE",
"451 673 OFFCURVE",
"447 679 CURVE SMOOTH",
"366 791 LINE SMOOTH",
"361 798 OFFCURVE",
"356 800 OFFCURVE",
"348 800 CURVE SMOOTH",
"34 800 LINE SMOOTH",
"25 800 OFFCURVE",
"19 794 OFFCURVE",
"19 785 CURVE SMOOTH",
"19 589 LINE SMOOTH",
"19 580 OFFCURVE",
"25 574 OFFCURVE",
"34 574 CURVE SMOOTH"
);
}
);
width = 457;
}
);
unicode = 0037;
},
{
glyphname = eight;
lastChange = "2022-06-04 00:43:58 +0000";
layers = (
{
layerId = "462F72A0-0500-4E69-A49B-6C2F2580580D";
paths = (
{
closed = 1;
nodes = (
"322 474 OFFCURVE",
"345 497 OFFCURVE",
"345 526 CURVE SMOOTH",
"345 554 OFFCURVE",
"322 578 OFFCURVE",
"293 578 CURVE SMOOTH",
"265 578 OFFCURVE",
"242 554 OFFCURVE",
"242 526 CURVE SMOOTH",
"242 497 OFFCURVE",
"265 474 OFFCURVE",
"293 474 CURVE SMOOTH"
);
},
{
closed = 1;
nodes = (
"390 800 LINE",
"397 800 OFFCURVE",
"404 798 OFFCURVE",
"409 793 CURVE SMOOTH",
"553 667 LINE SMOOTH",
"559 662 OFFCURVE",
"561 656 OFFCURVE",
"561 649 CURVE SMOOTH",
"561 521 LINE SMOOTH",
"561 513 OFFCURVE",
"557 511 OFFCURVE",
"551 503 CURVE SMOOTH",
"487 424 LINE",
"487 386 LINE",
"551 307 LINE SMOOTH",
"557 299 OFFCURVE",
"561 297 OFFCURVE",
"561 289 CURVE SMOOTH",
"561 151 LINE SMOOTH",
"561 144 OFFCURVE",
"559 138 OFFCURVE",
"553 133 CURVE SMOOTH",
"409 7 LINE SMOOTH",
"404 2 OFFCURVE",
"397 0 OFFCURVE",
"390 0 CURVE",
"190 0 LINE",
"183 0 OFFCURVE",
"176 2 OFFCURVE",
"171 7 CURVE SMOOTH",
"27 133 LINE SMOOTH",
"21 138 OFFCURVE",
"19 144 OFFCURVE",
"19 151 CURVE SMOOTH",
"19 289 LINE SMOOTH",
"19 297 OFFCURVE",
"23 299 OFFCURVE",
"29 307 CURVE SMOOTH",
"93 386 LINE",
"93 424 LINE",
"29 503 LINE SMOOTH",
"23 511 OFFCURVE",
"19 513 OFFCURVE",
"19 521 CURVE SMOOTH",
"19 649 LINE SMOOTH",
"19 656 OFFCURVE",
"21 662 OFFCURVE",
"27 667 CURVE SMOOTH",
"171 793 LINE SMOOTH",
"176 798 OFFCURVE",
"183 800 OFFCURVE",
"190 800 CURVE"
);
},
{
closed = 1;
nodes = (
"326 201 OFFCURVE",
"351 226 OFFCURVE",
"351 256 CURVE SMOOTH",
"351 286 OFFCURVE",
"326 311 OFFCURVE",
"296 311 CURVE SMOOTH",
"266 311 OFFCURVE",
"242 286 OFFCURVE",
"242 256 CURVE SMOOTH",
"242 226 OFFCURVE",
"266 201 OFFCURVE",
"296 201 CURVE SMOOTH"
);
}
);
width = 580;
}
);
unicode = 0038;
},
{
glyphname = six.ALT;
lastChange = "2023-04-03 12:15:35 +0000";
layers = (
{
layerId = "462F72A0-0500-4E69-A49B-6C2F2580580D";
paths = (
{
closed = 1;
nodes = (
"413 8 LINE SMOOTH",
"408 2 OFFCURVE",
"402 0 OFFCURVE",
"395 0 CURVE SMOOTH",
"162 0 LINE SMOOTH",
"155 0 OFFCURVE",
"149 2 OFFCURVE",
"144 8 CURVE SMOOTH",
"34 123 LINE SMOOTH",
"29 128 OFFCURVE",
"27 135 OFFCURVE",
"27 142 CURVE SMOOTH",
"27 663 LINE SMOOTH",
"27 670 OFFCURVE",
"29 677 OFFCURVE",
"34 682 CURVE SMOOTH",
"137 792 LINE SMOOTH",
"142 798 OFFCURVE",
"148 800 OFFCURVE",
"155 800 CURVE SMOOTH",
"489 800 LINE SMOOTH",
"498 800 OFFCURVE",
"504 794 OFFCURVE",
"504 785 CURVE SMOOTH",
"504 589 LINE SMOOTH",
"504 580 OFFCURVE",
"498 574 OFFCURVE",
"489 574 CURVE SMOOTH",
"255 574 LINE",
"255 499 LINE",
"445 499 LINE SMOOTH",
"452 499 OFFCURVE",
"459 497 OFFCURVE",
"464 491 CURVE SMOOTH",
"533 419 LINE SMOOTH",
"538 413 OFFCURVE",
"540 407 OFFCURVE",
"540 400 CURVE SMOOTH",
"540 162 LINE SMOOTH",
"540 155 OFFCURVE",
"538 148 OFFCURVE",
"533 143 CURVE SMOOTH"
);
},
{
closed = 1;
nodes = (
"343 287 OFFCURVE",
"317 313 OFFCURVE",
"285 313 CURVE SMOOTH",
"254 313 OFFCURVE",
"228 287 OFFCURVE",
"228 256 CURVE SMOOTH",
"228 224 OFFCURVE",
"254 198 OFFCURVE",
"285 198 CURVE SMOOTH",
"317 198 OFFCURVE",
"343 224 OFFCURVE",
"343 256 CURVE SMOOTH"
);
}
);
width = 561;
}
);
},
{
glyphname = nine.ALT;
lastChange = "2023-04-03 12:15:45 +0000";
layers = (
{
layerId = "462F72A0-0500-4E69-A49B-6C2F2580580D";
paths = (
{
closed = 1;
nodes = (
"148 792 LINE SMOOTH",
"153 798 OFFCURVE",
"159 800 OFFCURVE",
"166 800 CURVE SMOOTH",
"399 800 LINE SMOOTH",
"406 800 OFFCURVE",
"412 798 OFFCURVE",
"417 792 CURVE SMOOTH",
"527 677 LINE SMOOTH",
"532 672 OFFCURVE",
"534 665 OFFCURVE",
"534 658 CURVE SMOOTH",
"534 137 LINE SMOOTH",
"534 130 OFFCURVE",
"532 123 OFFCURVE",
"527 118 CURVE SMOOTH",
"424 8 LINE SMOOTH",
"419 2 OFFCURVE",
"413 0 OFFCURVE",
"406 0 CURVE SMOOTH",
"62 6 LINE SMOOTH",
"53 6 OFFCURVE",
"47 12 OFFCURVE",
"47 21 CURVE SMOOTH",
"47 217 LINE SMOOTH",
"47 226 OFFCURVE",
"53 232 OFFCURVE",
"62 232 CURVE SMOOTH",
"306 226 LINE",
"306 288 LINE",
"116 288 LINE SMOOTH",
"109 288 OFFCURVE",
"102 290 OFFCURVE",
"97 296 CURVE SMOOTH",
"28 368 LINE SMOOTH",
"23 374 OFFCURVE",
"21 380 OFFCURVE",
"21 387 CURVE SMOOTH",
"21 638 LINE SMOOTH",
"21 645 OFFCURVE",
"23 652 OFFCURVE",
"28 657 CURVE SMOOTH"
);
},
{
closed = 1;
nodes = (
"218 500 OFFCURVE",
"244 474 OFFCURVE",
"276 474 CURVE SMOOTH",
"307 474 OFFCURVE",
"333 500 OFFCURVE",
"333 531 CURVE SMOOTH",
"333 563 OFFCURVE",
"307 589 OFFCURVE",
"276 589 CURVE SMOOTH",
"244 589 OFFCURVE",
"218 563 OFFCURVE",
"218 531 CURVE SMOOTH"
);
}
);
width = 561;
}
);
},
{
glyphname = six.ss02;
lastChange = "2022-07-30 02:10:38 +0000";
layers = (
{
layerId = "462F72A0-0500-4E69-A49B-6C2F2580580D";
paths = (
{
closed = 1;
nodes = (
"408 0 LINE SMOOTH",
"415 0 OFFCURVE",
"421 2 OFFCURVE",
"426 8 CURVE SMOOTH",
"536 123 LINE SMOOTH",
"541 128 OFFCURVE",
"543 135 OFFCURVE",
"543 142 CURVE SMOOTH",
"543 390 LINE SMOOTH",
"543 397 OFFCURVE",
"541 403 OFFCURVE",
"536 409 CURVE SMOOTH",
"467 481 LINE SMOOTH",
"462 487 OFFCURVE",
"455 489 OFFCURVE",
"448 489 CURVE SMOOTH",
"290 489 LINE",
"290 502 LINE",
"497 630 LINE SMOOTH",
"503 634 OFFCURVE",
"506 640 OFFCURVE",
"506 648 CURVE SMOOTH",
"506 785 LINE SMOOTH",
"506 794 OFFCURVE",
"500 800 OFFCURVE",
"491 800 CURVE SMOOTH",
"293 800 LINE SMOOTH",
"286 800 OFFCURVE",
"281 799 OFFCURVE",
"275 794 CURVE SMOOTH",
"36 621 LINE SMOOTH",
"30 616 OFFCURVE",
"27 611 OFFCURVE",
"27 603 CURVE SMOOTH",
"27 142 LINE SMOOTH",
"27 135 OFFCURVE",
"29 128 OFFCURVE",
"34 123 CURVE SMOOTH",
"144 8 LINE SMOOTH",
"149 2 OFFCURVE",
"155 0 OFFCURVE",
"162 0 CURVE SMOOTH"
);
},
{
closed = 1;
nodes = (
"251 198 OFFCURVE",
"227 222 OFFCURVE",
"227 256 CURVE SMOOTH",
"227 290 OFFCURVE",
"251 314 OFFCURVE",
"285 314 CURVE SMOOTH",
"319 314 OFFCURVE",
"343 290 OFFCURVE",
"343 256 CURVE SMOOTH",
"343 222 OFFCURVE",
"319 198 OFFCURVE",
"285 198 CURVE SMOOTH"
);
}
);
width = 563;
}
);
},
